SplineFontDB: 2.0
FontName: IsabelleMonoBold
FullName: IsabelleMonoBold
FamilyName: IsabelleMono
Weight: Bold
Copyright: 
Version: 
ItalicAngle: 0
UnderlinePosition: -344
UnderlineWidth: 246
Ascent: 1556
Descent: 492
Order2: 1
NeedsXUIDChange: 1
XUID: [1021 906 1711068302 8128416]
FSType: 4
OS2Version: 1
OS2_WeightWidthSlopeOnly: 0
OS2_UseTypoMetrics: 1
CreationTime: 1050374980
ModificationTime: 1220730795
PfmFamily: 17
TTFWeight: 700
TTFWidth: 5
LineGap: 0
VLineGap: 0
Panose: 2 11 7 9 3 6 4 2 2 4
OS2TypoAscent: 0
OS2TypoAOffset: 1
OS2TypoDescent: 0
OS2TypoDOffset: 1
OS2TypoLinegap: 410
OS2WinAscent: 0
OS2WinAOffset: 1
OS2WinDescent: 0
OS2WinDOffset: 1
HheadAscent: 0
HheadAOffset: 1
HheadDescent: 0
HheadDOffset: 1
OS2SubXSize: 1351
OS2SubYSize: 1228
OS2SubXOff: 0
OS2SubYOff: -446
OS2SupXSize: 1351
OS2SupYSize: 1228
OS2SupXOff: 0
OS2SupYOff: 595
OS2StrikeYSize: 246
OS2StrikeYPos: 614
OS2FamilyClass: 2050
OS2Vendor: 'Bits'
OS2CodePages: 00000001.00000000
OS2UnicodeRanges: 800000af.1000204a.00000000.00000000
DEI: 0
TtfTable: prep 1272
\,q1GFM@_V]=S0V]*#V?"1S+/[^AU/[^uXL7g$+R"1+9qZ8)NeA-9'%"0\j@"g;\DXqLo='*G<7
"0/=0"fhD$W=8s.Vi1eXrWB+7"K/,""fI:]VgnoIV'ZAC=TbNd"JmFIV#CIk1'=6c"/2AX"eknt
Tt(-M5lUt[T0WXR7g#AL".l&="eKK3SMC;;rWAYd".K&gRJm;U&d+IH"-sc+PPtZIrWA;^"-EKa
O(Ak+O*q+jN>)PV('BPT&-\%-",mcnMe4"6M_YBl$j2?B]*4&j",M_<"c0bmLk#V`L*["Y>m#jI
"GS3)KnKs?Kc'uG%g.HM"+pLSJRoArJMI=XIhN!9A-7;p"+HO<I:NG-;ZhAY*X-mG"+"Mi"aVp+
Go-X.Af_,#A-7&T"*XYGFE7lpEt&4lE@qE8rW@-m")qin"`SklD\rRoD7]shrW@"R>m5)W")WPk
ChY1!Cg@-Z5Qkk<");Nr"_tXOBgD\E"))9f"__EKB4`1gB4M*VAIo#W*Wosb"(_B5A,ZR>rW?SW
"(;*1?=X.C>8.6GrW?@="'RG^=Y16i=V_*A('@V<&d;A9"'./Z<W3)";[Wb.&-Gi="&_u3"]CWg
;,@f-;&071&-G`-"&;R$"\t?c9k4?"rW>gm"%l,u"\P'_8J;1sq?'7a"%I\@777dm7=>8+'*CT=
"$mD!5;E=)&Hb0Y%L##p"$AXQ"[!7s3su-O3>Vi[Q30-,$O&O,"$(l73"#gJ5Qj#((^2iW"#__D
"Z@2"2)H-R2+n$.1DC!L(]uQ."#;SJ"YsTj0eF"A0c1!H0,Qqi"Y`=H0,OdD/J84>*WmuF&Hsa!
""h"a5X5VY/1V57/.ht8\,lXq#m;b.%L"?n""Uk^^d&2/.L$4`.LlP1\,h+F<s0sF""4Z^-VFOg

StartChar: u10000
Encoding: 65536 65536 0
Width: 1233
Flags: W
Fore
104 -362 m 1,0,-1
 104 1444 l 1,1,-1
 1128 1444 l 1,2,-1
 1128 -362 l 1,3,-1
 104 -362 l 1,0,-1
219 -248 m 1,4,-1
 1014 -248 l 1,5,-1
 1014 1329 l 1,6,-1
 219 1329 l 1,7,-1
 219 -248 l 1,4,-1
EndSplineSet
EndChar
StartChar: exclam
Encoding: 33 33 4
Width: 614
VWidth: 2220
Flags: W
HStem: 0 235.32<276.39 340.77> 415.14 46.62<295.26 319.68> 1545.12 44.4<279.72 337.44>
VStem: 190.92 235.32<85.47 149.85 1476.3 1512.93>
Fore
426.24 1476.3 m 2,0,-1
 339.66 463.98 l 2,1,2
 337.987 435.531 337.987 435.531 331.567 425.335 c 128,-1,3
 325.148 415.14 325.148 415.14 308.58 415.14 c 0,4,5
 290.194 415.14 290.194 415.14 284.807 426.273 c 128,-1,6
 279.419 437.406 279.419 437.406 277.5 466.2 c 2,7,-1
 190.92 1476.3 l 2,8,9
 190.92 1528.31 190.92 1528.31 226.404 1558.92 c 128,-1,10
 261.888 1589.52 261.888 1589.52 308.58 1589.52 c 128,-1,11
 355.273 1589.52 355.273 1589.52 390.756 1558.92 c 128,-1,12
 426.24 1528.31 426.24 1528.31 426.24 1476.3 c 2,0,-1
426.24 117.66 m 128,-1,14
 426.24 69.3752 426.24 69.3752 391.553 34.6876 c 128,-1,15
 356.865 0 356.865 0 308.58 0 c 128,-1,16
 260.295 0 260.295 0 225.608 34.6876 c 128,-1,17
 190.92 69.3752 190.92 69.3752 190.92 117.66 c 128,-1,18
 190.92 165.945 190.92 165.945 225.608 200.633 c 128,-1,19
 260.295 235.32 260.295 235.32 308.58 235.32 c 128,-1,20
 356.865 235.32 356.865 235.32 391.553 200.633 c 128,-1,13
 426.24 165.945 426.24 165.945 426.24 117.66 c 128,-1,14
EndSplineSet
EndChar
StartChar: quotedbl
Encoding: 34 34 5
Width: 1233
Flags: W
Fore
895 1493 m 1,0,-1
 895 938 l 1,1,-1
 721 938 l 1,2,-1
 721 1493 l 1,3,-1
 895 1493 l 1,0,-1
512 1493 m 1,4,-1
 512 938 l 1,5,-1
 338 938 l 1,6,-1
 338 1493 l 1,7,-1
 512 1493 l 1,4,-1
EndSplineSet
EndChar
StartChar: numbersign
Encoding: 35 35 6
Width: 1849
VWidth: 2220
Flags: W
HStem: -430.68 46.62<402.93 432.9 911.31 941.28> 295.26 88.8<182.04 579.42 199.8 552.78 670.44 1061.16 199.8 643.8 1178.82 1647.24 1647.24 1649.46> 725.94 88.8<197.58 199.8 199.8 668.22 197.58 759.24 785.88 1176.6 1294.26 1647.24> 1496.28 44.4<905.76 935.73 1414.14 1444.11>
VStem: 124.32 1598.4<317.46 361.86 748.14 792.54>
Fore
1152.18 295.26 m 1,0,-1
 972.36 -377.4 l 2,1,2
 968.668 -390.94 968.668 -390.94 966.597 -396.758 c 128,-1,3
 964.527 -402.575 964.527 -402.575 959.08 -412.467 c 128,-1,4
 953.633 -422.359 953.633 -422.359 944.882 -426.519 c 128,-1,5
 936.132 -430.68 936.132 -430.68 923.52 -430.68 c 0,6,7
 905.205 -430.68 905.205 -430.68 892.162 -417.637 c 128,-1,8
 879.12 -404.595 879.12 -404.595 879.12 -386.28 c 0,9,10
 879.12 -380.096 879.12 -380.096 882.624 -365.081 c 128,-1,11
 886.127 -350.066 886.127 -350.066 888 -346.32 c 2,12,-1
 1061.16 295.26 l 1,13,-1
 643.8 295.26 l 1,14,-1
 463.98 -377.4 l 2,15,16
 460.288 -390.94 460.288 -390.94 458.217 -396.758 c 128,-1,17
 456.147 -402.575 456.147 -402.575 450.7 -412.467 c 128,-1,18
 445.253 -422.359 445.253 -422.359 436.502 -426.519 c 128,-1,19
 427.752 -430.68 427.752 -430.68 415.14 -430.68 c 0,20,21
 396.825 -430.68 396.825 -430.68 383.782 -417.637 c 128,-1,22
 370.74 -404.595 370.74 -404.595 370.74 -386.28 c 0,23,24
 370.74 -380.096 370.74 -380.096 374.244 -365.081 c 128,-1,25
 377.747 -350.066 377.747 -350.066 379.62 -346.32 c 2,26,-1
 552.78 295.26 l 1,27,-1
 197.58 295.26 l 2,28,29
 181.346 295.26 181.346 295.26 172.258 296.109 c 128,-1,30
 163.17 296.958 163.17 296.958 150.058 300.654 c 128,-1,31
 136.946 304.351 136.946 304.351 130.633 314.147 c 128,-1,32
 124.32 323.942 124.32 323.942 124.32 339.66 c 0,33,34
 124.32 352.411 124.32 352.411 129.409 361.278 c 128,-1,35
 134.497 370.145 134.497 370.145 140.864 374.518 c 128,-1,36
 147.231 378.891 147.231 378.891 159.281 381.169 c 128,-1,37
 171.331 383.447 171.331 383.447 178.728 383.753 c 128,-1,38
 186.125 384.06 186.125 384.06 199.8 384.06 c 2,39,-1
 579.42 384.06 l 1,40,-1
 668.22 725.94 l 1,41,-1
 199.8 725.94 l 2,42,43
 186.125 725.94 186.125 725.94 178.728 726.247 c 128,-1,44
 171.33 726.553 171.33 726.553 159.281 728.831 c 128,-1,45
 147.231 731.109 147.231 731.109 140.864 735.482 c 128,-1,46
 134.497 739.855 134.497 739.855 129.408 748.722 c 128,-1,47
 124.32 757.589 124.32 757.589 124.32 770.34 c 0,48,49
 124.32 786.058 124.32 786.058 130.633 795.853 c 128,-1,50
 136.946 805.649 136.946 805.649 150.058 809.346 c 128,-1,51
 163.17 813.042 163.17 813.042 172.258 813.891 c 128,-1,52
 181.346 814.74 181.346 814.74 197.58 814.74 c 2,53,-1
 694.86 814.74 l 1,54,-1
 874.68 1487.4 l 2,55,56
 878.372 1500.94 878.372 1500.94 880.443 1506.76 c 128,-1,57
 882.513 1512.58 882.513 1512.58 887.96 1522.47 c 128,-1,58
 893.407 1532.36 893.407 1532.36 902.157 1536.52 c 128,-1,59
 910.908 1540.68 910.908 1540.68 923.52 1540.68 c 0,60,61
 941.835 1540.68 941.835 1540.68 954.878 1527.64 c 128,-1,62
 967.92 1514.6 967.92 1514.6 967.92 1496.28 c 0,63,64
 967.92 1490.1 967.92 1490.1 964.416 1475.08 c 128,-1,65
 960.913 1460.07 960.913 1460.07 959.04 1456.32 c 2,66,-1
 785.88 814.74 l 1,67,-1
 1203.24 814.74 l 1,68,-1
 1383.06 1487.4 l 2,69,70
 1386.75 1500.94 1386.75 1500.94 1388.82 1506.76 c 128,-1,71
 1390.89 1512.58 1390.89 1512.58 1396.34 1522.47 c 128,-1,72
 1401.79 1532.36 1401.79 1532.36 1410.54 1536.52 c 128,-1,73
 1419.29 1540.68 1419.29 1540.68 1431.9 1540.68 c 0,74,75
 1450.22 1540.68 1450.22 1540.68 1463.26 1527.64 c 128,-1,76
 1476.3 1514.6 1476.3 1514.6 1476.3 1496.28 c 0,77,78
 1476.3 1490.1 1476.3 1490.1 1472.8 1475.08 c 128,-1,79
 1469.29 1460.07 1469.29 1460.07 1467.42 1456.32 c 2,80,-1
 1294.26 814.74 l 1,81,-1
 1649.46 814.74 l 2,82,83
 1665.69 814.74 1665.69 814.74 1674.78 813.891 c 128,-1,84
 1683.87 813.042 1683.87 813.042 1696.98 809.346 c 128,-1,85
 1710.09 805.649 1710.09 805.649 1716.41 795.853 c 128,-1,86
 1722.72 786.058 1722.72 786.058 1722.72 770.34 c 0,87,88
 1722.72 757.589 1722.72 757.589 1717.63 748.722 c 128,-1,89
 1712.54 739.855 1712.54 739.855 1706.18 735.482 c 128,-1,90
 1699.81 731.109 1699.81 731.109 1687.76 728.831 c 128,-1,91
 1675.71 726.553 1675.71 726.553 1668.31 726.247 c 128,-1,92
 1660.91 725.94 1660.91 725.94 1647.24 725.94 c 2,93,-1
 1267.62 725.94 l 1,94,-1
 1178.82 384.06 l 1,95,-1
 1647.24 384.06 l 2,96,97
 1660.92 384.06 1660.92 384.06 1668.31 383.753 c 128,-1,98
 1675.71 383.447 1675.71 383.447 1687.76 381.169 c 128,-1,99
 1699.81 378.891 1699.81 378.891 1706.18 374.518 c 128,-1,100
 1712.54 370.145 1712.54 370.145 1717.63 361.278 c 128,-1,101
 1722.72 352.411 1722.72 352.411 1722.72 339.66 c 0,102,103
 1722.72 323.942 1722.72 323.942 1716.41 314.147 c 128,-1,104
 1710.09 304.351 1710.09 304.351 1696.98 300.654 c 128,-1,105
 1683.87 296.958 1683.87 296.958 1674.78 296.109 c 128,-1,106
 1665.69 295.26 1665.69 295.26 1649.46 295.26 c 2,107,-1
 1152.18 295.26 l 1,0,-1
670.44 384.06 m 1,108,-1
 1087.8 384.06 l 1,109,-1
 1176.6 725.94 l 1,110,-1
 759.24 725.94 l 1,111,-1
 670.44 384.06 l 1,108,-1
EndSplineSet
EndChar
StartChar: dollar
Encoding: 36 36 7
Width: 1110
VWidth: 2220
Flags: W
HStem: -124.32 46.62<519.48 588.3 519.48 519.48> -22.2 68.82<588.3 588.3> 304.14 204.24<222 254.19 219.78 256.41> 1063.38 204.24<858.03 884.67> 1494.06 66.6 1620.6 44.4<519.48 588.3 588.3 588.3>
VStem: 124.32 113.22<1183.26 1239.87> 124.32 204.24<376.29 437.34 376.29 449.55> 519.48 68.82<-124.32 -24.42 -24.42 -24.42 46.62 690.42 912.42 1494.06 1565.1 1665> 779.22 204.24<1131.09 1196.58> 870.24 113.22<318.57 392.94>
Fore
588.3 690.42 m 1,0,-1
 588.3 46.6201 l 1,1,2
 673.002 57.342 673.002 57.342 738.42 105.867 c 128,-1,3
 803.839 154.392 803.839 154.392 837.04 222.693 c 128,-1,4
 870.24 290.995 870.24 290.995 870.24 366.3 c 0,5,6
 870.24 381.638 870.24 381.638 868.772 398.364 c 128,-1,7
 867.304 415.09 867.304 415.09 860.776 443.902 c 128,-1,8
 854.249 472.715 854.249 472.715 843.323 499.008 c 128,-1,9
 832.398 525.302 832.398 525.302 810.94 556.08 c 128,-1,10
 789.482 586.859 789.482 586.859 760.866 611.458 c 128,-1,11
 732.25 636.058 732.25 636.058 687.629 657.54 c 128,-1,12
 643.008 679.022 643.008 679.022 588.3 690.42 c 1,0,-1
519.48 708.18 m 1,13,14
 472.923 720.047 472.923 720.047 454.189 725.16 c 128,-1,15
 435.455 730.273 435.455 730.273 400.263 742.242 c 128,-1,16
 365.071 754.21 365.071 754.21 344.858 765.76 c 128,-1,17
 324.645 777.309 324.645 777.309 297.859 796.694 c 128,-1,18
 271.072 816.079 271.072 816.079 246.42 841.38 c 0,19,20
 228.525 858.281 228.525 858.281 209.999 883.296 c 128,-1,21
 191.473 908.31 191.473 908.31 170.87 945.776 c 128,-1,22
 150.268 983.242 150.268 983.242 137.294 1034.12 c 128,-1,23
 124.32 1084.99 124.32 1084.99 124.32 1138.86 c 0,24,25
 124.32 1214.92 124.32 1214.92 151.868 1287.31 c 128,-1,26
 179.417 1359.7 179.417 1359.7 229.035 1418.21 c 128,-1,27
 278.654 1476.72 278.654 1476.72 354.235 1515.76 c 128,-1,28
 429.816 1554.8 429.816 1554.8 519.48 1562.88 c 1,29,-1
 519.48 1665 l 1,30,-1
 588.3 1665 l 1,31,-1
 588.3 1565.1 l 1,32,33
 771.538 1555.28 771.538 1555.28 877.499 1447.15 c 128,-1,34
 983.46 1339.02 983.46 1339.02 983.46 1174.38 c 0,35,36
 983.46 1143.85 983.46 1143.85 973.12 1121.27 c 128,-1,37
 962.78 1098.7 962.78 1098.7 949.791 1088.1 c 128,-1,38
 936.801 1077.51 936.801 1077.51 919.805 1071.33 c 128,-1,39
 902.808 1065.16 902.808 1065.16 894.877 1064.27 c 128,-1,40
 886.945 1063.38 886.945 1063.38 881.34 1063.38 c 0,41,42
 842.189 1063.38 842.189 1063.38 810.705 1090.43 c 128,-1,43
 779.22 1117.48 779.22 1117.48 779.22 1165.5 c 0,44,45
 779.22 1211.35 779.22 1211.35 808.236 1239.48 c 128,-1,46
 837.252 1267.62 837.252 1267.62 881.34 1267.62 c 0,47,48
 899.104 1267.62 899.104 1267.62 916.86 1263.18 c 1,49,50
 890.44 1361.82 890.44 1361.82 807.093 1424.75 c 128,-1,51
 723.746 1487.69 723.746 1487.69 588.3 1494.06 c 1,52,-1
 588.3 894.66 l 1,53,54
 639.915 881.756 639.915 881.756 665.933 873.894 c 128,-1,55
 691.95 866.031 691.95 866.031 730.447 849.867 c 128,-1,56
 768.945 833.702 768.945 833.702 800.243 809.653 c 128,-1,57
 831.541 785.603 831.541 785.603 863.58 750.36 c 0,58,59
 876.11 737.83 876.11 737.83 891.58 716.537 c 128,-1,60
 907.049 695.245 907.049 695.245 930.173 654.937 c 128,-1,61
 953.296 614.629 953.296 614.629 968.378 555.726 c 128,-1,62
 983.46 496.824 983.46 496.824 983.46 432.9 c 0,63,64
 983.46 318.895 983.46 318.895 933.957 218.629 c 128,-1,65
 884.455 118.362 884.455 118.362 793.203 52.9518 c 128,-1,66
 701.951 -12.4585 701.951 -12.4585 588.3 -22.2002 c 1,67,-1
 588.3 -124.32 l 1,68,-1
 519.48 -124.32 l 1,69,-1
 519.48 -24.4199 l 1,70,71
 438.779 -19.2551 438.779 -19.2551 372.121 7.13136 c 128,-1,72
 305.463 33.5178 305.463 33.5178 260.207 73.9785 c 128,-1,73
 214.95 114.439 214.95 114.439 183.794 167.291 c 128,-1,74
 152.639 220.143 152.639 220.143 138.479 277.295 c 128,-1,75
 124.32 334.447 124.32 334.447 124.32 395.16 c 0,76,77
 124.32 425.782 124.32 425.782 133.982 448.505 c 128,-1,78
 143.643 471.228 143.643 471.228 156.111 482.208 c 128,-1,79
 168.578 493.188 168.578 493.188 185.059 499.654 c 128,-1,80
 201.541 506.119 201.541 506.119 210.385 507.25 c 128,-1,81
 219.23 508.38 219.23 508.38 226.44 508.38 c 0,82,83
 269.262 508.38 269.262 508.38 298.911 480.058 c 128,-1,84
 328.56 451.737 328.56 451.737 328.56 406.26 c 0,85,86
 328.56 361.305 328.56 361.305 299.977 332.722 c 128,-1,87
 271.395 304.14 271.395 304.14 226.44 304.14 c 0,88,89
 208.684 304.14 208.684 304.14 190.92 308.58 c 1,90,91
 214.025 198.387 214.025 198.387 297.011 126.466 c 128,-1,92
 379.996 54.5451 379.996 54.5451 519.48 46.6201 c 1,93,-1
 519.48 708.18 l 1,13,14
519.48 912.42 m 1,94,-1
 519.48 1494.06 l 1,95,96
 434.047 1485.52 434.047 1485.52 368.437 1441.3 c 128,-1,97
 302.826 1397.07 302.826 1397.07 270.183 1335.19 c 128,-1,98
 237.54 1273.3 237.54 1273.3 237.54 1205.46 c 0,99,100
 237.54 1191.67 237.54 1191.67 238.654 1178 c 128,-1,101
 239.768 1164.33 239.768 1164.33 245.843 1138.32 c 128,-1,102
 251.919 1112.32 251.919 1112.32 262.355 1089.38 c 128,-1,103
 272.792 1066.44 272.792 1066.44 294.049 1038.29 c 128,-1,104
 315.306 1010.14 315.306 1010.14 343.997 987.711 c 128,-1,105
 372.688 965.283 372.688 965.283 418.059 944.776 c 128,-1,106
 463.429 924.268 463.429 924.268 519.48 912.42 c 1,94,-1
EndSplineSet
EndChar
StartChar: percent
Encoding: 37 37 8
Width: 1849
VWidth: 2220
Flags: W
HStem: -124.32 48.84<1414.14 1494.06> 721.5 48.84<1413.03 1495.17> 770.34 48.84<430.68 510.6> 1374.18 48.84<987.9 1106.67> 1616.16 48.84<429.57 486.18>
VStem: 124.32 137.64<1084.47 1348.65> 683.76 55.5<1098.9 1232.1> 1107.78 137.64<189.81 453.99> 1667.22 55.5<204.24 440.67>
Fore
1520.7 1580.64 m 2,0,-1
 397.38 -91.0195 l 2,1,2
 392.166 -98.3191 392.166 -98.3191 388.074 -103.86 c 128,-1,3
 383.981 -109.402 383.981 -109.402 380.472 -113.291 c 128,-1,4
 376.963 -117.181 376.963 -117.181 373.084 -119.632 c 128,-1,5
 369.205 -122.083 369.205 -122.083 364.418 -123.201 c 128,-1,6
 359.63 -124.32 359.63 -124.32 352.98 -124.32 c 0,7,8
 335.948 -124.32 335.948 -124.32 322.264 -111.093 c 128,-1,9
 308.58 -97.8649 308.58 -97.8649 308.58 -79.9199 c 0,10,11
 308.58 -64.3799 308.58 -64.3799 328.56 -35.5195 c 2,12,-1
 1325.34 1449.66 l 1,13,-1
 1323.12 1451.88 l 1,14,15
 1312.86 1445.04 1312.86 1445.04 1293.39 1435.41 c 128,-1,16
 1273.93 1425.78 1273.93 1425.78 1235.46 1410.28 c 128,-1,17
 1197 1394.79 1197 1394.79 1141.6 1384.49 c 128,-1,18
 1086.2 1374.18 1086.2 1374.18 1027.86 1374.18 c 0,19,20
 856.442 1374.18 856.442 1374.18 692.64 1467.42 c 1,21,22
 739.26 1351.98 739.26 1351.98 739.26 1216.56 c 0,23,24
 739.26 1094.03 739.26 1094.03 701.205 991.492 c 128,-1,25
 663.149 888.955 663.149 888.955 596.755 829.648 c 128,-1,26
 530.361 770.34 530.361 770.34 450.66 770.34 c 0,27,28
 388.323 770.34 388.323 770.34 329.444 803.135 c 128,-1,29
 270.565 835.93 270.565 835.93 225.036 893.326 c 128,-1,30
 179.507 950.723 179.507 950.723 151.914 1035.89 c 128,-1,31
 124.32 1121.05 124.32 1121.05 124.32 1218.78 c 0,32,33
 124.32 1313.52 124.32 1313.52 151.657 1397.64 c 128,-1,34
 178.995 1481.75 178.995 1481.75 224.148 1539.74 c 128,-1,35
 269.301 1597.72 269.301 1597.72 328.564 1631.36 c 128,-1,36
 387.827 1665 387.827 1665 450.66 1665 c 0,37,38
 499.122 1665 499.122 1665 535.867 1646.43 c 128,-1,39
 572.612 1627.86 572.612 1627.86 610.5 1593.96 c 0,40,41
 791.301 1423.02 791.301 1423.02 1025.64 1423.02 c 0,42,43
 1292.37 1423.02 1292.37 1423.02 1447.44 1633.92 c 0,44,45
 1451.64 1638.64 1451.64 1638.64 1455.27 1643.12 c 128,-1,46
 1458.91 1647.59 1458.91 1647.59 1463.21 1651.57 c 128,-1,47
 1467.52 1655.55 1467.52 1655.55 1471.9 1658.54 c 128,-1,48
 1476.27 1661.52 1476.27 1661.52 1481.97 1663.26 c 128,-1,49
 1487.66 1665 1487.66 1665 1494.06 1665 c 0,50,51
 1512.38 1665 1512.38 1665 1525.42 1651.96 c 128,-1,52
 1538.46 1638.91 1538.46 1638.91 1538.46 1620.6 c 0,53,54
 1538.46 1607.28 1538.46 1607.28 1520.7 1580.64 c 2,0,-1
452.88 819.18 m 0,55,56
 543.583 819.18 543.583 819.18 613.671 932.4 c 128,-1,57
 683.76 1045.62 683.76 1045.62 683.76 1218.78 c 0,58,59
 683.76 1303.65 683.76 1303.65 664.195 1378.79 c 128,-1,60
 644.63 1453.92 644.63 1453.92 612.478 1505.31 c 128,-1,61
 580.326 1556.69 580.326 1556.69 538.557 1586.43 c 128,-1,62
 496.789 1616.16 496.789 1616.16 452.88 1616.16 c 0,63,64
 440.367 1616.16 440.367 1616.16 427.444 1613.71 c 128,-1,65
 414.521 1611.25 414.521 1611.25 394.823 1601.57 c 128,-1,66
 375.125 1591.88 375.125 1591.88 357.983 1575.84 c 128,-1,67
 340.842 1559.81 340.842 1559.81 322.605 1529.26 c 128,-1,68
 304.368 1498.7 304.368 1498.7 291.474 1458.14 c 128,-1,69
 278.58 1417.58 278.58 1417.58 270.27 1355.2 c 128,-1,70
 261.96 1292.83 261.96 1292.83 261.96 1216.56 c 0,71,72
 261.96 1140.78 261.96 1140.78 270.383 1078.74 c 128,-1,73
 278.806 1016.7 278.806 1016.7 291.866 976.391 c 128,-1,74
 304.926 936.082 304.926 936.082 323.301 905.671 c 128,-1,75
 341.675 875.26 341.675 875.26 358.919 859.32 c 128,-1,76
 376.163 843.38 376.163 843.38 395.79 833.725 c 128,-1,77
 415.418 824.07 415.418 824.07 428.147 821.625 c 128,-1,78
 440.876 819.18 440.876 819.18 452.88 819.18 c 0,55,56
1436.34 -75.4805 m 0,79,80
 1527.04 -75.4805 1527.04 -75.4805 1597.13 37.7398 c 128,-1,81
 1667.22 150.96 1667.22 150.96 1667.22 324.12 c 0,82,83
 1667.22 408.99 1667.22 408.99 1647.66 484.126 c 128,-1,84
 1628.09 559.262 1628.09 559.262 1595.94 610.646 c 128,-1,85
 1563.79 662.031 1563.79 662.031 1522.02 691.765 c 128,-1,86
 1480.25 721.5 1480.25 721.5 1436.34 721.5 c 0,87,88
 1423.83 721.5 1423.83 721.5 1410.9 719.047 c 128,-1,89
 1397.98 716.594 1397.98 716.594 1378.28 706.905 c 128,-1,90
 1358.58 697.217 1358.58 697.217 1341.44 681.184 c 128,-1,91
 1324.3 665.151 1324.3 665.151 1306.06 634.596 c 128,-1,92
 1287.83 604.042 1287.83 604.042 1274.93 563.479 c 128,-1,93
 1262.04 522.915 1262.04 522.915 1253.73 460.544 c 128,-1,94
 1245.42 398.172 1245.42 398.172 1245.42 321.9 c 0,95,96
 1245.42 246.122 1245.42 246.122 1253.84 184.081 c 128,-1,97
 1262.27 122.039 1262.27 122.039 1275.33 81.7307 c 128,-1,98
 1288.39 41.4221 1288.39 41.4221 1306.76 11.0108 c 128,-1,99
 1325.14 -19.4006 1325.14 -19.4006 1342.38 -35.3406 c 128,-1,100
 1359.62 -51.2807 1359.62 -51.2807 1379.25 -60.9356 c 128,-1,101
 1398.88 -70.5905 1398.88 -70.5905 1411.61 -73.0355 c 128,-1,102
 1424.34 -75.4805 1424.34 -75.4805 1436.34 -75.4805 c 0,79,80
1722.72 321.9 m 0,103,104
 1722.72 199.369 1722.72 199.369 1684.66 96.8321 c 128,-1,105
 1646.61 -5.70465 1646.61 -5.70465 1580.22 -65.0125 c 128,-1,106
 1513.82 -124.32 1513.82 -124.32 1434.12 -124.32 c 0,107,108
 1371.78 -124.32 1371.78 -124.32 1312.9 -91.5251 c 128,-1,109
 1254.03 -58.7299 1254.03 -58.7299 1208.5 -1.33373 c 128,-1,110
 1162.97 56.0625 1162.97 56.0625 1135.37 141.228 c 128,-1,111
 1107.78 226.394 1107.78 226.394 1107.78 324.12 c 0,112,113
 1107.78 418.857 1107.78 418.857 1135.12 502.976 c 128,-1,114
 1162.45 587.094 1162.45 587.094 1207.61 645.077 c 128,-1,115
 1252.76 703.06 1252.76 703.06 1312.02 736.7 c 128,-1,116
 1371.29 770.34 1371.29 770.34 1434.12 770.34 c 0,117,118
 1512.14 770.34 1512.14 770.34 1578.31 712.082 c 128,-1,119
 1644.49 653.825 1644.49 653.825 1683.61 550.358 c 128,-1,120
 1722.72 446.89 1722.72 446.89 1722.72 321.9 c 0,103,104
EndSplineSet
EndChar
StartChar: ampersand
Encoding: 38 38 9
Width: 1724
VWidth: 2220
Flags: W
HStem: -48.84 68.82<420.69 543.9 1236.54 1346.43> 888 68.82<1127.76 1127.76 1613.94 1613.94> 1540.68 48.84<629.37 734.82>
VStem: 93.24 184.26<295.26 344.1> 361.86 139.86<1248.75 1349.76> 801.42 55.5<1232.1 1307.58> 1538.46 62.16
Fore
1545.12 268.62 m 1,0,-1
 1600.62 268.62 l 1,1,2
 1597.35 128.136 1597.35 128.136 1507.09 39.6481 c 128,-1,3
 1416.84 -48.8398 1416.84 -48.8398 1287.6 -48.8398 c 0,4,5
 1090.91 -48.8398 1090.91 -48.8398 896.88 119.88 c 1,6,7
 707.709 -48.8398 707.709 -48.8398 495.06 -48.8398 c 0,8,9
 385.922 -48.8398 385.922 -48.8398 294.061 -6.36538 c 128,-1,10
 202.199 36.1091 202.199 36.1091 147.72 112.925 c 128,-1,11
 93.2402 189.741 93.2402 189.741 93.2402 284.16 c 0,12,13
 93.2402 319.439 93.2402 319.439 100.996 350.661 c 128,-1,14
 108.753 381.883 108.753 381.883 118.997 404.832 c 128,-1,15
 129.241 427.781 129.241 427.781 153.175 458.216 c 128,-1,16
 177.109 488.65 177.109 488.65 195.152 508.124 c 128,-1,17
 213.195 527.597 213.195 527.597 250.86 566.1 c 2,18,-1
 452.88 781.44 l 1,19,20
 361.86 1012.89 361.86 1012.89 361.86 1232.1 c 0,21,22
 361.86 1316.63 361.86 1316.63 389.458 1386.6 c 128,-1,23
 417.055 1456.58 417.055 1456.58 461.427 1499.67 c 128,-1,24
 505.799 1542.77 505.799 1542.77 558.316 1566.15 c 128,-1,25
 610.833 1589.52 610.833 1589.52 663.78 1589.52 c 0,26,27
 708.823 1589.52 708.823 1589.52 744.156 1569.23 c 128,-1,28
 779.489 1548.95 779.489 1548.95 800.094 1518.43 c 128,-1,29
 820.7 1487.91 820.7 1487.91 834.092 1447.76 c 128,-1,30
 847.484 1407.61 847.484 1407.61 852.202 1372.44 c 128,-1,31
 856.92 1337.28 856.92 1337.28 856.92 1303.14 c 0,32,33
 856.92 1267.79 856.92 1267.79 846.189 1229.54 c 128,-1,34
 835.458 1191.29 835.458 1191.29 812.336 1150.11 c 128,-1,35
 789.213 1108.93 789.213 1108.93 767.461 1075.17 c 128,-1,36
 745.71 1041.42 745.71 1041.42 708.571 996.356 c 128,-1,37
 671.433 951.296 671.433 951.296 648.774 925.24 c 128,-1,38
 626.115 899.183 626.115 899.183 586.08 854.7 c 1,39,40
 619.872 766.381 619.872 766.381 679.125 661.699 c 128,-1,41
 738.379 557.017 738.379 557.017 797.834 472.444 c 128,-1,42
 857.288 387.871 857.288 387.871 896.893 335.359 c 128,-1,43
 936.498 282.846 936.498 282.846 954.6 261.96 c 1,44,45
 1097.56 438.164 1097.56 438.164 1272.06 745.92 c 1,46,47
 1272.37 746.862 1272.37 746.862 1276.21 754.548 c 128,-1,48
 1280.04 762.234 1280.04 762.234 1282.71 771.332 c 128,-1,49
 1285.38 780.43 1285.38 780.43 1285.38 790.32 c 0,50,51
 1285.38 833.385 1285.38 833.385 1243.77 860.692 c 128,-1,52
 1202.16 888 1202.16 888 1127.76 888 c 1,53,-1
 1127.76 956.82 l 1,54,55
 1217.66 950.16 1217.66 950.16 1398.6 950.16 c 0,56,57
 1490.74 950.16 1490.74 950.16 1613.94 956.82 c 1,58,-1
 1613.94 888 l 1,59,60
 1581.2 887.632 1581.2 887.632 1553.16 884.047 c 128,-1,61
 1525.12 880.461 1525.12 880.461 1502.74 875.838 c 128,-1,62
 1480.36 871.215 1480.36 871.215 1459.36 860.44 c 128,-1,63
 1438.36 849.664 1438.36 849.664 1423.45 841.323 c 128,-1,64
 1408.53 832.982 1408.53 832.982 1391.43 815.126 c 128,-1,65
 1374.34 797.27 1374.34 797.27 1363.74 785.32 c 128,-1,66
 1353.14 773.371 1353.14 773.371 1336.81 748.544 c 128,-1,67
 1320.47 723.717 1320.47 723.717 1311.05 708.269 c 128,-1,68
 1301.63 692.82 1301.63 692.82 1283.16 661.56 c 0,69,70
 1218.89 551.175 1218.89 551.175 1181.82 489.882 c 128,-1,71
 1144.75 428.59 1144.75 428.59 1091.46 350.757 c 128,-1,72
 1038.17 272.924 1038.17 272.924 990.12 217.56 c 1,73,74
 1156.5 19.9805 1156.5 19.9805 1296.48 19.9805 c 0,75,76
 1335.97 19.9805 1335.97 19.9805 1376.9 34.707 c 128,-1,77
 1417.82 49.4335 1417.82 49.4335 1455.41 77.9935 c 128,-1,78
 1492.99 106.553 1492.99 106.553 1517.87 156.321 c 128,-1,79
 1542.75 206.089 1542.75 206.089 1545.12 268.62 c 1,0,-1
568.32 907.98 m 1,80,81
 801.42 1160.51 801.42 1160.51 801.42 1305.36 c 0,82,83
 801.42 1311.25 801.42 1311.25 801.128 1320.15 c 128,-1,84
 800.835 1329.05 800.835 1329.05 798.217 1353.6 c 128,-1,85
 795.599 1378.15 795.599 1378.15 791.031 1400.2 c 128,-1,86
 786.462 1422.25 786.462 1422.25 776.47 1449.1 c 128,-1,87
 766.478 1475.96 766.478 1475.96 752.974 1495.16 c 128,-1,88
 739.469 1514.36 739.469 1514.36 717.443 1527.52 c 128,-1,89
 695.416 1540.68 695.416 1540.68 668.22 1540.68 c 0,90,91
 637.604 1540.68 637.604 1540.68 609.178 1526.16 c 128,-1,92
 580.752 1511.64 580.752 1511.64 556.078 1482.36 c 128,-1,93
 531.405 1453.07 531.405 1453.07 516.562 1401.56 c 128,-1,94
 501.72 1350.05 501.72 1350.05 501.72 1283.16 c 0,95,96
 501.72 1105.31 501.72 1105.31 568.32 907.98 c 1,80,81
472.86 730.38 m 1,97,98
 429.755 688.871 429.755 688.871 405.632 663.514 c 128,-1,99
 381.509 638.156 381.509 638.156 353.182 601.016 c 128,-1,100
 324.856 563.877 324.856 563.877 310.864 530.917 c 128,-1,101
 296.872 497.957 296.872 497.957 287.186 452.969 c 128,-1,102
 277.5 407.98 277.5 407.98 277.5 355.2 c 0,103,104
 277.5 315.975 277.5 315.975 284.001 274.051 c 128,-1,105
 290.502 232.128 290.502 232.128 307.549 185.667 c 128,-1,106
 324.595 139.206 324.595 139.206 350.104 103.2 c 128,-1,107
 375.613 67.1938 375.613 67.1938 417.874 43.5871 c 128,-1,108
 460.135 19.9805 460.135 19.9805 512.82 19.9805 c 0,109,110
 541.868 19.9805 541.868 19.9805 573.989 24.875 c 128,-1,111
 606.109 29.7694 606.109 29.7694 652.285 43.0782 c 128,-1,112
 698.46 56.3869 698.46 56.3869 751.588 86.965 c 128,-1,113
 804.717 117.543 804.717 117.543 854.7 162.06 c 1,114,115
 767.623 249.137 767.623 249.137 650.46 421.8 c 0,116,117
 584.324 517.159 584.324 517.159 549.482 579.142 c 128,-1,118
 514.639 641.126 514.639 641.126 472.86 730.38 c 1,97,98
EndSplineSet
EndChar
StartChar: quotesingle
Encoding: 39 39 10
Width: 610
VWidth: 2630
Flags: W
HStem: 509.9 46.62<130.98 142.08> 1606.58 44.4<412.92 488.4>
VStem: 64.38 517.26
Fore
566.1 1473.38 m 2,0,-1
 168.72 540.98 l 2,1,2
 155.4 509.9 155.4 509.9 139.86 509.9 c 0,3,4
 121.434 509.9 121.434 509.9 92.9072 521.787 c 128,-1,5
 64.3799 533.673 64.3799 533.673 64.3799 549.86 c 0,6,7
 64.3799 554.294 64.3799 554.294 71.04 580.94 c 2,8,-1
 339.66 1548.86 l 2,9,10
 344.242 1563.75 344.242 1563.75 346.869 1571.28 c 128,-1,11
 349.496 1578.81 349.496 1578.81 359.25 1596.55 c 128,-1,12
 369.004 1614.29 369.004 1614.29 380.188 1624.07 c 128,-1,13
 391.37 1633.84 391.37 1633.84 411.749 1642.41 c 128,-1,14
 432.128 1650.98 432.128 1650.98 457.32 1650.98 c 0,15,16
 505.62 1650.98 505.62 1650.98 543.63 1617.5 c 128,-1,17
 581.64 1584.01 581.64 1584.01 581.64 1535.54 c 0,18,19
 581.64 1506.68 581.64 1506.68 566.1 1473.38 c 2,0,-1
EndSplineSet
EndChar
StartChar: parenleft
Encoding: 40 40 11
Width: 861
VWidth: 2220
Flags: W
HStem: -555 46.62<701.52 719.28> 1620.6 44.4<701.52 719.28>
VStem: 219.78 128.76<468.42 648.24>
Fore
734.82 -532.8 m 0,0,1
 734.82 -555 734.82 -555 712.62 -555 c 0,2,3
 702.684 -555 702.684 -555 666.995 -526.936 c 128,-1,4
 631.306 -498.872 631.306 -498.872 581.964 -449.968 c 128,-1,5
 532.621 -401.063 532.621 -401.063 472.606 -316.799 c 128,-1,6
 412.59 -232.535 412.59 -232.535 366.3 -137.64 c 0,7,8
 219.78 163.392 219.78 163.392 219.78 555 c 0,9,10
 219.78 930.442 219.78 930.442 359.64 1232.1 c 0,11,12
 396.592 1311.64 396.592 1311.64 444.208 1384.75 c 128,-1,13
 491.824 1457.85 491.824 1457.85 534.385 1506.92 c 128,-1,14
 576.947 1555.99 576.947 1555.99 616.196 1593.18 c 128,-1,15
 655.446 1630.37 655.446 1630.37 680.266 1647.68 c 128,-1,16
 705.086 1665 705.086 1665 712.62 1665 c 0,17,18
 734.82 1665 734.82 1665 734.82 1642.8 c 0,19,20
 734.82 1638.61 734.82 1638.61 733.8 1635.81 c 128,-1,21
 732.78 1633.02 732.78 1633.02 726.221 1625.37 c 128,-1,22
 719.662 1617.71 719.662 1617.71 705.96 1605.06 c 0,23,24
 348.54 1241.83 348.54 1241.83 348.54 555 c 0,25,26
 348.54 446.414 348.54 446.414 357.863 343.002 c 128,-1,27
 367.185 239.59 367.185 239.59 391.592 123.482 c 128,-1,28
 415.998 7.37431 415.998 7.37431 454.228 -95.5992 c 128,-1,29
 492.458 -198.573 492.458 -198.573 554.558 -300.733 c 128,-1,30
 616.657 -402.893 616.657 -402.893 697.08 -483.96 c 0,31,32
 714.997 -501.877 714.997 -501.877 723.574 -512.058 c 128,-1,33
 732.152 -522.238 732.152 -522.238 733.486 -525.422 c 128,-1,34
 734.82 -528.606 734.82 -528.606 734.82 -532.8 c 0,0,1
EndSplineSet
EndChar
StartChar: parenright
Encoding: 41 41 12
Width: 861
VWidth: 2220
Flags: W
HStem: -555 46.62<142.08 159.84> 1620.6 44.4<142.08 159.84>
VStem: 512.82 128.76<461.76 641.58>
Fore
641.58 555 m 0,0,1
 641.58 179.557 641.58 179.557 501.72 -122.1 c 0,2,3
 464.767 -201.642 464.767 -201.642 417.152 -274.746 c 128,-1,4
 369.536 -347.851 369.536 -347.851 326.975 -396.919 c 128,-1,5
 284.414 -445.987 284.414 -445.987 245.164 -483.178 c 128,-1,6
 205.914 -520.369 205.914 -520.369 181.094 -537.685 c 128,-1,7
 156.274 -555 156.274 -555 148.74 -555 c 0,8,9
 138.75 -555 138.75 -555 132.645 -548.895 c 128,-1,10
 126.54 -542.79 126.54 -542.79 126.54 -532.8 c 0,11,12
 126.54 -528.606 126.54 -528.606 127.56 -525.815 c 128,-1,13
 128.581 -523.023 128.581 -523.023 135.14 -515.365 c 128,-1,14
 141.699 -507.707 141.699 -507.707 155.4 -495.06 c 0,15,16
 512.82 -131.874 512.82 -131.874 512.82 555 c 0,17,18
 512.82 897.818 512.82 897.818 423.685 1161.02 c 128,-1,19
 334.55 1424.22 334.55 1424.22 168.72 1591.74 c 0,20,21
 148.695 1610.71 148.695 1610.71 139.109 1621.4 c 128,-1,22
 129.523 1632.08 129.523 1632.08 128.031 1635.34 c 128,-1,23
 126.54 1638.61 126.54 1638.61 126.54 1642.8 c 0,24,25
 126.54 1652.79 126.54 1652.79 132.645 1658.9 c 128,-1,26
 138.75 1665 138.75 1665 148.74 1665 c 128,-1,27
 158.677 1665 158.677 1665 194.366 1636.94 c 128,-1,28
 230.055 1608.87 230.055 1608.87 279.397 1559.97 c 128,-1,29
 328.739 1511.06 328.739 1511.06 388.754 1426.8 c 128,-1,30
 448.769 1342.54 448.769 1342.54 495.06 1247.64 c 0,31,32
 641.58 946.609 641.58 946.609 641.58 555 c 0,0,1
EndSplineSet
EndChar
StartChar: asterisk
Encoding: 42 42 13
Width: 1110
VWidth: 2220
Flags: W
HStem: 708.18 46.62<538.35 570.54> 1620.6 44.4<537.24 569.43>
VStem: 144.3 819.18<976.8 991.23 964.59 992.34 1381.95 1408.59>
Fore
603.84 1185.48 m 1,0,-1
 916.86 1038.96 l 2,1,2
 943.732 1026.31 943.732 1026.31 953.606 1012.49 c 128,-1,3
 963.48 998.667 963.48 998.667 963.48 979.02 c 0,4,5
 963.48 955.958 963.48 955.958 946.204 936.409 c 128,-1,6
 928.928 916.86 928.928 916.86 903.54 916.86 c 0,7,8
 895.351 916.86 895.351 916.86 888.905 918.833 c 128,-1,9
 882.458 920.807 882.458 920.807 878.216 923.766 c 128,-1,10
 873.973 926.726 873.973 926.726 868.02 930.18 c 0,11,12
 862.768 933.331 862.768 933.331 750.071 1016.34 c 128,-1,13
 637.374 1099.35 637.374 1099.35 579.42 1141.08 c 1,14,15
 612.72 774.819 612.72 774.819 612.72 763.68 c 0,16,17
 612.72 741.319 612.72 741.319 595.702 724.75 c 128,-1,18
 578.685 708.18 578.685 708.18 552.78 708.18 c 0,19,20
 530.104 708.18 530.104 708.18 512.582 723.905 c 128,-1,21
 495.06 739.63 495.06 739.63 495.06 763.68 c 2,22,-1
 528.36 1141.08 l 1,23,-1
 217.56 916.86 l 1,24,25
 196.991 916.86 196.991 916.86 181.948 923.165 c 128,-1,26
 166.906 929.47 166.906 929.47 159.984 937.195 c 128,-1,27
 153.063 944.921 153.063 944.921 149.128 955.488 c 128,-1,28
 145.193 966.055 145.193 966.055 144.746 970.584 c 128,-1,29
 144.3 975.112 144.3 975.112 144.3 979.02 c 0,30,31
 144.3 1000.01 144.3 1000.01 154.625 1013.39 c 128,-1,32
 164.949 1026.78 164.949 1026.78 195.36 1041.18 c 2,33,-1
 503.94 1187.7 l 1,34,-1
 190.92 1334.22 l 2,35,36
 164.048 1346.87 164.048 1346.87 154.174 1360.69 c 128,-1,37
 144.3 1374.51 144.3 1374.51 144.3 1394.16 c 0,38,39
 144.3 1417.22 144.3 1417.22 161.576 1436.77 c 128,-1,40
 178.852 1456.32 178.852 1456.32 204.24 1456.32 c 0,41,42
 215.34 1456.32 215.34 1456.32 223.332 1452.66 c 128,-1,43
 231.324 1448.99 231.324 1448.99 253.08 1431.9 c 2,44,-1
 528.36 1232.1 l 1,45,46
 495.06 1598.38 495.06 1598.38 495.06 1609.5 c 0,47,48
 495.06 1631.86 495.06 1631.86 512.077 1648.43 c 128,-1,49
 529.095 1665 529.095 1665 555 1665 c 0,50,51
 577.676 1665 577.676 1665 595.198 1649.27 c 128,-1,52
 612.72 1633.55 612.72 1633.55 612.72 1609.5 c 2,53,-1
 579.42 1232.1 l 1,54,-1
 825.84 1414.14 l 2,55,56
 866.506 1443.86 866.506 1443.86 878.64 1450.09 c 128,-1,57
 890.775 1456.32 890.775 1456.32 903.54 1456.32 c 0,58,59
 928.928 1456.32 928.928 1456.32 946.204 1436.77 c 128,-1,60
 963.48 1417.22 963.48 1417.22 963.48 1394.16 c 0,61,62
 963.48 1373.17 963.48 1373.17 953.156 1359.79 c 128,-1,63
 942.831 1346.41 942.831 1346.41 912.42 1332 c 2,64,-1
 603.84 1185.48 l 1,0,-1
EndSplineSet
EndChar
StartChar: plus
Encoding: 43 43 14
Width: 1724
VWidth: 2220
Flags: W
HStem: -184.26 46.62<841.38 885.78> 510.6 88.8<197.58 819.18 907.98 1527.36> 1249.86 44.4<841.38 885.78>
VStem: 819.18 88.8<-111 510.6 599.4 1221>
Fore
907.98 510.6 m 1,0,-1
 907.98 -111 l 2,1,2
 907.98 -127.234 907.98 -127.234 907.131 -136.322 c 128,-1,3
 906.282 -145.41 906.282 -145.41 902.586 -158.522 c 128,-1,4
 898.889 -171.634 898.889 -171.634 889.094 -177.947 c 128,-1,5
 879.298 -184.26 879.298 -184.26 863.58 -184.26 c 128,-1,6
 847.862 -184.26 847.862 -184.26 838.067 -177.947 c 128,-1,7
 828.271 -171.634 828.271 -171.634 824.574 -158.522 c 128,-1,8
 820.878 -145.41 820.878 -145.41 820.029 -136.322 c 128,-1,9
 819.18 -127.234 819.18 -127.234 819.18 -111 c 2,10,-1
 819.18 510.6 l 1,11,-1
 197.58 510.6 l 2,12,13
 181.346 510.6 181.346 510.6 172.258 511.449 c 128,-1,14
 163.17 512.298 163.17 512.298 150.058 515.994 c 128,-1,15
 136.946 519.691 136.946 519.691 130.633 529.486 c 128,-1,16
 124.32 539.282 124.32 539.282 124.32 555 c 128,-1,17
 124.32 570.718 124.32 570.718 130.633 580.514 c 128,-1,18
 136.946 590.309 136.946 590.309 150.058 594.006 c 128,-1,19
 163.17 597.702 163.17 597.702 172.258 598.551 c 128,-1,20
 181.346 599.4 181.346 599.4 197.58 599.4 c 2,21,-1
 819.18 599.4 l 1,22,-1
 819.18 1221 l 2,23,24
 819.18 1237.23 819.18 1237.23 820.029 1246.32 c 128,-1,25
 820.878 1255.41 820.878 1255.41 824.574 1268.52 c 128,-1,26
 828.271 1281.63 828.271 1281.63 838.067 1287.95 c 128,-1,27
 847.862 1294.26 847.862 1294.26 863.58 1294.26 c 128,-1,28
 879.298 1294.26 879.298 1294.26 889.094 1287.95 c 128,-1,29
 898.889 1281.63 898.889 1281.63 902.586 1268.52 c 128,-1,30
 906.282 1255.41 906.282 1255.41 907.131 1246.32 c 128,-1,31
 907.98 1237.23 907.98 1237.23 907.98 1221 c 2,32,-1
 907.98 599.4 l 1,33,-1
 1527.36 599.4 l 2,34,35
 1543.59 599.4 1543.59 599.4 1552.68 598.551 c 128,-1,36
 1561.77 597.702 1561.77 597.702 1574.88 594.006 c 128,-1,37
 1587.99 590.309 1587.99 590.309 1594.31 580.514 c 128,-1,38
 1600.62 570.718 1600.62 570.718 1600.62 555 c 128,-1,39
 1600.62 539.282 1600.62 539.282 1594.31 529.486 c 128,-1,40
 1587.99 519.691 1587.99 519.691 1574.88 515.994 c 128,-1,41
 1561.77 512.298 1561.77 512.298 1552.68 511.449 c 128,-1,42
 1543.59 510.6 1543.59 510.6 1527.36 510.6 c 2,43,-1
 907.98 510.6 l 1,0,-1
EndSplineSet
EndChar
StartChar: comma
Encoding: 44 44 15
Width: 614
VWidth: 2220
Flags: W
HStem: -428.46 46.62<243.09 261.96> 0 235.32<269.73 326.34>
VStem: 401.82 48.84<-68.82 17.76>
Fore
397.38 35.5195 m 1,0,-1
 392.94 31.0801 l 2,1,2
 354.089 0 354.089 0 308.58 0 c 0,3,4
 252.317 0 252.317 0 221.618 35.0841 c 128,-1,5
 190.92 70.1682 190.92 70.1682 190.92 117.66 c 0,6,7
 190.92 164.679 190.92 164.679 222.267 200 c 128,-1,8
 253.614 235.32 253.614 235.32 308.58 235.32 c 0,9,10
 374.785 235.32 374.785 235.32 412.722 172.378 c 128,-1,11
 450.66 109.436 450.66 109.436 450.66 2.21973 c 0,12,13
 450.66 -69.7755 450.66 -69.7755 432.26 -139.984 c 128,-1,14
 413.86 -210.193 413.86 -210.193 387.169 -260.291 c 128,-1,15
 360.477 -310.39 360.477 -310.39 331.312 -349.765 c 128,-1,16
 302.147 -389.14 302.147 -389.14 279.827 -408.8 c 128,-1,17
 257.507 -428.46 257.507 -428.46 248.64 -428.46 c 128,-1,18
 239.76 -428.46 239.76 -428.46 233.1 -421.8 c 128,-1,19
 226.44 -415.14 226.44 -415.14 226.44 -404.04 c 0,20,21
 226.44 -397.658 226.44 -397.658 228.938 -393.911 c 128,-1,22
 231.435 -390.165 231.435 -390.165 241.98 -379.62 c 0,23,24
 317.105 -299.373 317.105 -299.373 359.463 -200.68 c 128,-1,25
 401.82 -101.987 401.82 -101.987 401.82 2.21973 c 0,26,27
 401.82 35.5195 401.82 35.5195 397.38 35.5195 c 1,0,-1
EndSplineSet
EndChar
StartChar: hyphen
Encoding: 45 45 16
Width: 1724
VWidth: 2220
Flags: W
HStem: 510.6 88.8<241.98 1467.42 257.52 1467.42>
VStem: 184.26 1356.42<532.8 577.2>
Fore
1467.42 510.6 m 2,0,-1
 257.52 510.6 l 2,1,2
 241.286 510.6 241.286 510.6 232.198 511.449 c 0,3,4
 223.11 512.298 223.11 512.298 209.998 515.994 c 0,5,6
 196.886 519.691 196.886 519.691 190.573 529.486 c 0,7,8
 184.26 539.282 184.26 539.282 184.26 555 c 0,3,4
 184.26 570.718 184.26 570.718 190.573 580.514 c 0,5,6
 196.886 590.309 196.886 590.309 209.998 594.006 c 0,7,8
 223.11 597.702 223.11 597.702 232.198 598.551 c 0,9,10
 241.286 599.4 241.286 599.4 257.52 599.4 c 2,5,-1
 1467.42 599.4 l 2,6,7
 1483.65 599.4 1483.65 599.4 1492.74 598.551 c 0,8,9
 1501.83 597.702 1501.83 597.702 1514.94 594.006 c 0,10,11
 1528.05 590.309 1528.05 590.309 1534.37 580.514 c 0,12,13
 1540.68 570.718 1540.68 570.718 1540.68 555 c 0,8,9
 1540.68 539.282 1540.68 539.282 1534.37 529.486 c 0,10,11
 1528.05 519.691 1528.05 519.691 1514.94 515.994 c 0,12,13
 1501.83 512.298 1501.83 512.298 1492.74 511.449 c 0,14,15
 1483.65 510.6 1483.65 510.6 1467.42 510.6 c 2,0,-1
EndSplineSet
EndChar
StartChar: period
Encoding: 46 46 17
Width: 614
VWidth: 2220
Flags: W
HStem: 0 235.32<276.39 340.77>
VStem: 190.92 235.32<85.47 149.85>
Fore
426.24 117.66 m 128,-1,1
 426.24 69.3752 426.24 69.3752 391.553 34.6876 c 128,-1,2
 356.865 0 356.865 0 308.58 0 c 128,-1,3
 260.295 0 260.295 0 225.608 34.6876 c 128,-1,4
 190.92 69.3752 190.92 69.3752 190.92 117.66 c 128,-1,5
 190.92 165.945 190.92 165.945 225.608 200.633 c 128,-1,6
 260.295 235.32 260.295 235.32 308.58 235.32 c 128,-1,7
 356.865 235.32 356.865 235.32 391.553 200.633 c 128,-1,0
 426.24 165.945 426.24 165.945 426.24 117.66 c 128,-1,1
EndSplineSet
EndChar
StartChar: slash
Encoding: 47 47 18
Width: 1110
VWidth: 2220
Flags: W
HStem: -555 46.62<156.51 184.26> 1620.6 44.4
VStem: 124.32 859.14
Fore
972.36 1580.64 m 2,0,-1
 215.34 -510.6 l 2,1,2
 211.229 -524.304 211.229 -524.304 207.159 -532.526 c 128,-1,3
 203.089 -540.748 203.089 -540.748 193.181 -547.874 c 128,-1,4
 183.273 -555 183.273 -555 168.72 -555 c 0,5,6
 150.405 -555 150.405 -555 137.363 -541.957 c 128,-1,7
 124.32 -528.915 124.32 -528.915 124.32 -510.6 c 0,8,9
 124.32 -499.5 124.32 -499.5 135.42 -470.64 c 2,10,-1
 892.44 1620.6 l 2,11,12
 896.551 1634.3 896.551 1634.3 900.621 1642.53 c 128,-1,13
 904.691 1650.75 904.691 1650.75 914.599 1657.87 c 128,-1,14
 924.507 1665 924.507 1665 939.06 1665 c 0,15,16
 957.375 1665 957.375 1665 970.417 1651.96 c 128,-1,17
 983.46 1638.91 983.46 1638.91 983.46 1620.6 c 0,18,19
 983.46 1609.5 983.46 1609.5 972.36 1580.64 c 2,0,-1
EndSplineSet
EndChar
StartChar: zero
Encoding: 48 48 19
Width: 1233
Flags: W
Fore
492 745 m 256,0,1
 492 798 492 798 528 834 c 128,-1,2
 564 870 564 870 616 870 c 0,3,4
 669 870 669 870 705 834 c 128,-1,5
 741 798 741 798 741 745 c 0,6,7
 741 693 741 693 705 657 c 128,-1,8
 669 621 669 621 616 621 c 0,9,10
 564 621 564 621 528 656.5 c 128,-1,11
 492 692 492 692 492 745 c 256,0,1
616 1270 m 0,12,13
 514 1270 514 1270 467 1145 c 128,-1,14
 420 1020 420 1020 420 745 c 0,15,16
 420 471 420 471 467 346 c 128,-1,17
 514 221 514 221 616 221 c 0,18,19
 719 221 719 221 766 346 c 128,-1,20
 813 471 813 471 813 745 c 0,21,22
 813 1020 813 1020 766 1145 c 128,-1,23
 719 1270 719 1270 616 1270 c 0,12,13
123 745 m 0,24,25
 123 1133 123 1133 246 1326.5 c 128,-1,26
 369 1520 369 1520 616 1520 c 0,27,28
 864 1520 864 1520 987 1327 c 128,-1,29
 1110 1134 1110 1134 1110 745 c 0,30,31
 1110 357 1110 357 987 164 c 128,-1,32
 864 -29 864 -29 616 -29 c 0,33,34
 369 -29 369 -29 246 164.5 c 128,-1,35
 123 358 123 358 123 745 c 0,24,25
EndSplineSet
EndChar
StartChar: one
Encoding: 49 49 20
Width: 1233
Flags: W
Fore
188 260 m 1,0,-1
 518 260 l 1,1,-1
 518 1229 l 1,2,-1
 211 1153 l 1,3,-1
 211 1419 l 1,4,-1
 520 1493 l 1,5,-1
 805 1493 l 1,6,-1
 805 260 l 1,7,-1
 1135 260 l 1,8,-1
 1135 0 l 1,9,-1
 188 0 l 1,10,-1
 188 260 l 1,0,-1
EndSplineSet
EndChar
StartChar: two
Encoding: 50 50 21
Width: 1233
Flags: W
Fore
434 260 m 1,0,-1
 1063 260 l 1,1,-1
 1063 0 l 1,2,-1
 115 0 l 1,3,-1
 115 252 l 1,4,-1
 275 422 l 2,5,6
 560 725 560 725 621 795 c 0,7,8
 696 881 696 881 729 947.5 c 128,-1,9
 762 1014 762 1014 762 1079 c 0,10,11
 762 1179 762 1179 701.5 1233.5 c 128,-1,12
 641 1288 641 1288 530 1288 c 0,13,14
 451 1288 451 1288 352.5 1256.5 c 128,-1,15
 254 1225 254 1225 147 1165 c 1,16,-1
 147 1440 l 1,17,18
 254 1479 254 1479 356.5 1499.5 c 128,-1,19
 459 1520 459 1520 553 1520 c 0,20,21
 790 1520 790 1520 925.5 1409.5 c 128,-1,22
 1061 1299 1061 1299 1061 1108 c 0,23,24
 1061 1020 1061 1020 1031.5 943 c 128,-1,25
 1002 866 1002 866 930 772 c 0,26,27
 877 704 877 704 639 466 c 0,28,29
 510 337 510 337 434 260 c 1,0,-1
EndSplineSet
EndChar
StartChar: three
Encoding: 51 51 22
Width: 1233
Flags: W
Fore
549 668 m 2,0,-1
 391 668 l 1,1,-1
 391 928 l 1,2,-1
 549 928 l 2,3,4
 659 928 659 928 719.5 971.5 c 128,-1,5
 780 1015 780 1015 780 1094 c 0,6,7
 780 1177 780 1177 719.5 1223.5 c 128,-1,8
 659 1270 659 1270 549 1270 c 0,9,10
 465 1270 465 1270 369 1249 c 128,-1,11
 273 1228 273 1228 170 1188 c 1,12,-1
 170 1456 l 1,13,14
 273 1487 273 1487 373 1503.5 c 128,-1,15
 473 1520 473 1520 565 1520 c 0,16,17
 801 1520 801 1520 933 1417 c 128,-1,18
 1065 1314 1065 1314 1065 1133 c 0,19,20
 1065 1000 1065 1000 989 915.5 c 128,-1,21
 913 831 913 831 772 805 c 1,22,23
 932 777 932 777 1016 677.5 c 128,-1,24
 1100 578 1100 578 1100 416 c 0,25,26
 1100 199 1100 199 961 85 c 128,-1,27
 822 -29 822 -29 557 -29 c 0,28,29
 444 -29 444 -29 334.5 -10 c 128,-1,30
 225 9 225 9 125 45 c 1,31,-1
 125 319 l 1,32,33
 219 272 219 272 328 247.5 c 128,-1,34
 437 223 437 223 557 223 c 256,35,36
 677 223 677 223 747 278.5 c 128,-1,37
 817 334 817 334 817 428 c 0,38,39
 817 543 817 543 747 605.5 c 128,-1,40
 677 668 677 668 549 668 c 2,0,-1
EndSplineSet
EndChar
StartChar: four
Encoding: 52 52 23
Width: 1233
Flags: W
Fore
694 1165 m 1,0,-1
 317 575 l 1,1,-1
 694 575 l 1,2,-1
 694 1165 l 1,0,-1
668 1493 m 1,3,-1
 977 1493 l 1,4,-1
 977 575 l 1,5,-1
 1141 575 l 1,6,-1
 1141 322 l 1,7,-1
 977 322 l 1,8,-1
 977 0 l 1,9,-1
 694 0 l 1,10,-1
 694 322 l 1,11,-1
 102 322 l 1,12,-1
 102 608 l 1,13,-1
 668 1493 l 1,3,-1
EndSplineSet
EndChar
StartChar: five
Encoding: 53 53 24
Width: 1233
Flags: W
Fore
193 1493 m 1,0,-1
 1004 1493 l 1,1,-1
 1004 1233 l 1,2,-1
 432 1233 l 1,3,-1
 432 956 l 1,4,5
 468 970 468 970 509 976.5 c 128,-1,6
 550 983 550 983 596 983 c 0,7,8
 818 983 818 983 956 843 c 128,-1,9
 1094 703 1094 703 1094 479 c 0,10,11
 1094 244 1094 244 944.5 107.5 c 128,-1,12
 795 -29 795 -29 537 -29 c 0,13,14
 441 -29 441 -29 343 -13 c 128,-1,15
 245 3 245 3 143 35 c 1,16,-1
 143 301 l 1,17,18
 226 260 226 260 313.5 239.5 c 128,-1,19
 401 219 401 219 489 219 c 0,20,21
 645 219 645 219 726 285.5 c 128,-1,22
 807 352 807 352 807 479 c 0,23,24
 807 596 807 596 726.5 666.5 c 128,-1,25
 646 737 646 737 512 737 c 0,26,27
 433 737 433 737 353.5 717.5 c 128,-1,28
 274 698 274 698 193 659 c 1,29,-1
 193 1493 l 1,0,-1
EndSplineSet
EndChar
StartChar: six
Encoding: 54 54 25
Width: 1233
Flags: W
Fore
643 748 m 256,0,1
 547 748 547 748 496.5 678.5 c 128,-1,2
 446 609 446 609 446 477 c 0,3,4
 446 346 446 346 496.5 276.5 c 128,-1,5
 547 207 547 207 643 207 c 256,6,7
 739 207 739 207 790.5 276.5 c 128,-1,8
 842 346 842 346 842 477 c 256,9,10
 842 608 842 608 790.5 678 c 128,-1,11
 739 748 739 748 643 748 c 256,0,1
1030 1458 m 1,12,-1
 1030 1190 l 1,13,14
 951 1235 951 1235 878.5 1257.5 c 128,-1,15
 806 1280 806 1280 739 1280 c 0,16,17
 579 1280 579 1280 495.5 1172.5 c 128,-1,18
 412 1065 412 1065 408 855 c 1,19,20
 455 920 455 920 528 952.5 c 128,-1,21
 601 985 601 985 700 985 c 0,22,23
 902 985 902 985 1012 857.5 c 128,-1,24
 1122 730 1122 730 1122 496 c 0,25,26
 1122 245 1122 245 998.5 107 c 128,-1,27
 875 -31 875 -31 651 -31 c 0,28,29
 378 -31 378 -31 254.5 152 c 128,-1,30
 131 335 131 335 131 743 c 0,31,32
 131 1131 131 1131 282 1324.5 c 128,-1,33
 433 1518 433 1518 735 1518 c 0,34,35
 805 1518 805 1518 879.5 1503 c 128,-1,36
 954 1488 954 1488 1030 1458 c 1,12,-1
EndSplineSet
EndChar
StartChar: seven
Encoding: 55 55 26
Width: 1233
Flags: W
Fore
135 1493 m 1,0,-1
 1079 1493 l 1,1,-1
 1079 1284 l 1,2,-1
 573 0 l 1,3,-1
 272 0 l 1,4,-1
 758 1233 l 1,5,-1
 135 1233 l 1,6,-1
 135 1493 l 1,0,-1
EndSplineSet
EndChar
StartChar: eight
Encoding: 56 56 27
Width: 1233
Flags: W
Fore
616 666 m 0,0,1
 517 666 517 666 456 603.5 c 128,-1,2
 395 541 395 541 395 438 c 256,3,4
 395 335 395 335 456 272 c 128,-1,5
 517 209 517 209 616 209 c 256,6,7
 715 209 715 209 776.5 273 c 128,-1,8
 838 337 838 337 838 438 c 0,9,10
 838 541 838 541 777 603.5 c 128,-1,11
 716 666 716 666 616 666 c 0,0,1
397 791 m 1,12,13
 284 830 284 830 225 913.5 c 128,-1,14
 166 997 166 997 166 1118 c 0,15,16
 166 1304 166 1304 287 1412 c 128,-1,17
 408 1520 408 1520 616 1520 c 0,18,19
 825 1520 825 1520 946 1412 c 128,-1,20
 1067 1304 1067 1304 1067 1118 c 0,21,22
 1067 998 1067 998 1009 914.5 c 128,-1,23
 951 831 951 831 840 791 c 1,24,25
 964 753 964 753 1034 655 c 128,-1,26
 1104 557 1104 557 1104 420 c 0,27,28
 1104 205 1104 205 977 88 c 128,-1,29
 850 -29 850 -29 616 -29 c 0,30,31
 383 -29 383 -29 256 88 c 128,-1,32
 129 205 129 205 129 420 c 0,33,34
 129 558 129 558 200 656 c 128,-1,35
 271 754 271 754 397 791 c 1,12,13
428 1094 m 0,36,37
 428 1006 428 1006 478.5 954.5 c 128,-1,38
 529 903 529 903 616 903 c 0,39,40
 704 903 704 903 754.5 954.5 c 128,-1,41
 805 1006 805 1006 805 1094 c 0,42,43
 805 1181 805 1181 754.5 1231.5 c 128,-1,44
 704 1282 704 1282 616 1282 c 0,45,46
 530 1282 530 1282 479 1231 c 128,-1,47
 428 1180 428 1180 428 1094 c 0,36,37
EndSplineSet
EndChar
StartChar: nine
Encoding: 57 57 28
Width: 1233
Flags: W
Fore
203 20 m 1,0,-1
 203 289 l 1,1,2
 282 243 282 243 354.5 221 c 128,-1,3
 427 199 427 199 494 199 c 0,4,5
 653 199 653 199 736.5 305.5 c 128,-1,6
 820 412 820 412 825 624 c 1,7,8
 778 559 778 559 705 526.5 c 128,-1,9
 632 494 632 494 532 494 c 0,10,11
 331 494 331 494 221 621.5 c 128,-1,12
 111 749 111 749 111 983 c 0,13,14
 111 1233 111 1233 234 1370 c 128,-1,15
 357 1507 357 1507 582 1507 c 0,16,17
 855 1507 855 1507 978.5 1324.5 c 128,-1,18
 1102 1142 1102 1142 1102 735 c 0,19,20
 1102 348 1102 348 951 154.5 c 128,-1,21
 800 -39 800 -39 498 -39 c 0,22,23
 428 -39 428 -39 353.5 -24 c 128,-1,24
 279 -9 279 -9 203 20 c 1,0,-1
590 741 m 0,25,26
 685 741 685 741 735.5 810.5 c 128,-1,27
 786 880 786 880 786 1012 c 0,28,29
 786 1143 786 1143 735.5 1212.5 c 128,-1,30
 685 1282 685 1282 590 1282 c 0,31,32
 494 1282 494 1282 442.5 1212.5 c 128,-1,33
 391 1143 391 1143 391 1012 c 256,34,35
 391 881 391 881 442.5 811 c 128,-1,36
 494 741 494 741 590 741 c 0,25,26
EndSplineSet
EndChar
StartChar: colon
Encoding: 58 58 29
Width: 614
VWidth: 2220
Flags: W
HStem: 0 235.32<276.39 340.77> 721.5 235.32<276.39 340.77>
VStem: 190.92 235.32<85.47 149.85 806.97 871.35>
Fore
426.24 839.16 m 128,-1,1
 426.24 790.875 426.24 790.875 391.553 756.188 c 128,-1,2
 356.865 721.5 356.865 721.5 308.58 721.5 c 128,-1,3
 260.295 721.5 260.295 721.5 225.608 756.188 c 128,-1,4
 190.92 790.875 190.92 790.875 190.92 839.16 c 128,-1,5
 190.92 887.445 190.92 887.445 225.608 922.133 c 128,-1,6
 260.295 956.82 260.295 956.82 308.58 956.82 c 128,-1,7
 356.865 956.82 356.865 956.82 391.553 922.133 c 128,-1,0
 426.24 887.445 426.24 887.445 426.24 839.16 c 128,-1,1
426.24 117.66 m 128,-1,9
 426.24 69.3752 426.24 69.3752 391.553 34.6876 c 128,-1,10
 356.865 0 356.865 0 308.58 0 c 128,-1,11
 260.295 0 260.295 0 225.608 34.6876 c 128,-1,12
 190.92 69.3752 190.92 69.3752 190.92 117.66 c 128,-1,13
 190.92 165.945 190.92 165.945 225.608 200.633 c 128,-1,14
 260.295 235.32 260.295 235.32 308.58 235.32 c 128,-1,15
 356.865 235.32 356.865 235.32 391.553 200.633 c 128,-1,8
 426.24 165.945 426.24 165.945 426.24 117.66 c 128,-1,9
EndSplineSet
EndChar
StartChar: semicolon
Encoding: 59 59 30
Width: 614
VWidth: 2220
Flags: W
HStem: -428.46 46.62<243.09 260.85> 0 235.32<269.73 314.13> 721.5 235.32<276.39 340.77>
VStem: 190.92 235.32<806.97 871.35>
Fore
426.24 839.16 m 128,-1,1
 426.24 790.875 426.24 790.875 391.553 756.188 c 128,-1,2
 356.865 721.5 356.865 721.5 308.58 721.5 c 128,-1,3
 260.295 721.5 260.295 721.5 225.608 756.188 c 128,-1,4
 190.92 790.875 190.92 790.875 190.92 839.16 c 128,-1,5
 190.92 887.445 190.92 887.445 225.608 922.133 c 128,-1,6
 260.295 956.82 260.295 956.82 308.58 956.82 c 128,-1,7
 356.865 956.82 356.865 956.82 391.553 922.133 c 128,-1,0
 426.24 887.445 426.24 887.445 426.24 839.16 c 128,-1,1
384.06 24.4199 m 1,8,9
 365.002 7.74469 365.002 7.74469 326.34 2.21973 c 1,10,11
 324.12 0 324.12 0 308.58 0 c 0,12,13
 252.317 0 252.317 0 221.618 35.0841 c 128,-1,14
 190.92 70.1682 190.92 70.1682 190.92 117.66 c 0,15,16
 190.92 164.679 190.92 164.679 222.267 200 c 128,-1,17
 253.614 235.32 253.614 235.32 308.58 235.32 c 0,18,19
 432.9 235.32 432.9 235.32 432.9 6.66016 c 0,20,21
 432.9 -65.9647 432.9 -65.9647 416.13 -136.852 c 128,-1,22
 399.36 -207.74 399.36 -207.74 375.025 -258.379 c 128,-1,23
 350.69 -309.017 350.69 -309.017 324.097 -348.836 c 128,-1,24
 297.505 -388.654 297.505 -388.654 277.131 -408.557 c 128,-1,25
 256.758 -428.46 256.758 -428.46 248.64 -428.46 c 0,26,27
 239.76 -428.46 239.76 -428.46 233.1 -421.8 c 128,-1,28
 226.44 -415.14 226.44 -415.14 226.44 -404.04 c 128,-1,29
 226.44 -392.94 226.44 -392.94 241.98 -375.18 c 0,30,31
 384.06 -210.9 384.06 -210.9 384.06 24.4199 c 1,8,9
EndSplineSet
EndChar
StartChar: less
Encoding: 60 60 31
Width: 1724
VWidth: 2220
Flags: W
HStem: -86.58 46.62 1152.18 44.4
VStem: 184.26 1356.42
Fore
1498.5 1105.56 m 2,0,-1
 333 555 l 1,1,-1
 1498.5 4.44043 l 2,2,3
 1520.82 -6.71927 1520.82 -6.71927 1530.75 -17.0321 c 128,-1,4
 1540.68 -27.3449 1540.68 -27.3449 1540.68 -44.4004 c 0,5,6
 1540.68 -62.7153 1540.68 -62.7153 1527.64 -75.7576 c 128,-1,7
 1514.6 -88.7998 1514.6 -88.7998 1496.28 -88.7998 c 0,8,9
 1485.18 -88.7998 1485.18 -88.7998 1456.32 -73.2598 c 2,10,-1
 226.44 506.16 l 2,11,12
 205.073 515.872 205.073 515.872 194.666 526.279 c 128,-1,13
 184.26 536.685 184.26 536.685 184.26 555 c 128,-1,14
 184.26 573.315 184.26 573.315 194.666 583.721 c 128,-1,15
 205.073 594.128 205.073 594.128 226.44 603.84 c 2,16,-1
 1456.32 1183.26 l 2,17,18
 1485.18 1198.8 1485.18 1198.8 1496.28 1198.8 c 0,19,20
 1514.6 1198.8 1514.6 1198.8 1527.64 1185.76 c 128,-1,21
 1540.68 1172.72 1540.68 1172.72 1540.68 1154.4 c 0,22,23
 1540.68 1137.34 1540.68 1137.34 1530.75 1127.03 c 128,-1,24
 1520.82 1116.72 1520.82 1116.72 1498.5 1105.56 c 2,0,-1
EndSplineSet
EndChar
StartChar: equal
Encoding: 61 61 32
Width: 1724
VWidth: 2220
Flags: W
HStem: 295.26 88.8<199.8 1525.14 1525.14 1527.36> 725.94 88.8<197.58 199.8 199.8 1525.14>
VStem: 124.32 1476.3<317.46 361.86 748.14 792.54>
Fore
1525.14 725.94 m 2,0,-1
 199.8 725.94 l 2,1,2
 186.125 725.94 186.125 725.94 178.728 726.247 c 128,-1,3
 171.33 726.553 171.33 726.553 159.281 728.831 c 128,-1,4
 147.231 731.109 147.231 731.109 140.864 735.482 c 128,-1,5
 134.497 739.855 134.497 739.855 129.408 748.722 c 128,-1,6
 124.32 757.589 124.32 757.589 124.32 770.34 c 0,7,8
 124.32 786.058 124.32 786.058 130.633 795.853 c 128,-1,9
 136.946 805.649 136.946 805.649 150.058 809.346 c 128,-1,10
 163.17 813.042 163.17 813.042 172.258 813.891 c 128,-1,11
 181.346 814.74 181.346 814.74 197.58 814.74 c 2,12,-1
 1527.36 814.74 l 2,13,14
 1543.59 814.74 1543.59 814.74 1552.68 813.891 c 128,-1,15
 1561.77 813.042 1561.77 813.042 1574.88 809.346 c 128,-1,16
 1587.99 805.649 1587.99 805.649 1594.31 795.853 c 128,-1,17
 1600.62 786.058 1600.62 786.058 1600.62 770.34 c 0,18,19
 1600.62 757.589 1600.62 757.589 1595.53 748.722 c 128,-1,20
 1590.44 739.855 1590.44 739.855 1584.08 735.482 c 132,-1,21
 1577.71 731.109 1577.71 731.109 1565.66 728.831 c 128,-1,22
 1553.61 726.553 1553.61 726.553 1546.21 726.247 c 128,-1,23
 1538.81 725.94 1538.81 725.94 1525.14 725.94 c 2,0,-1
1527.36 295.26 m 2,24,-1
 197.58 295.26 l 2,25,26
 181.346 295.26 181.346 295.26 172.258 296.109 c 128,-1,27
 163.17 296.958 163.17 296.958 150.058 300.654 c 128,-1,28
 136.946 304.351 136.946 304.351 130.633 314.147 c 128,-1,29
 124.32 323.942 124.32 323.942 124.32 339.66 c 0,30,31
 124.32 352.411 124.32 352.411 129.409 361.278 c 128,-1,32
 134.497 370.145 134.497 370.145 140.864 374.518 c 128,-1,33
 147.231 378.891 147.231 378.891 159.281 381.169 c 128,-1,34
 171.331 383.447 171.331 383.447 178.728 383.753 c 128,-1,35
 186.125 384.06 186.125 384.06 199.8 384.06 c 2,36,-1
 1525.14 384.06 l 2,37,38
 1538.82 384.06 1538.82 384.06 1546.21 383.753 c 128,-1,39
 1553.61 383.447 1553.61 383.447 1565.66 381.169 c 128,-1,40
 1577.71 378.891 1577.71 378.891 1584.08 374.518 c 128,-1,41
 1590.44 370.145 1590.44 370.145 1595.53 361.278 c 128,-1,42
 1600.62 352.411 1600.62 352.411 1600.62 339.66 c 0,43,44
 1600.62 323.942 1600.62 323.942 1594.31 314.147 c 128,-1,45
 1587.99 304.351 1587.99 304.351 1574.88 300.654 c 128,-1,46
 1561.77 296.958 1561.77 296.958 1552.68 296.109 c 128,-1,47
 1543.59 295.26 1543.59 295.26 1527.36 295.26 c 2,24,-1
EndSplineSet
EndChar
StartChar: greater
Encoding: 62 62 33
Width: 1724
VWidth: 2220
Flags: W
DStem: 102 498 121 533 627 250 675 272 627 250 675 228 102 2 121 -33
Fore
1498.5 506.16 m 2,0,-1
 268.62 -73.2598 l 2,1,2
 239.76 -88.7998 239.76 -88.7998 228.66 -88.7998 c 0,3,4
 210.345 -88.7998 210.345 -88.7998 197.302 -75.7575 c 128,-1,5
 184.26 -62.7152 184.26 -62.7152 184.26 -44.4004 c 0,6,7
 184.26 -29.3226 184.26 -29.3226 193.764 -18.2339 c 128,-1,8
 203.269 -7.14528 203.269 -7.14528 226.44 4.44043 c 2,9,-1
 1391.94 555 l 1,10,-1
 226.44 1105.56 l 2,11,12
 203.269 1117.15 203.269 1117.15 193.764 1128.23 c 128,-1,13
 184.26 1139.32 184.26 1139.32 184.26 1154.4 c 0,14,15
 184.26 1172.72 184.26 1172.72 197.302 1185.76 c 128,-1,16
 210.345 1198.8 210.345 1198.8 228.66 1198.8 c 0,17,18
 239.76 1198.8 239.76 1198.8 268.62 1183.26 c 2,19,-1
 1498.5 603.84 l 2,20,21
 1519.87 594.128 1519.87 594.128 1530.27 583.721 c 128,-1,22
 1540.68 573.315 1540.68 573.315 1540.68 555 c 128,-1,23
 1540.68 536.685 1540.68 536.685 1530.27 526.279 c 128,-1,24
 1519.87 515.872 1519.87 515.872 1498.5 506.16 c 2,0,-1
EndSplineSet
EndChar
StartChar: question
Encoding: 63 63 34
Width: 1047
VWidth: 2220
Flags: W
HStem: 0 235.32<460.65 525.03> 415.14 46.62<479.52 507.27> 1163.28 202.02<204.24 219.78> 1516.26 48.84<448.44 616.05>
VStem: 124.32 204.24<1236.54 1315.35> 375.18 235.32<85.47 149.85> 466.2 55.5<468.42 475.08 475.08 552.78> 737.04 184.26<1218.78 1322.01>
Fore
521.7 552.78 m 2,0,-1
 521.7 475.08 l 2,1,2
 521.7 459.896 521.7 459.896 521.469 453.102 c 128,-1,3
 521.238 446.309 521.238 446.309 519.853 437.118 c 128,-1,4
 518.468 427.927 518.468 427.927 515.466 424.331 c 128,-1,5
 512.465 420.734 512.465 420.734 506.924 417.937 c 128,-1,6
 501.383 415.14 501.383 415.14 492.84 415.14 c 0,7,8
 474.192 415.14 474.192 415.14 470.196 425.13 c 128,-1,9
 466.2 435.12 466.2 435.12 466.2 468.42 c 2,10,-1
 466.2 568.32 l 2,11,12
 466.2 642.144 466.2 642.144 483.474 722.356 c 128,-1,13
 500.748 802.567 500.748 802.567 546.606 897.505 c 128,-1,14
 592.464 992.443 592.464 992.443 661.56 1067.82 c 0,15,16
 680.254 1086.51 680.254 1086.51 690.83 1100.18 c 128,-1,17
 701.405 1113.85 701.405 1113.85 713.667 1138.17 c 128,-1,18
 725.928 1162.49 725.928 1162.49 731.484 1197.1 c 128,-1,19
 737.04 1231.71 737.04 1231.71 737.04 1278.72 c 0,20,21
 737.04 1298.76 737.04 1298.76 736.765 1310.01 c 128,-1,22
 736.491 1321.26 736.491 1321.26 734.327 1343.27 c 128,-1,23
 732.164 1365.28 732.164 1365.28 728.135 1379.13 c 128,-1,24
 724.106 1392.97 724.106 1392.97 715.739 1413.06 c 128,-1,25
 707.372 1433.16 707.372 1433.16 695.605 1446.05 c 128,-1,26
 683.838 1458.94 683.838 1458.94 665.285 1473.57 c 128,-1,27
 646.732 1488.21 646.732 1488.21 623.244 1496.6 c 128,-1,28
 599.755 1504.99 599.755 1504.99 567.032 1510.62 c 128,-1,29
 534.309 1516.26 534.309 1516.26 495.06 1516.26 c 0,30,31
 457.237 1516.26 457.237 1516.26 419.286 1508.88 c 128,-1,32
 381.335 1501.5 381.335 1501.5 341.168 1485.24 c 128,-1,33
 301.001 1468.99 301.001 1468.99 264.927 1438.18 c 128,-1,34
 228.852 1407.38 228.852 1407.38 204.24 1365.3 c 1,35,36
 328.56 1365.3 328.56 1365.3 328.56 1265.4 c 0,37,38
 328.56 1221.31 328.56 1221.31 300.423 1192.3 c 128,-1,39
 272.286 1163.28 272.286 1163.28 226.44 1163.28 c 0,40,41
 184.027 1163.28 184.027 1163.28 154.174 1190.11 c 128,-1,42
 124.32 1216.93 124.32 1216.93 124.32 1269.84 c 0,43,44
 124.32 1324.61 124.32 1324.61 150.11 1376.96 c 128,-1,45
 175.899 1429.31 175.899 1429.31 222.573 1471.47 c 128,-1,46
 269.247 1513.63 269.247 1513.63 342.139 1539.37 c 128,-1,47
 415.031 1565.1 415.031 1565.1 501.72 1565.1 c 0,48,49
 596.921 1565.1 596.921 1565.1 671.948 1546.04 c 128,-1,50
 746.975 1526.98 746.975 1526.98 792.737 1496.94 c 128,-1,51
 838.498 1466.9 838.498 1466.9 868.445 1426.27 c 128,-1,52
 898.392 1385.63 898.392 1385.63 909.846 1346.26 c 128,-1,53
 921.3 1306.9 921.3 1306.9 921.3 1265.4 c 0,54,55
 921.3 1198.12 921.3 1198.12 891.602 1140.45 c 128,-1,56
 861.905 1082.78 861.905 1082.78 814.74 1047.84 c 0,57,58
 788.708 1028.5 788.708 1028.5 773.303 1016.53 c 128,-1,59
 757.899 1004.57 757.899 1004.57 723.404 973.77 c 128,-1,60
 688.909 942.972 688.909 942.972 666.044 916.447 c 128,-1,61
 643.179 889.922 643.179 889.922 613.31 847.275 c 128,-1,62
 583.441 804.629 583.441 804.629 565.465 762.769 c 128,-1,63
 547.488 720.909 547.488 720.909 534.594 665.637 c 128,-1,64
 521.7 610.365 521.7 610.365 521.7 552.78 c 2,0,-1
610.5 117.66 m 128,-1,66
 610.5 69.3752 610.5 69.3752 575.812 34.6876 c 128,-1,67
 541.125 0 541.125 0 492.84 0 c 128,-1,68
 444.555 0 444.555 0 409.867 34.6876 c 128,-1,69
 375.18 69.3752 375.18 69.3752 375.18 117.66 c 128,-1,70
 375.18 165.945 375.18 165.945 409.867 200.633 c 128,-1,71
 444.555 235.32 444.555 235.32 492.84 235.32 c 128,-1,72
 541.125 235.32 541.125 235.32 575.812 200.633 c 128,-1,65
 610.5 165.945 610.5 165.945 610.5 117.66 c 128,-1,66
EndSplineSet
EndChar
StartChar: at
Encoding: 64 64 35
Width: 1233
Flags: W
Fore
973 545 m 0,0,1
 973 658 973 658 922 722 c 128,-1,2
 871 786 871 786 782 786 c 256,3,4
 693 786 693 786 642.5 722 c 128,-1,5
 592 658 592 658 592 545 c 0,6,7
 592 431 592 431 642.5 367 c 128,-1,8
 693 303 693 303 782 303 c 256,9,10
 871 303 871 303 922 367 c 128,-1,11
 973 431 973 431 973 545 c 0,0,1
1159 135 m 1,12,-1
 963 135 l 1,13,-1
 963 217 l 1,14,15
 925 164 925 164 873.5 139.5 c 128,-1,16
 822 115 822 115 750 115 c 0,17,18
 586 115 586 115 485.5 233 c 128,-1,19
 385 351 385 351 385 545 c 0,20,21
 385 738 385 738 485 855.5 c 128,-1,22
 585 973 585 973 750 973 c 0,23,24
 821 973 821 973 875 948.5 c 128,-1,25
 929 924 929 924 963 877 c 1,26,-1
 963 918 l 2,27,28
 963 1054 963 1054 888.5 1128 c 128,-1,29
 814 1202 814 1202 676 1202 c 0,30,31
 468 1202 468 1202 336.5 1019 c 128,-1,32
 205 836 205 836 205 543 c 0,33,34
 205 236 205 236 357 54.5 c 128,-1,35
 509 -127 509 -127 762 -127 c 0,36,37
 842 -127 842 -127 917 -103.5 c 128,-1,38
 992 -80 992 -80 1061 -33 c 1,39,-1
 1153 -209 l 1,40,41
 1072 -264 1072 -264 976.5 -291.5 c 128,-1,42
 881 -319 881 -319 772 -319 c 0,43,44
 422 -319 422 -319 214 -86 c 128,-1,45
 6 147 6 147 6 543 c 0,46,47
 6 930 6 930 193 1162.5 c 128,-1,48
 380 1395 380 1395 688 1395 c 0,49,50
 906 1395 906 1395 1032.5 1263.5 c 128,-1,51
 1159 1132 1159 1132 1159 905 c 2,52,-1
 1159 135 l 1,12,-1
EndSplineSet
EndChar
StartChar: A
Encoding: 65 65 36
Width: 1233
Flags: W
Fore
616 1223 m 1,0,-1
 477 612 l 1,1,-1
 756 612 l 1,2,-1
 616 1223 l 1,0,-1
436 1493 m 1,3,-1
 797 1493 l 1,4,-1
 1200 0 l 1,5,-1
 905 0 l 1,6,-1
 813 369 l 1,7,-1
 418 369 l 1,8,-1
 328 0 l 1,9,-1
 33 0 l 1,10,-1
 436 1493 l 1,3,-1
EndSplineSet
EndChar
StartChar: B
Encoding: 66 66 37
Width: 1233
Flags: W
Fore
410 678 m 1,0,-1
 410 236 l 1,1,-1
 606 236 l 2,2,3
 747 236 747 236 803.5 284 c 128,-1,4
 860 332 860 332 860 451 c 0,5,6
 860 572 860 572 801 625 c 128,-1,7
 742 678 742 678 606 678 c 2,8,-1
 410 678 l 1,0,-1
410 1260 m 1,9,-1
 410 913 l 1,10,-1
 606 913 l 2,11,12
 718 913 718 913 765.5 953 c 128,-1,13
 813 993 813 993 813 1085 c 256,14,15
 813 1177 813 1177 764.5 1218.5 c 128,-1,16
 716 1260 716 1260 606 1260 c 2,17,-1
 410 1260 l 1,9,-1
125 1495 m 1,18,-1
 606 1495 l 2,19,20
 855 1495 855 1495 980.5 1400.5 c 128,-1,21
 1106 1306 1106 1306 1106 1118 c 0,22,23
 1106 974 1106 974 1032 893 c 128,-1,24
 958 812 958 812 815 799 c 1,25,26
 986 782 986 782 1072.5 684 c 128,-1,27
 1159 586 1159 586 1159 410 c 0,28,29
 1159 194 1159 194 1029 97 c 128,-1,30
 899 0 899 0 606 0 c 2,31,-1
 125 0 l 1,32,-1
 125 1495 l 1,18,-1
EndSplineSet
EndChar
StartChar: C
Encoding: 67 67 38
Width: 1233
Flags: W
Fore
1081 43 m 1,0,1
 1011 7 1011 7 934 -11 c 128,-1,2
 857 -29 857 -29 772 -29 c 0,3,4
 470 -29 470 -29 311 170 c 128,-1,5
 152 369 152 369 152 745 c 0,6,7
 152 1122 152 1122 311 1321 c 128,-1,8
 470 1520 470 1520 772 1520 c 0,9,10
 857 1520 857 1520 935 1502 c 128,-1,11
 1013 1484 1013 1484 1081 1448 c 1,12,-1
 1081 1120 l 1,13,14
 1005 1190 1005 1190 933.5 1222.5 c 128,-1,15
 862 1255 862 1255 786 1255 c 0,16,17
 624 1255 624 1255 541.5 1126.5 c 128,-1,18
 459 998 459 998 459 745 c 0,19,20
 459 493 459 493 541.5 364.5 c 128,-1,21
 624 236 624 236 786 236 c 0,22,23
 862 236 862 236 933.5 268.5 c 128,-1,24
 1005 301 1005 301 1081 371 c 1,25,-1
 1081 43 l 1,0,1
EndSplineSet
EndChar
StartChar: D
Encoding: 68 68 39
Width: 1233
Flags: W
Fore
432 1227 m 1,0,-1
 432 266 l 1,1,-1
 512 266 l 2,2,3
 686 266 686 266 760 375.5 c 128,-1,4
 834 485 834 485 834 748 c 0,5,6
 834 1009 834 1009 760 1118 c 128,-1,7
 686 1227 686 1227 512 1227 c 2,8,-1
 432 1227 l 1,0,-1
137 1493 m 1,9,-1
 453 1493 l 2,10,11
 819 1493 819 1493 980 1318.5 c 128,-1,12
 1141 1144 1141 1144 1141 748 c 0,13,14
 1141 351 1141 351 980 175.5 c 128,-1,15
 819 0 819 0 453 0 c 2,16,-1
 137 0 l 1,17,-1
 137 1493 l 1,9,-1
EndSplineSet
EndChar
StartChar: E
Encoding: 69 69 40
Width: 1233
Flags: W
Fore
1098 0 m 1,0,-1
 168 0 l 1,1,-1
 168 1493 l 1,2,-1
 1098 1493 l 1,3,-1
 1098 1233 l 1,4,-1
 463 1233 l 1,5,-1
 463 911 l 1,6,-1
 1038 911 l 1,7,-1
 1038 651 l 1,8,-1
 463 651 l 1,9,-1
 463 260 l 1,10,-1
 1098 260 l 1,11,-1
 1098 0 l 1,0,-1
EndSplineSet
EndChar
StartChar: F
Encoding: 70 70 41
Width: 1233
Flags: W
Fore
1112 1233 m 1,0,-1
 477 1233 l 1,1,-1
 477 911 l 1,2,-1
 1055 911 l 1,3,-1
 1055 651 l 1,4,-1
 477 651 l 1,5,-1
 477 0 l 1,6,-1
 182 0 l 1,7,-1
 182 1493 l 1,8,-1
 1112 1493 l 1,9,-1
 1112 1233 l 1,0,-1
EndSplineSet
EndChar
StartChar: G
Encoding: 71 71 42
Width: 1233
Flags: W
Fore
872 270 m 1,0,-1
 872 555 l 1,1,-1
 670 555 l 1,2,-1
 670 803 l 1,3,-1
 1130 803 l 1,4,-1
 1130 119 l 1,5,6
 1045 46 1045 46 942.5 8.5 c 128,-1,7
 840 -29 840 -29 723 -29 c 0,8,9
 433 -29 433 -29 275 172.5 c 128,-1,10
 117 374 117 374 117 745 c 0,11,12
 117 1122 117 1122 276.5 1321 c 128,-1,13
 436 1520 436 1520 737 1520 c 0,14,15
 827 1520 827 1520 914 1494.5 c 128,-1,16
 1001 1469 1001 1469 1077 1421 c 1,17,-1
 1077 1094 l 1,18,19
 1015 1174 1015 1174 934.5 1214.5 c 128,-1,20
 854 1255 854 1255 758 1255 c 0,21,22
 590 1255 590 1255 507 1128.5 c 128,-1,23
 424 1002 424 1002 424 745 c 0,24,25
 424 496 424 496 504 366 c 128,-1,26
 584 236 584 236 737 236 c 0,27,28
 783 236 783 236 817 244.5 c 128,-1,29
 851 253 851 253 872 270 c 1,0,-1
EndSplineSet
EndChar
StartChar: H
Encoding: 72 72 43
Width: 1233
Flags: W
Fore
137 1493 m 1,0,-1
 432 1493 l 1,1,-1
 432 924 l 1,2,-1
 801 924 l 1,3,-1
 801 1493 l 1,4,-1
 1096 1493 l 1,5,-1
 1096 0 l 1,6,-1
 801 0 l 1,7,-1
 801 664 l 1,8,-1
 432 664 l 1,9,-1
 432 0 l 1,10,-1
 137 0 l 1,11,-1
 137 1493 l 1,0,-1
EndSplineSet
EndChar
StartChar: I
Encoding: 73 73 44
Width: 1233
Flags: W
Fore
172 1233 m 1,0,-1
 172 1493 l 1,1,-1
 1061 1493 l 1,2,-1
 1061 1233 l 1,3,-1
 764 1233 l 1,4,-1
 764 260 l 1,5,-1
 1061 260 l 1,6,-1
 1061 0 l 1,7,-1
 172 0 l 1,8,-1
 172 260 l 1,9,-1
 469 260 l 1,10,-1
 469 1233 l 1,11,-1
 172 1233 l 1,0,-1
EndSplineSet
EndChar
StartChar: J
Encoding: 74 74 45
Width: 1233
Flags: W
Fore
109 74 m 1,0,-1
 109 416 l 1,1,2
 195 328 195 328 292.5 282 c 128,-1,3
 390 236 390 236 489 236 c 0,4,5
 605 236 605 236 659 294 c 128,-1,6
 713 352 713 352 713 479 c 2,7,-1
 713 1233 l 1,8,-1
 352 1233 l 1,9,-1
 352 1493 l 1,10,-1
 1008 1493 l 1,11,-1
 1008 479 l 2,12,13
 1008 206 1008 206 893.5 88.5 c 128,-1,14
 779 -29 779 -29 516 -29 c 0,15,16
 421 -29 421 -29 317.5 -3 c 128,-1,17
 214 23 214 23 109 74 c 1,0,-1
EndSplineSet
EndChar
StartChar: K
Encoding: 75 75 46
Width: 1233
Flags: W
Fore
117 1493 m 1,0,-1
 412 1493 l 1,1,-1
 412 903 l 1,2,-1
 874 1493 l 1,3,-1
 1208 1493 l 1,4,-1
 737 905 l 1,5,-1
 1225 0 l 1,6,-1
 897 0 l 1,7,-1
 543 672 l 1,8,-1
 412 506 l 1,9,-1
 412 0 l 1,10,-1
 117 0 l 1,11,-1
 117 1493 l 1,0,-1
EndSplineSet
EndChar
StartChar: L
Encoding: 76 76 47
Width: 1233
Flags: W
Fore
225 0 m 1,0,-1
 225 1493 l 1,1,-1
 520 1493 l 1,2,-1
 520 260 l 1,3,-1
 1151 260 l 1,4,-1
 1151 0 l 1,5,-1
 225 0 l 1,0,-1
EndSplineSet
EndChar
StartChar: M
Encoding: 77 77 48
Width: 1233
Flags: W
Fore
86 1493 m 1,0,-1
 438 1493 l 1,1,-1
 616 838 l 1,2,-1
 793 1493 l 1,3,-1
 1147 1493 l 1,4,-1
 1147 0 l 1,5,-1
 893 0 l 1,6,-1
 893 1196 l 1,7,-1
 735 543 l 1,8,-1
 500 543 l 1,9,-1
 340 1196 l 1,10,-1
 340 0 l 1,11,-1
 86 0 l 1,12,-1
 86 1493 l 1,0,-1
EndSplineSet
EndChar
StartChar: N
Encoding: 78 78 49
Width: 1233
Flags: W
Fore
119 1493 m 1,0,-1
 436 1493 l 1,1,-1
 852 408 l 1,2,-1
 852 1493 l 1,3,-1
 1112 1493 l 1,4,-1
 1112 0 l 1,5,-1
 797 0 l 1,6,-1
 379 1085 l 1,7,-1
 379 0 l 1,8,-1
 119 0 l 1,9,-1
 119 1493 l 1,0,-1
EndSplineSet
EndChar
StartChar: O
Encoding: 79 79 50
Width: 1233
Flags: W
Fore
616 1255 m 0,0,1
 503 1255 503 1255 451 1134.5 c 128,-1,2
 399 1014 399 1014 399 745 c 0,3,4
 399 477 399 477 451 356.5 c 128,-1,5
 503 236 503 236 616 236 c 0,6,7
 730 236 730 236 782 356.5 c 128,-1,8
 834 477 834 477 834 745 c 0,9,10
 834 1014 834 1014 782 1134.5 c 128,-1,11
 730 1255 730 1255 616 1255 c 0,0,1
92 745 m 0,12,13
 92 1128 92 1128 224.5 1324 c 128,-1,14
 357 1520 357 1520 616 1520 c 0,15,16
 876 1520 876 1520 1008.5 1324 c 128,-1,17
 1141 1128 1141 1128 1141 745 c 0,18,19
 1141 363 1141 363 1008.5 167 c 128,-1,20
 876 -29 876 -29 616 -29 c 0,21,22
 357 -29 357 -29 224.5 167 c 128,-1,23
 92 363 92 363 92 745 c 0,12,13
EndSplineSet
EndChar
StartChar: P
Encoding: 80 80 51
Width: 1233
Flags: W
Fore
457 1245 m 1,0,-1
 457 807 l 1,1,-1
 578 807 l 2,2,3
 723 807 723 807 781.5 856 c 128,-1,4
 840 905 840 905 840 1026 c 256,5,6
 840 1147 840 1147 781.5 1196 c 128,-1,7
 723 1245 723 1245 578 1245 c 2,8,-1
 457 1245 l 1,0,-1
162 1493 m 1,9,-1
 567 1493 l 2,10,11
 876 1493 876 1493 1011.5 1383 c 128,-1,12
 1147 1273 1147 1273 1147 1026 c 256,13,14
 1147 779 1147 779 1011.5 669 c 128,-1,15
 876 559 876 559 567 559 c 2,16,-1
 457 559 l 1,17,-1
 457 0 l 1,18,-1
 162 0 l 1,19,-1
 162 1493 l 1,9,-1
EndSplineSet
EndChar
StartChar: Q
Encoding: 81 81 52
Width: 1233
Flags: W
Fore
656 -23 m 1,0,1
 642 -26 642 -26 632.5 -27.5 c 128,-1,2
 623 -29 623 -29 614 -29 c 0,3,4
 357 -29 357 -29 224.5 167 c 128,-1,5
 92 363 92 363 92 745 c 0,6,7
 92 1128 92 1128 224.5 1324 c 128,-1,8
 357 1520 357 1520 616 1520 c 0,9,10
 876 1520 876 1520 1008.5 1324 c 128,-1,11
 1141 1128 1141 1128 1141 745 c 0,12,13
 1141 482 1141 482 1078 304.5 c 128,-1,14
 1015 127 1015 127 895 51 c 1,15,-1
 1081 -131 l 1,16,-1
 879 -281 l 1,17,-1
 656 -23 l 1,0,1
616 1255 m 0,18,19
 503 1255 503 1255 451 1134.5 c 128,-1,20
 399 1014 399 1014 399 745 c 0,21,22
 399 477 399 477 451 356.5 c 128,-1,23
 503 236 503 236 616 236 c 0,24,25
 730 236 730 236 782 356.5 c 128,-1,26
 834 477 834 477 834 745 c 0,27,28
 834 1014 834 1014 782 1134.5 c 128,-1,29
 730 1255 730 1255 616 1255 c 0,18,19
EndSplineSet
EndChar
StartChar: R
Encoding: 82 82 53
Width: 1233
Flags: W
Fore
807 705 m 1,0,1
 851 696 851 696 883.5 663.5 c 128,-1,2
 916 631 916 631 963 537 c 2,3,-1
 1233 0 l 1,4,-1
 909 0 l 1,5,-1
 729 377 l 2,6,7
 721 393 721 393 708 421 c 0,8,9
 629 590 629 590 522 590 c 2,10,-1
 428 590 l 1,11,-1
 428 0 l 1,12,-1
 133 0 l 1,13,-1
 133 1493 l 1,14,-1
 559 1493 l 2,15,16
 847 1493 847 1493 972.5 1391 c 128,-1,17
 1098 1289 1098 1289 1098 1059 c 0,18,19
 1098 905 1098 905 1023 814 c 128,-1,20
 948 723 948 723 807 705 c 1,0,1
428 1245 m 1,21,-1
 428 838 l 1,22,-1
 567 838 l 2,23,24
 688 838 688 838 740.5 885.5 c 128,-1,25
 793 933 793 933 793 1042 c 256,26,27
 793 1151 793 1151 741 1198 c 128,-1,28
 689 1245 689 1245 567 1245 c 2,29,-1
 428 1245 l 1,21,-1
EndSplineSet
EndChar
StartChar: S
Encoding: 83 83 54
Width: 1233
Flags: W
Fore
510 655 m 2,0,1
 287 740 287 740 208 833.5 c 128,-1,2
 129 927 129 927 129 1085 c 0,3,4
 129 1288 129 1288 259 1404 c 128,-1,5
 389 1520 389 1520 616 1520 c 0,6,7
 719 1520 719 1520 822 1496.5 c 128,-1,8
 925 1473 925 1473 1026 1427 c 1,9,-1
 1026 1139 l 1,10,11
 931 1206 931 1206 833 1241 c 128,-1,12
 735 1276 735 1276 639 1276 c 0,13,14
 532 1276 532 1276 475 1233 c 128,-1,15
 418 1190 418 1190 418 1110 c 0,16,17
 418 1048 418 1048 459.5 1007.5 c 128,-1,18
 501 967 501 967 633 918 c 2,19,-1
 760 870 l 2,20,21
 940 804 940 804 1025 695 c 128,-1,22
 1110 586 1110 586 1110 420 c 0,23,24
 1110 194 1110 194 976.5 82.5 c 128,-1,25
 843 -29 843 -29 573 -29 c 0,26,27
 462 -29 462 -29 350.5 -2.5 c 128,-1,28
 239 24 239 24 135 76 c 1,29,-1
 135 381 l 1,30,31
 253 297 253 297 363.5 256 c 128,-1,32
 474 215 474 215 582 215 c 0,33,34
 691 215 691 215 751 264.5 c 128,-1,35
 811 314 811 314 811 403 c 0,36,37
 811 470 811 470 771 520.5 c 128,-1,38
 731 571 731 571 655 600 c 2,39,-1
 510 655 l 2,0,1
EndSplineSet
EndChar
StartChar: T
Encoding: 84 84 55
Width: 1233
Flags: W
Fore
764 0 m 1,0,-1
 469 0 l 1,1,-1
 469 1235 l 1,2,-1
 90 1235 l 1,3,-1
 90 1493 l 1,4,-1
 1143 1493 l 1,5,-1
 1143 1235 l 1,6,-1
 764 1235 l 1,7,-1
 764 0 l 1,0,-1
EndSplineSet
EndChar
StartChar: U
Encoding: 85 85 56
Width: 1233
Flags: W
Fore
106 551 m 2,0,-1
 106 1493 l 1,1,-1
 401 1493 l 1,2,-1
 401 477 l 2,3,4
 401 365 401 365 458 301.5 c 128,-1,5
 515 238 515 238 616 238 c 256,6,7
 717 238 717 238 774 301.5 c 128,-1,8
 831 365 831 365 831 477 c 2,9,-1
 831 1493 l 1,10,-1
 1126 1493 l 1,11,-1
 1126 551 l 2,12,13
 1126 247 1126 247 1005 109 c 128,-1,14
 884 -29 884 -29 616 -29 c 0,15,16
 349 -29 349 -29 227.5 109 c 128,-1,17
 106 247 106 247 106 551 c 2,0,-1
EndSplineSet
EndChar
StartChar: V
Encoding: 86 86 57
Width: 1233
Flags: W
Fore
616 246 m 1,0,-1
 879 1493 l 1,1,-1
 1176 1493 l 1,2,-1
 821 0 l 1,3,-1
 412 0 l 1,4,-1
 57 1493 l 1,5,-1
 354 1493 l 1,6,-1
 616 246 l 1,0,-1
EndSplineSet
EndChar
StartChar: W
Encoding: 87 87 58
Width: 1233
Flags: W
Fore
0 1493 m 1,0,-1
 258 1493 l 1,1,-1
 365 397 l 1,2,-1
 494 1106 l 1,3,-1
 739 1106 l 1,4,-1
 889 397 l 1,5,-1
 973 1493 l 1,6,-1
 1233 1493 l 1,7,-1
 1061 0 l 1,8,-1
 786 0 l 1,9,-1
 616 784 l 1,10,-1
 457 0 l 1,11,-1
 184 0 l 1,12,-1
 0 1493 l 1,0,-1
EndSplineSet
EndChar
StartChar: X
Encoding: 88 88 59
Width: 1233
Flags: W
Fore
1206 0 m 1,0,-1
 901 0 l 1,1,-1
 616 494 l 1,2,-1
 332 0 l 1,3,-1
 27 0 l 1,4,-1
 465 758 l 1,5,-1
 39 1493 l 1,6,-1
 344 1493 l 1,7,-1
 616 1018 l 1,8,-1
 889 1493 l 1,9,-1
 1194 1493 l 1,10,-1
 770 758 l 1,11,-1
 1206 0 l 1,0,-1
EndSplineSet
EndChar
StartChar: Y
Encoding: 89 89 60
Width: 1233
Flags: W
Fore
8 1493 m 1,0,-1
 326 1493 l 1,1,-1
 616 893 l 1,2,-1
 907 1493 l 1,3,-1
 1225 1493 l 1,4,-1
 764 588 l 1,5,-1
 764 0 l 1,6,-1
 469 0 l 1,7,-1
 469 588 l 1,8,-1
 8 1493 l 1,0,-1
EndSplineSet
EndChar
StartChar: Z
Encoding: 90 90 61
Width: 1233
Flags: W
Fore
137 1493 m 1,0,-1
 1147 1493 l 1,1,-1
 1147 1249 l 1,2,-1
 455 260 l 1,3,-1
 1161 260 l 1,4,-1
 1161 0 l 1,5,-1
 115 0 l 1,6,-1
 115 244 l 1,7,-1
 786 1233 l 1,8,-1
 137 1233 l 1,9,-1
 137 1493 l 1,0,-1
EndSplineSet
EndChar
StartChar: bracketleft
Encoding: 91 91 62
Width: 614
VWidth: 2220
Flags: W
HStem: -555 88.8<350.76 566.1> 1576.2 88.8<350.76 566.1 350.76 350.76>
VStem: 261.96 88.8<-466.2 1576.2>
Fore
566.1 -555 m 1,0,-1
 261.96 -555 l 1,1,-1
 261.96 1665 l 1,2,-1
 566.1 1665 l 1,3,-1
 566.1 1576.2 l 1,4,-1
 350.76 1576.2 l 1,5,-1
 350.76 -466.2 l 1,6,-1
 566.1 -466.2 l 1,7,-1
 566.1 -555 l 1,0,-1
EndSplineSet
EndChar
StartChar: backslash
Encoding: 92 92 63
Width: 1110
VWidth: 2220
Flags: W
HStem: -555 46.62<923.52 951.27> 1620.6 44.4<156.51 184.26>
VStem: 124.32 859.14
Fore
890.22 -506.16 m 2,0,-1
 135.42 1580.64 l 2,1,2
 124.32 1609.5 124.32 1609.5 124.32 1620.6 c 0,3,4
 124.32 1638.91 124.32 1638.91 137.363 1651.96 c 0,5,6
 150.405 1665 150.405 1665 168.72 1665 c 0,5,6
 183.224 1665 183.224 1665 193.436 1656.86 c 0,7,8
 203.648 1648.72 203.648 1648.72 207.644 1640.58 c 0,9,10
 211.64 1632.44 211.64 1632.44 217.56 1616.16 c 2,7,-1
 972.36 -470.64 l 2,8,9
 983.46 -499.5 983.46 -499.5 983.46 -510.6 c 0,10,11
 983.46 -528.915 983.46 -528.915 970.417 -541.957 c 0,12,13
 957.375 -555 957.375 -555 939.06 -555 c 0,12,13
 924.556 -555 924.556 -555 914.344 -546.86 c 0,14,15
 904.132 -538.72 904.132 -538.72 900.136 -530.58 c 0,16,17
 896.139 -522.44 896.139 -522.44 890.22 -506.16 c 2,0,-1
EndSplineSet
EndChar
StartChar: bracketright
Encoding: 93 93 64
Width: 614
VWidth: 2220
Flags: W
HStem: -555 88.8<48.84 264.18> 1576.2 88.8<48.84 264.18>
VStem: 264.18 88.8<-466.2 1576.2 1576.2 1576.2>
Fore
352.98 1665 m 1,0,-1
 352.98 -555 l 1,1,-1
 48.8398 -555 l 1,2,-1
 48.8398 -466.2 l 1,3,-1
 264.18 -466.2 l 1,4,-1
 264.18 1576.2 l 1,5,-1
 48.8398 1576.2 l 1,6,-1
 48.8398 1665 l 1,7,-1
 352.98 1665 l 1,0,-1
EndSplineSet
EndChar
StartChar: asciicircum
Encoding: 94 94 65
Width: 1110
VWidth: 2220
Flags: W
HStem: 1198.8 46.62<297.48 297.48 810.3 810.3> 1425.24 115.44<555 555>
VStem: 257.52 592.74<1238.76 1238.76>
Fore
555 1540.68 m 1,0,-1
 850.26 1238.76 l 1,1,-1
 810.3 1198.8 l 1,2,-1
 555 1425.24 l 1,3,-1
 297.48 1198.8 l 1,4,-1
 257.52 1238.76 l 1,5,-1
 555 1540.68 l 1,0,-1
EndSplineSet
EndChar
StartChar: underscore
Encoding: 95 95 66
Width: 1233
Flags: W
Fore
301 735 m 1,0,-1
 932 735 l 1,1,-1
 932 444 l 1,2,-1
 301 444 l 1,3,-1
 301 735 l 1,0,-1
EndSplineSet
EndChar
StartChar: grave
Encoding: 96 96 67
Width: 1233
Flags: W
Fore
481 1638 m 1,0,-1
 764 1262 l 1,1,-1
 567 1262 l 1,2,-1
 199 1638 l 1,3,-1
 481 1638 l 1,0,-1
EndSplineSet
EndChar
StartChar: a
Encoding: 97 97 68
Width: 1233
Flags: W
Fore
700 526 m 2,0,1
 536 526 536 526 471 484 c 128,-1,2
 406 442 406 442 406 340 c 0,3,4
 406 264 406 264 451 219 c 128,-1,5
 496 174 496 174 573 174 c 0,6,7
 689 174 689 174 753 261.5 c 128,-1,8
 817 349 817 349 817 506 c 2,9,-1
 817 526 l 1,10,-1
 700 526 l 2,0,1
1108 639 m 2,11,-1
 1108 0 l 1,12,-1
 817 0 l 1,13,-1
 817 125 l 1,14,15
 764 51 764 51 681 11 c 128,-1,16
 598 -29 598 -29 498 -29 c 0,17,18
 307 -29 307 -29 200.5 72 c 128,-1,19
 94 173 94 173 94 354 c 0,20,21
 94 550 94 550 221 643.5 c 128,-1,22
 348 737 348 737 614 737 c 2,23,-1
 817 737 l 1,24,-1
 817 786 l 2,25,26
 817 857 817 857 765.5 893.5 c 128,-1,27
 714 930 714 930 614 930 c 0,28,29
 509 930 509 930 410.5 903.5 c 128,-1,30
 312 877 312 877 205 819 c 1,31,-1
 205 1069 l 1,32,33
 302 1109 302 1109 402 1128 c 128,-1,34
 502 1147 502 1147 614 1147 c 0,35,36
 887 1147 887 1147 997.5 1036 c 128,-1,37
 1108 925 1108 925 1108 639 c 2,11,-1
EndSplineSet
EndChar
StartChar: b
Encoding: 98 98 69
Width: 1233
Flags: W
Fore
850 557 m 256,0,1
 850 719 850 719 796 811 c 128,-1,2
 742 903 742 903 647 903 c 256,3,4
 552 903 552 903 497 811 c 128,-1,5
 442 719 442 719 442 557 c 256,6,7
 442 395 442 395 497 303 c 128,-1,8
 552 211 552 211 647 211 c 256,9,10
 742 211 742 211 796 303 c 128,-1,11
 850 395 850 395 850 557 c 256,0,1
442 961 m 1,12,13
 496 1054 496 1054 567.5 1100.5 c 128,-1,14
 639 1147 639 1147 729 1147 c 0,15,16
 928 1147 928 1147 1035.5 995 c 128,-1,17
 1143 843 1143 843 1143 559 c 0,18,19
 1143 279 1143 279 1037 125 c 128,-1,20
 931 -29 931 -29 739 -29 c 0,21,22
 638 -29 638 -29 563 20 c 128,-1,23
 488 69 488 69 442 166 c 1,24,-1
 442 0 l 1,25,-1
 150 0 l 1,26,-1
 150 1556 l 1,27,-1
 442 1556 l 1,28,-1
 442 961 l 1,12,13
EndSplineSet
EndChar
StartChar: c
Encoding: 99 99 70
Width: 1233
Flags: W
Fore
1061 57 m 1,0,1
 987 14 987 14 902 -7.5 c 128,-1,2
 817 -29 817 -29 719 -29 c 0,3,4
 460 -29 460 -29 314 127 c 128,-1,5
 168 283 168 283 168 559 c 0,6,7
 168 836 168 836 315 992.5 c 128,-1,8
 462 1149 462 1149 721 1149 c 0,9,10
 811 1149 811 1149 894.5 1128 c 128,-1,11
 978 1107 978 1107 1061 1063 c 1,12,-1
 1061 795 l 1,13,14
 997 850 997 850 920.5 879.5 c 128,-1,15
 844 909 844 909 762 909 c 0,16,17
 619 909 619 909 542 818 c 128,-1,18
 465 727 465 727 465 559 c 256,19,20
 465 391 465 391 542 301 c 128,-1,21
 619 211 619 211 762 211 c 0,22,23
 847 211 847 211 921 239.5 c 128,-1,24
 995 268 995 268 1061 326 c 1,25,-1
 1061 57 l 1,0,1
EndSplineSet
EndChar
StartChar: d
Encoding: 100 100 71
Width: 1233
Flags: W
Fore
791 961 m 1,0,-1
 791 1556 l 1,1,-1
 1083 1556 l 1,2,-1
 1083 0 l 1,3,-1
 791 0 l 1,4,-1
 791 166 l 1,5,6
 744 69 744 69 669.5 20 c 128,-1,7
 595 -29 595 -29 494 -29 c 0,8,9
 302 -29 302 -29 196 125 c 128,-1,10
 90 279 90 279 90 559 c 0,11,12
 90 843 90 843 197.5 995 c 128,-1,13
 305 1147 305 1147 504 1147 c 0,14,15
 594 1147 594 1147 665.5 1100.5 c 128,-1,16
 737 1054 737 1054 791 961 c 1,0,-1
383 557 m 256,17,18
 383 395 383 395 437 303 c 128,-1,19
 491 211 491 211 586 211 c 256,20,21
 681 211 681 211 736 303 c 128,-1,22
 791 395 791 395 791 557 c 256,23,24
 791 719 791 719 736 811 c 128,-1,25
 681 903 681 903 586 903 c 256,26,27
 491 903 491 903 437 811 c 128,-1,28
 383 719 383 719 383 557 c 256,17,18
EndSplineSet
EndChar
StartChar: e
Encoding: 101 101 72
Width: 1233
Flags: W
Fore
1102 55 m 1,0,1
 1000 13 1000 13 894 -8 c 128,-1,2
 788 -29 788 -29 670 -29 c 0,3,4
 389 -29 389 -29 240.5 121.5 c 128,-1,5
 92 272 92 272 92 555 c 0,6,7
 92 829 92 829 235 988 c 128,-1,8
 378 1147 378 1147 625 1147 c 0,9,10
 874 1147 874 1147 1011.5 999.5 c 128,-1,11
 1149 852 1149 852 1149 584 c 2,12,-1
 1149 465 l 1,13,-1
 390 465 l 1,14,15
 391 333 391 333 468 268 c 128,-1,16
 545 203 545 203 698 203 c 0,17,18
 799 203 799 203 897 232 c 128,-1,19
 995 261 995 261 1102 324 c 1,20,-1
 1102 55 l 1,0,1
854 685 m 1,21,22
 852 801 852 801 794.5 860.5 c 128,-1,23
 737 920 737 920 625 920 c 0,24,25
 524 920 524 920 464 858.5 c 128,-1,26
 404 797 404 797 393 684 c 1,27,-1
 854 685 l 1,21,22
EndSplineSet
EndChar
StartChar: f
Encoding: 102 102 73
Width: 1233
Flags: W
Fore
739 1218 m 2,0,-1
 739 1120 l 1,1,-1
 1083 1120 l 1,2,-1
 1083 895 l 1,3,-1
 739 895 l 1,4,-1
 739 0 l 1,5,-1
 446 0 l 1,6,-1
 446 895 l 1,7,-1
 174 895 l 1,8,-1
 174 1120 l 1,9,-1
 446 1120 l 1,10,-1
 446 1198 l 2,11,12
 446 1400 446 1400 530 1478 c 128,-1,13
 614 1556 614 1556 842 1556 c 2,14,-1
 1083 1556 l 1,15,-1
 1083 1331 l 1,16,-1
 854 1331 l 2,17,18
 788 1331 788 1331 764.5 1307 c 128,-1,19
 741 1283 741 1283 739 1218 c 2,0,-1
EndSplineSet
EndChar
StartChar: g
Encoding: 103 103 74
Width: 1233
Flags: W
Fore
803 578 m 0,0,1
 803 728 803 728 746 818.5 c 128,-1,2
 689 909 689 909 596 909 c 0,3,4
 504 909 504 909 447.5 819 c 128,-1,5
 391 729 391 729 391 578 c 0,6,7
 391 426 391 426 447.5 336 c 128,-1,8
 504 246 504 246 596 246 c 0,9,10
 689 246 689 246 746 336.5 c 128,-1,11
 803 427 803 427 803 578 c 0,0,1
1096 84 m 2,12,13
 1096 -185 1096 -185 974.5 -304.5 c 128,-1,14
 853 -424 853 -424 580 -424 c 0,15,16
 488 -424 488 -424 398 -410.5 c 128,-1,17
 308 -397 308 -397 215 -369 c 1,18,-1
 215 -100 l 1,19,20
 298 -146 298 -146 384 -168 c 128,-1,21
 470 -190 470 -190 561 -190 c 0,22,23
 685 -190 685 -190 744 -131.5 c 128,-1,24
 803 -73 803 -73 803 51 c 2,25,-1
 803 172 l 1,26,27
 760 92 760 92 689 53 c 128,-1,28
 618 14 618 14 516 14 c 0,29,30
 324 14 324 14 211 164 c 128,-1,31
 98 314 98 314 98 571 c 0,32,33
 98 837 98 837 211 993 c 128,-1,34
 324 1149 324 1149 514 1149 c 0,35,36
 610 1149 610 1149 685 1104 c 128,-1,37
 760 1059 760 1059 803 977 c 1,38,-1
 803 1120 l 1,39,-1
 1096 1120 l 1,40,-1
 1096 84 l 2,12,13
EndSplineSet
EndChar
StartChar: h
Encoding: 104 104 75
Width: 1233
Flags: W
Fore
1071 727 m 2,0,-1
 1071 0 l 1,1,-1
 780 0 l 1,2,-1
 780 682 l 2,3,4
 780 803 780 803 745.5 855 c 128,-1,5
 711 907 711 907 633 907 c 0,6,7
 553 907 553 907 508 836.5 c 128,-1,8
 463 766 463 766 463 641 c 2,9,-1
 463 0 l 1,10,-1
 172 0 l 1,11,-1
 172 1556 l 1,12,-1
 463 1556 l 1,13,-1
 463 952 l 1,14,15
 494 1045 494 1045 569 1096 c 128,-1,16
 644 1147 644 1147 750 1147 c 0,17,18
 909 1147 909 1147 990 1041.5 c 128,-1,19
 1071 936 1071 936 1071 727 c 2,0,-1
EndSplineSet
EndChar
StartChar: i
Encoding: 105 105 76
Width: 1233
Flags: W
Fore
221 1120 m 1,0,-1
 801 1120 l 1,1,-1
 801 225 l 1,2,-1
 1165 225 l 1,3,-1
 1165 0 l 1,4,-1
 143 0 l 1,5,-1
 143 225 l 1,6,-1
 508 225 l 1,7,-1
 508 895 l 1,8,-1
 221 895 l 1,9,-1
 221 1120 l 1,0,-1
508 1665 m 1,10,-1
 801 1665 l 1,11,-1
 801 1323 l 1,12,-1
 508 1323 l 1,13,-1
 508 1665 l 1,10,-1
EndSplineSet
EndChar
StartChar: j
Encoding: 106 106 77
Width: 1233
Flags: W
Fore
850 43 m 2,0,1
 850 -209 850 -209 759.5 -316.5 c 128,-1,2
 669 -424 669 -424 459 -424 c 2,3,-1
 143 -424 l 1,4,-1
 143 -199 l 1,5,-1
 377 -199 l 2,6,7
 475 -199 475 -199 516 -144 c 128,-1,8
 557 -89 557 -89 557 43 c 2,9,-1
 557 895 l 1,10,-1
 260 895 l 1,11,-1
 260 1120 l 1,12,-1
 850 1120 l 1,13,-1
 850 43 l 2,0,1
850 1323 m 1,14,-1
 557 1323 l 1,15,-1
 557 1665 l 1,16,-1
 850 1665 l 1,17,-1
 850 1323 l 1,14,-1
EndSplineSet
EndChar
StartChar: k
Encoding: 107 107 78
Width: 1233
Flags: W
Fore
174 1556 m 1,0,-1
 467 1556 l 1,1,-1
 467 739 l 1,2,-1
 819 1120 l 1,3,-1
 1174 1120 l 1,4,-1
 750 702 l 1,5,-1
 1198 0 l 1,6,-1
 874 0 l 1,7,-1
 567 524 l 1,8,-1
 467 428 l 1,9,-1
 467 0 l 1,10,-1
 174 0 l 1,11,-1
 174 1556 l 1,0,-1
EndSplineSet
EndChar
StartChar: l
Encoding: 108 108 79
Width: 1233
Flags: W
Fore
387 467 m 2,0,-1
 387 1331 l 1,1,-1
 90 1331 l 1,2,-1
 90 1556 l 1,3,-1
 680 1556 l 1,4,-1
 680 467 l 2,5,6
 680 335 680 335 721 280 c 128,-1,7
 762 225 762 225 860 225 c 2,8,-1
 1094 225 l 1,9,-1
 1094 0 l 1,10,-1
 778 0 l 2,11,12
 569 0 569 0 478 108 c 128,-1,13
 387 216 387 216 387 467 c 2,0,-1
EndSplineSet
EndChar
StartChar: m
Encoding: 109 109 80
Width: 1233
Flags: W
Fore
690 1008 m 1,0,1
 723 1079 723 1079 774 1113 c 128,-1,2
 825 1147 825 1147 899 1147 c 0,3,4
 1044 1147 1044 1147 1099.5 1047 c 128,-1,5
 1155 947 1155 947 1155 631 c 2,6,-1
 1155 0 l 1,7,-1
 915 0 l 1,8,-1
 915 719 l 2,9,10
 915 844 915 844 896 886 c 128,-1,11
 877 928 877 928 827 928 c 256,12,13
 777 928 777 928 757 885 c 128,-1,14
 737 842 737 842 737 719 c 2,15,-1
 737 0 l 1,16,-1
 500 0 l 1,17,-1
 500 719 l 2,18,19
 500 842 500 842 480 885 c 128,-1,20
 460 928 460 928 410 928 c 256,21,22
 360 928 360 928 341 886 c 128,-1,23
 322 844 322 844 322 719 c 2,24,-1
 322 0 l 1,25,-1
 82 0 l 1,26,-1
 82 1120 l 1,27,-1
 295 1120 l 1,28,-1
 295 1004 l 1,29,30
 320 1070 320 1070 375 1108.5 c 128,-1,31
 430 1147 430 1147 498 1147 c 256,32,33
 566 1147 566 1147 622 1106.5 c 128,-1,34
 678 1066 678 1066 690 1008 c 1,0,1
EndSplineSet
EndChar
StartChar: n
Encoding: 110 110 81
Width: 1233
Flags: W
Fore
1071 727 m 2,0,-1
 1071 0 l 1,1,-1
 780 0 l 1,2,-1
 780 682 l 2,3,4
 780 804 780 804 745.5 856.5 c 128,-1,5
 711 909 711 909 633 909 c 0,6,7
 554 909 554 909 508.5 838 c 128,-1,8
 463 767 463 767 463 641 c 2,9,-1
 463 0 l 1,10,-1
 172 0 l 1,11,-1
 172 1120 l 1,12,-1
 463 1120 l 1,13,-1
 463 952 l 1,14,15
 494 1045 494 1045 569 1096 c 128,-1,16
 644 1147 644 1147 750 1147 c 0,17,18
 909 1147 909 1147 990 1041.5 c 128,-1,19
 1071 936 1071 936 1071 727 c 2,0,-1
EndSplineSet
EndChar
StartChar: o
Encoding: 111 111 82
Width: 1233
Flags: W
Fore
616 909 m 0,0,1
 511 909 511 909 451 816.5 c 128,-1,2
 391 724 391 724 391 559 c 256,3,4
 391 394 391 394 451 301.5 c 128,-1,5
 511 209 511 209 616 209 c 0,6,7
 722 209 722 209 782 301.5 c 128,-1,8
 842 394 842 394 842 559 c 256,9,10
 842 724 842 724 782 816.5 c 128,-1,11
 722 909 722 909 616 909 c 0,0,1
98 559 m 256,12,13
 98 830 98 830 238.5 988.5 c 128,-1,14
 379 1147 379 1147 616 1147 c 0,15,16
 854 1147 854 1147 994.5 988.5 c 128,-1,17
 1135 830 1135 830 1135 559 c 256,18,19
 1135 288 1135 288 994.5 129.5 c 128,-1,20
 854 -29 854 -29 616 -29 c 0,21,22
 379 -29 379 -29 238.5 129.5 c 128,-1,23
 98 288 98 288 98 559 c 256,12,13
EndSplineSet
EndChar
StartChar: p
Encoding: 112 112 83
Width: 1233
Flags: W
Fore
442 158 m 1,0,-1
 442 -426 l 1,1,-1
 150 -426 l 1,2,-1
 150 1120 l 1,3,-1
 442 1120 l 1,4,-1
 442 952 l 1,5,6
 488 1049 488 1049 563 1098 c 128,-1,7
 638 1147 638 1147 739 1147 c 0,8,9
 931 1147 931 1147 1037 993 c 128,-1,10
 1143 839 1143 839 1143 559 c 0,11,12
 1143 275 1143 275 1035.5 123 c 128,-1,13
 928 -29 928 -29 729 -29 c 0,14,15
 639 -29 639 -29 567.5 17.5 c 128,-1,16
 496 64 496 64 442 158 c 1,0,-1
850 561 m 256,17,18
 850 723 850 723 796 815 c 128,-1,19
 742 907 742 907 647 907 c 256,20,21
 552 907 552 907 497 815 c 128,-1,22
 442 723 442 723 442 561 c 256,23,24
 442 399 442 399 497 307 c 128,-1,25
 552 215 552 215 647 215 c 256,26,27
 742 215 742 215 796 307 c 128,-1,28
 850 399 850 399 850 561 c 256,17,18
EndSplineSet
EndChar
StartChar: q
Encoding: 113 113 84
Width: 1233
Flags: W
Fore
383 561 m 256,0,1
 383 399 383 399 437 307 c 128,-1,2
 491 215 491 215 586 215 c 256,3,4
 681 215 681 215 736 307 c 128,-1,5
 791 399 791 399 791 561 c 256,6,7
 791 723 791 723 736 815 c 128,-1,8
 681 907 681 907 586 907 c 256,9,10
 491 907 491 907 437 815 c 128,-1,11
 383 723 383 723 383 561 c 256,0,1
791 158 m 1,12,13
 737 64 737 64 665.5 17.5 c 128,-1,14
 594 -29 594 -29 504 -29 c 0,15,16
 305 -29 305 -29 197.5 123 c 128,-1,17
 90 275 90 275 90 559 c 0,18,19
 90 839 90 839 196 993 c 128,-1,20
 302 1147 302 1147 494 1147 c 0,21,22
 595 1147 595 1147 669.5 1098 c 128,-1,23
 744 1049 744 1049 791 952 c 1,24,-1
 791 1120 l 1,25,-1
 1083 1120 l 1,26,-1
 1083 -426 l 1,27,-1
 791 -426 l 1,28,-1
 791 158 l 1,12,13
EndSplineSet
EndChar
StartChar: r
Encoding: 114 114 85
Width: 1233
Flags: W
Fore
1151 811 m 1,0,1
 1103 855 1103 855 1038.5 877 c 128,-1,2
 974 899 974 899 897 899 c 0,3,4
 804 899 804 899 734.5 866.5 c 128,-1,5
 665 834 665 834 627 772 c 0,6,7
 603 734 603 734 593.5 680 c 128,-1,8
 584 626 584 626 584 516 c 2,9,-1
 584 0 l 1,10,-1
 291 0 l 1,11,-1
 291 1120 l 1,12,-1
 584 1120 l 1,13,-1
 584 946 l 1,14,15
 627 1042 627 1042 716 1094.5 c 128,-1,16
 805 1147 805 1147 924 1147 c 0,17,18
 984 1147 984 1147 1041.5 1132.5 c 128,-1,19
 1099 1118 1099 1118 1151 1090 c 1,20,-1
 1151 811 l 1,0,1
EndSplineSet
EndChar
StartChar: s
Encoding: 115 115 86
Width: 1233
Flags: W
Fore
991 1085 m 1,0,-1
 991 829 l 1,1,2
 910 881 910 881 822.5 907.5 c 128,-1,3
 735 934 735 934 647 934 c 0,4,5
 549 934 549 934 499 905.5 c 128,-1,6
 449 877 449 877 449 821 c 0,7,8
 449 741 449 741 663 691 c 2,9,-1
 674 688 l 1,10,-1
 758 668 l 2,11,12
 918 630 918 630 992.5 545.5 c 128,-1,13
 1067 461 1067 461 1067 317 c 0,14,15
 1067 144 1067 144 953.5 57.5 c 128,-1,16
 840 -29 840 -29 612 -29 c 0,17,18
 511 -29 511 -29 405 -11.5 c 128,-1,19
 299 6 299 6 190 41 c 1,20,-1
 190 297 l 1,21,22
 287 242 287 242 387.5 213 c 128,-1,23
 488 184 488 184 582 184 c 0,24,25
 685 184 685 184 738 214 c 128,-1,26
 791 244 791 244 791 301 c 0,27,28
 791 357 791 357 753.5 387 c 128,-1,29
 716 417 716 417 575 451 c 2,30,-1
 494 469 l 2,31,32
 326 507 326 507 249 588 c 128,-1,33
 172 669 172 669 172 805 c 0,34,35
 172 967 172 967 289 1057 c 128,-1,36
 406 1147 406 1147 618 1147 c 0,37,38
 713 1147 713 1147 807.5 1131.5 c 128,-1,39
 902 1116 902 1116 991 1085 c 1,0,-1
EndSplineSet
EndChar
StartChar: t
Encoding: 116 116 87
Width: 1233
Flags: W
Fore
690 1438 m 1,0,-1
 690 1120 l 1,1,-1
 1073 1120 l 1,2,-1
 1073 895 l 1,3,-1
 690 895 l 1,4,-1
 690 365 l 2,5,6
 690 290 690 290 726.5 257.5 c 128,-1,7
 763 225 763 225 848 225 c 2,8,-1
 1073 225 l 1,9,-1
 1073 0 l 1,10,-1
 827 0 l 2,11,12
 575 0 575 0 486 80.5 c 128,-1,13
 397 161 397 161 397 379 c 2,14,-1
 397 895 l 1,15,-1
 111 895 l 1,16,-1
 111 1120 l 1,17,-1
 397 1120 l 1,18,-1
 397 1438 l 1,19,-1
 690 1438 l 1,0,-1
EndSplineSet
EndChar
StartChar: u
Encoding: 117 117 88
Width: 1233
Flags: W
Fore
160 391 m 2,0,-1
 160 1120 l 1,1,-1
 453 1120 l 1,2,-1
 453 436 l 2,3,4
 453 315 453 315 487 263 c 128,-1,5
 521 211 521 211 600 211 c 256,6,7
 679 211 679 211 723.5 281 c 128,-1,8
 768 351 768 351 768 477 c 2,9,-1
 768 1120 l 1,10,-1
 1061 1120 l 1,11,-1
 1061 0 l 1,12,-1
 768 0 l 1,13,-1
 768 166 l 1,14,15
 737 73 737 73 662.5 22 c 128,-1,16
 588 -29 588 -29 483 -29 c 0,17,18
 323 -29 323 -29 241.5 77 c 128,-1,19
 160 183 160 183 160 391 c 2,0,-1
EndSplineSet
EndChar
StartChar: v
Encoding: 118 118 89
Width: 1233
Flags: W
Fore
1153 1120 m 1,0,-1
 797 0 l 1,1,-1
 436 0 l 1,2,-1
 80 1120 l 1,3,-1
 377 1120 l 1,4,-1
 616 246 l 1,5,-1
 856 1120 l 1,6,-1
 1153 1120 l 1,0,-1
EndSplineSet
EndChar
StartChar: w
Encoding: 119 119 90
Width: 1233
Flags: W
Fore
0 1120 m 1,0,-1
 244 1120 l 1,1,-1
 377 262 l 1,2,-1
 498 827 l 1,3,-1
 735 827 l 1,4,-1
 854 262 l 1,5,-1
 989 1120 l 1,6,-1
 1233 1120 l 1,7,-1
 1030 0 l 1,8,-1
 752 0 l 1,9,-1
 616 582 l 1,10,-1
 481 0 l 1,11,-1
 203 0 l 1,12,-1
 0 1120 l 1,0,-1
EndSplineSet
EndChar
StartChar: x
Encoding: 120 120 91
Width: 1233
Flags: W
Fore
1145 1120 m 1,0,-1
 768 584 l 1,1,-1
 1178 0 l 1,2,-1
 836 0 l 1,3,-1
 616 377 l 1,4,-1
 397 0 l 1,5,-1
 55 0 l 1,6,-1
 469 584 l 1,7,-1
 88 1120 l 1,8,-1
 430 1120 l 1,9,-1
 616 786 l 1,10,-1
 803 1120 l 1,11,-1
 1145 1120 l 1,0,-1
EndSplineSet
EndChar
StartChar: y
Encoding: 121 121 92
Width: 1233
Flags: W
Fore
711 -121 m 2,0,1
 652 -279 652 -279 569.5 -351.5 c 128,-1,2
 487 -424 487 -424 369 -424 c 2,3,-1
 127 -424 l 1,4,-1
 127 -201 l 1,5,-1
 246 -201 l 2,6,7
 336 -201 336 -201 378 -170.5 c 128,-1,8
 420 -140 420 -140 463 -29 c 2,9,-1
 485 31 l 1,10,-1
 59 1120 l 1,11,-1
 367 1120 l 1,12,-1
 623 393 l 1,13,-1
 868 1120 l 1,14,-1
 1176 1120 l 1,15,-1
 711 -121 l 2,0,1
EndSplineSet
EndChar
StartChar: z
Encoding: 122 122 93
Width: 1233
Flags: W
Fore
186 1120 m 1,0,-1
 1081 1120 l 1,1,-1
 1081 891 l 1,2,-1
 492 219 l 1,3,-1
 1081 219 l 1,4,-1
 1081 0 l 1,5,-1
 162 0 l 1,6,-1
 162 229 l 1,7,-1
 752 901 l 1,8,-1
 186 901 l 1,9,-1
 186 1120 l 1,0,-1
EndSplineSet
EndChar
StartChar: braceleft
Encoding: 123 123 94
Width: 1110
VWidth: 2220
Flags: W
HStem: -555 46.62<869.13 916.86> 526.14 53.28 1620.6 44.4<792.54 916.86>
VStem: 479.52 148.74<-184.26 124.32 985.68 1249.86>
Fore
628.26 1249.86 m 2,0,-1
 628.26 850.26 l 2,1,2
 628.26 830.552 628.26 830.552 627.644 817.834 c 0,3,4
 627.029 805.117 627.029 805.117 622.002 778.203 c 0,5,6
 616.974 751.289 616.974 751.289 607.787 731.261 c 0,7,8
 598.601 711.233 598.601 711.233 579.233 683.785 c 0,9,10
 559.864 656.338 559.864 656.338 532.942 635.212 c 0,11,12
 506.019 614.086 506.019 614.086 463.145 592.319 c 0,13,14
 420.271 570.551 420.271 570.551 366.3 555 c 1,3,4
 591.28 491.544 591.28 491.544 623.82 326.34 c 0,5,6
 628.26 304.14 628.26 304.14 628.26 124.32 c 2,7,-1
 628.26 -208.68 l 2,8,9
 628.26 -268.065 628.26 -268.065 629.135 -282.652 c 0,10,11
 630.01 -297.238 630.01 -297.238 634.92 -315.24 c 0,10,11
 642.919 -347.234 642.919 -347.234 662.637 -377.596 c 0,12,13
 682.355 -407.958 682.355 -407.958 714.804 -436.138 c 0,14,15
 747.253 -464.318 747.253 -464.318 798.473 -483.254 c 0,16,17
 849.692 -502.19 849.692 -502.19 912.42 -506.16 c 0,12,13
 927.48 -507.666 927.48 -507.666 932.465 -508.619 c 0,14,15
 937.45 -509.571 937.45 -509.571 942.695 -514.801 c 0,16,17
 947.94 -520.031 947.94 -520.031 947.94 -530.58 c 0,14,15
 947.94 -542.173 947.94 -542.173 941.527 -547.723 c 0,16,17
 935.113 -553.273 935.113 -553.273 927.713 -554.137 c 0,18,19
 920.313 -555 920.313 -555 903.54 -555 c 0,16,17
 835.54 -555 835.54 -555 747.135 -535.066 c 0,18,19
 658.731 -515.131 658.731 -515.131 594.96 -470.64 c 0,18,19
 570.521 -453.251 570.521 -453.251 552.228 -435.004 c 0,20,21
 533.934 -416.758 533.934 -416.758 521.579 -401.133 c 0,22,23
 509.224 -385.507 509.224 -385.507 501.07 -363.317 c 0,24,25
 492.917 -341.128 492.917 -341.128 488.596 -325.834 c 0,26,27
 484.275 -310.54 484.275 -310.54 482.223 -282.31 c 0,28,29
 480.171 -254.08 480.171 -254.08 479.845 -237.021 c 0,30,31
 479.52 -219.962 479.52 -219.962 479.52 -184.26 c 2,20,-1
 479.52 255.3 l 2,21,22
 479.52 318.596 479.52 318.596 458.65 368.236 c 0,23,24
 437.781 417.876 437.781 417.876 407.469 446.486 c 0,25,26
 377.157 475.097 377.157 475.097 336.142 494.438 c 0,27,28
 295.127 513.78 295.127 513.78 262.051 521.007 c 0,29,30
 228.974 528.235 228.974 528.235 195.36 530.58 c 0,23,24
 180.301 532.086 180.301 532.086 175.315 533.039 c 0,25,26
 170.33 533.991 170.33 533.991 165.085 539.221 c 0,27,28
 159.84 544.451 159.84 544.451 159.84 555 c 0,25,26
 159.84 569.985 159.84 569.985 168.095 574.703 c 0,27,28
 176.351 579.42 176.351 579.42 190.92 579.42 c 0,27,28
 240.04 582.539 240.04 582.539 280.125 593.422 c 0,29,30
 320.21 604.304 320.21 604.304 348.655 622.028 c 0,31,32
 377.1 639.752 377.1 639.752 390.778 650.864 c 0,33,34
 404.456 661.976 404.456 661.976 421.8 679.32 c 0,29,30
 463.257 723.967 463.257 723.967 471.388 772.129 c 0,31,32
 479.52 820.29 479.52 820.29 479.52 985.68 c 2,31,-1
 479.52 1391.94 l 2,32,33
 481.68 1469.72 481.68 1469.72 541.229 1532.93 c 0,34,35
 600.778 1596.14 600.778 1596.14 696.791 1630.57 c 0,36,37
 792.803 1665 792.803 1665 903.54 1665 c 0,34,35
 920.313 1665 920.313 1665 927.713 1664.14 c 0,36,37
 935.113 1663.27 935.113 1663.27 941.527 1657.72 c 0,38,39
 947.94 1652.17 947.94 1652.17 947.94 1640.58 c 0,36,37
 947.94 1620.16 947.94 1620.16 927.96 1616.16 c 0,38,39
 872.942 1613.02 872.942 1613.02 831.15 1603.2 c 0,40,41
 789.358 1593.38 789.358 1593.38 759.826 1575.63 c 0,42,43
 730.294 1557.89 730.294 1557.89 716.682 1546.73 c 0,44,45
 703.07 1535.57 703.07 1535.57 681.54 1514.04 c 0,40,41
 644.106 1475.05 644.106 1475.05 636.183 1428.5 c 0,42,43
 628.26 1381.95 628.26 1381.95 628.26 1249.86 c 2,0,-1
EndSplineSet
EndChar
StartChar: bar
Encoding: 124 124 95
Width: 614
VWidth: 2220
Flags: W
HStem: -555 46.62<286.38 330.78> 1620.6 44.4<286.38 330.78>
VStem: 264.18 88.8<-481.74 1591.74>
Fore
352.98 1591.74 m 2,0,-1
 352.98 -481.74 l 2,1,2
 352.98 -497.974 352.98 -497.974 352.131 -507.062 c 0,3,4
 351.282 -516.15 351.282 -516.15 347.586 -529.262 c 0,5,6
 343.889 -542.374 343.889 -542.374 334.094 -548.687 c 0,7,8
 324.298 -555 324.298 -555 308.58 -555 c 0,3,4
 292.862 -555 292.862 -555 283.066 -548.687 c 0,5,6
 273.271 -542.374 273.271 -542.374 269.574 -529.262 c 0,7,8
 265.878 -516.15 265.878 -516.15 265.029 -507.062 c 0,9,10
 264.18 -497.974 264.18 -497.974 264.18 -481.74 c 2,5,-1
 264.18 1591.74 l 2,6,7
 264.18 1607.97 264.18 1607.97 265.029 1617.06 c 0,8,9
 265.878 1626.15 265.878 1626.15 269.574 1639.26 c 0,10,11
 273.271 1652.37 273.271 1652.37 283.066 1658.69 c 0,12,13
 292.862 1665 292.862 1665 308.58 1665 c 0,8,9
 324.298 1665 324.298 1665 334.094 1658.69 c 0,10,11
 343.889 1652.37 343.889 1652.37 347.586 1639.26 c 0,12,13
 351.282 1626.15 351.282 1626.15 352.131 1617.06 c 0,14,15
 352.98 1607.97 352.98 1607.97 352.98 1591.74 c 2,0,-1
EndSplineSet
EndChar
StartChar: braceright
Encoding: 125 125 96
Width: 1110
VWidth: 2220
Flags: W
HStem: -555 46.62<193.14 315.24> 530.58 46.62<916.86 924.63> 1618.38 46.62
VStem: 479.52 148.74<-139.86 124.32 985.68 1294.26>
Fore
628.26 1294.26 m 2,0,-1
 628.26 854.7 l 2,1,2
 628.26 791.404 628.26 791.404 649.129 741.764 c 0,3,4
 669.999 692.124 669.999 692.124 700.311 663.514 c 0,5,6
 730.623 634.903 730.623 634.903 771.638 615.562 c 0,7,8
 812.653 596.22 812.653 596.22 845.73 588.993 c 0,9,10
 878.806 581.765 878.806 581.765 912.42 579.42 c 0,3,4
 927.479 577.914 927.479 577.914 932.465 576.961 c 0,5,6
 937.451 576.009 937.451 576.009 942.695 570.779 c 0,7,8
 947.94 565.549 947.94 565.549 947.94 555 c 0,5,6
 947.94 540.015 947.94 540.015 939.685 535.297 c 0,7,8
 931.429 530.58 931.429 530.58 916.86 530.58 c 0,7,8
 867.74 527.461 867.74 527.461 827.655 516.578 c 0,9,10
 787.569 505.695 787.569 505.695 759.125 487.972 c 0,11,12
 730.68 470.248 730.68 470.248 717.002 459.135 c 0,13,14
 703.323 448.023 703.323 448.023 685.98 430.68 c 0,9,10
 644.522 386.033 644.522 386.033 636.391 337.871 c 0,11,12
 628.26 289.71 628.26 289.71 628.26 124.32 c 2,11,-1
 628.26 -281.94 l 2,12,13
 626.1 -359.718 626.1 -359.718 566.551 -422.93 c 0,14,15
 507.002 -486.142 507.002 -486.142 410.99 -520.571 c 0,16,17
 314.978 -555 314.978 -555 204.24 -555 c 0,14,15
 189.44 -555 189.44 -555 182.04 -554.186 c 0,16,17
 174.64 -553.372 174.64 -553.372 167.24 -547.674 c 0,18,19
 159.84 -541.976 159.84 -541.976 159.84 -530.58 c 0,16,17
 159.84 -510.156 159.84 -510.156 179.82 -506.16 c 0,18,19
 234.838 -503.016 234.838 -503.016 276.63 -493.199 c 0,20,21
 318.421 -483.381 318.421 -483.381 347.954 -465.633 c 0,22,23
 377.486 -447.886 377.486 -447.886 391.098 -436.727 c 0,24,25
 404.711 -425.569 404.711 -425.569 426.24 -404.04 c 0,20,21
 463.674 -365.047 463.674 -365.047 471.597 -318.498 c 0,22,23
 479.52 -271.95 479.52 -271.95 479.52 -139.86 c 2,22,-1
 479.52 259.74 l 2,23,24
 479.52 279.448 479.52 279.448 480.135 292.166 c 0,25,26
 480.75 304.883 480.75 304.883 485.778 331.797 c 0,27,28
 490.805 358.711 490.805 358.711 499.992 378.739 c 0,29,30
 509.179 398.767 509.179 398.767 528.547 426.215 c 0,31,32
 547.915 453.662 547.915 453.662 574.838 474.788 c 0,33,34
 601.761 495.914 601.761 495.914 644.635 517.681 c 0,35,36
 687.509 539.449 687.509 539.449 741.48 555 c 1,25,26
 516.501 618.456 516.501 618.456 483.96 783.66 c 0,27,28
 479.52 805.86 479.52 805.86 479.52 985.68 c 2,29,-1
 479.52 1318.68 l 2,30,31
 479.52 1378.06 479.52 1378.06 478.644 1392.65 c 0,32,33
 477.769 1407.24 477.769 1407.24 472.86 1425.24 c 0,32,33
 464.862 1457.23 464.862 1457.23 445.143 1487.6 c 0,34,35
 425.425 1517.96 425.425 1517.96 392.976 1546.14 c 0,36,37
 360.527 1574.32 360.527 1574.32 309.307 1593.25 c 0,38,39
 258.088 1612.19 258.088 1612.19 195.36 1616.16 c 0,34,35
 180.301 1617.67 180.301 1617.67 175.315 1618.62 c 0,36,37
 170.33 1619.57 170.33 1619.57 165.085 1624.8 c 0,38,39
 159.84 1630.03 159.84 1630.03 159.84 1640.58 c 0,36,37
 159.84 1651.98 159.84 1651.98 167.24 1657.67 c 0,38,39
 174.64 1663.37 174.64 1663.37 182.04 1664.19 c 0,40,41
 189.44 1665 189.44 1665 204.24 1665 c 0,38,39
 271.466 1665 271.466 1665 359.991 1644.5 c 0,40,41
 448.516 1624.01 448.516 1624.01 512.82 1580.64 c 0,40,41
 537.259 1563.25 537.259 1563.25 555.552 1545 c 0,42,43
 573.846 1526.76 573.846 1526.76 586.201 1511.13 c 0,44,45
 598.556 1495.51 598.556 1495.51 606.709 1473.32 c 0,46,47
 614.862 1451.13 614.862 1451.13 619.183 1435.83 c 0,48,49
 623.505 1420.54 623.505 1420.54 625.557 1392.31 c 0,50,51
 627.608 1364.08 627.608 1364.08 627.934 1347.02 c 0,52,53
 628.26 1329.96 628.26 1329.96 628.26 1294.26 c 2,0,-1
EndSplineSet
EndChar
StartChar: asciitilde
Encoding: 126 126 97
Width: 1110
VWidth: 2220
Flags: W
HStem: 1438.56 44.4G<381.84 442.89>
Fore
888 1482.96 m 1,0,-1
 923.52 1449.66 l 1,1,2
 892.034 1415.09 892.034 1415.09 883.442 1405.72 c 0,3,4
 874.849 1396.36 874.849 1396.36 850.885 1370.96 c 0,5,6
 826.921 1345.57 826.921 1345.57 819.417 1339.43 c 0,7,8
 811.914 1333.3 811.914 1333.3 793.547 1317.26 c 0,9,10
 775.18 1301.23 775.18 1301.23 766.111 1297.7 c 0,11,12
 757.043 1294.18 757.043 1294.18 741.62 1286.88 c 0,13,14
 726.196 1279.57 726.196 1279.57 712.909 1278.04 c 0,15,16
 699.622 1276.5 699.622 1276.5 683.76 1276.5 c 0,3,4
 632.283 1276.5 632.283 1276.5 546.12 1327.56 c 0,5,6
 517.86 1344.18 517.86 1344.18 501.548 1352.99 c 0,7,8
 485.237 1361.8 485.237 1361.8 455.272 1372.43 c 0,9,10
 425.306 1383.06 425.306 1383.06 401.82 1383.06 c 0,7,8
 368.192 1383.06 368.192 1383.06 332.668 1366.89 c 0,9,10
 297.144 1350.72 297.144 1350.72 273.67 1330.44 c 0,11,12
 250.196 1310.16 250.196 1310.16 234.988 1294.26 c 0,13,14
 219.78 1278.35 219.78 1278.35 219.78 1276.5 c 1,9,-1
 184.26 1309.8 l 1,10,11
 215.745 1344.37 215.745 1344.37 224.338 1353.74 c 0,12,13
 232.931 1363.1 232.931 1363.1 256.895 1388.5 c 0,14,15
 280.859 1413.89 280.859 1413.89 288.363 1420.03 c 0,16,17
 295.867 1426.16 295.867 1426.16 314.233 1442.2 c 0,18,19
 332.6 1458.23 332.6 1458.23 341.669 1461.76 c 0,20,21
 350.737 1465.28 350.737 1465.28 366.16 1472.58 c 0,22,23
 381.583 1479.89 381.583 1479.89 394.87 1481.42 c 0,24,25
 408.157 1482.96 408.157 1482.96 424.02 1482.96 c 0,12,13
 475.495 1482.96 475.495 1482.96 561.66 1431.9 c 0,14,15
 589.914 1415.28 589.914 1415.28 606.23 1406.47 c 0,16,17
 622.546 1397.66 622.546 1397.66 652.51 1387.03 c 0,18,19
 682.474 1376.4 682.474 1376.4 705.96 1376.4 c 0,16,17
 739.588 1376.4 739.588 1376.4 775.112 1392.57 c 0,18,19
 810.636 1408.74 810.636 1408.74 834.11 1429.02 c 0,20,21
 857.584 1449.3 857.584 1449.3 872.792 1465.2 c 0,22,23
 888 1481.11 888 1481.11 888 1482.96 c 1,0,-1
EndSplineSet
EndChar
StartChar: Aring
Encoding: 197 197 99
Width: 1233
Flags: W
Fore
815 1421 m 1,0,-1
 1200 0 l 1,1,-1
 905 0 l 1,2,-1
 813 369 l 1,3,-1
 418 369 l 1,4,-1
 328 0 l 1,5,-1
 33 0 l 1,6,-1
 418 1421 l 1,7,8
 374 1458 374 1458 353 1506.5 c 128,-1,9
 332 1555 332 1555 332 1616 c 0,10,11
 332 1733 332 1733 415.5 1817 c 128,-1,12
 499 1901 499 1901 616 1901 c 0,13,14
 734 1901 734 1901 817.5 1817 c 128,-1,15
 901 1733 901 1733 901 1616 c 0,16,17
 901 1554 901 1554 880 1506.5 c 128,-1,18
 859 1459 859 1459 815 1421 c 1,0,-1
485 1616 m 256,19,20
 485 1562 485 1562 524 1523.5 c 128,-1,21
 563 1485 563 1485 616 1485 c 0,22,23
 671 1485 671 1485 709.5 1523.5 c 128,-1,24
 748 1562 748 1562 748 1616 c 256,25,26
 748 1670 748 1670 709 1708.5 c 128,-1,27
 670 1747 670 1747 616 1747 c 0,28,29
 563 1747 563 1747 524 1708.5 c 128,-1,30
 485 1670 485 1670 485 1616 c 256,19,20
616 1223 m 1,31,-1
 477 612 l 1,32,-1
 756 612 l 1,33,-1
 616 1223 l 1,31,-1
EndSplineSet
EndChar
StartChar: oacute
Encoding: 243 243 121
Width: 1233
Flags: W
Fore
752 1561 m 1,0,-1
 1034 1561 l 1,1,-1
 666 1262 l 1,2,-1
 469 1262 l 1,3,-1
 752 1561 l 1,0,-1
616 909 m 0,4,5
 511 909 511 909 451 816.5 c 128,-1,6
 391 724 391 724 391 559 c 256,7,8
 391 394 391 394 451 301.5 c 128,-1,9
 511 209 511 209 616 209 c 0,10,11
 722 209 722 209 782 301.5 c 128,-1,12
 842 394 842 394 842 559 c 256,13,14
 842 724 842 724 782 816.5 c 128,-1,15
 722 909 722 909 616 909 c 0,4,5
98 559 m 256,16,17
 98 830 98 830 238.5 988.5 c 128,-1,18
 379 1147 379 1147 616 1147 c 0,19,20
 854 1147 854 1147 994.5 988.5 c 128,-1,21
 1135 830 1135 830 1135 559 c 256,22,23
 1135 288 1135 288 994.5 129.5 c 128,-1,24
 854 -29 854 -29 616 -29 c 0,25,26
 379 -29 379 -29 238.5 129.5 c 128,-1,27
 98 288 98 288 98 559 c 256,16,17
EndSplineSet
EndChar
StartChar: ograve
Encoding: 242 242 122
Width: 1233
Flags: W
Fore
481 1561 m 1,0,-1
 764 1262 l 1,1,-1
 567 1262 l 1,2,-1
 199 1561 l 1,3,-1
 481 1561 l 1,0,-1
616 909 m 0,4,5
 511 909 511 909 451 816.5 c 128,-1,6
 391 724 391 724 391 559 c 256,7,8
 391 394 391 394 451 301.5 c 128,-1,9
 511 209 511 209 616 209 c 0,10,11
 722 209 722 209 782 301.5 c 128,-1,12
 842 394 842 394 842 559 c 256,13,14
 842 724 842 724 782 816.5 c 128,-1,15
 722 909 722 909 616 909 c 0,4,5
98 559 m 256,16,17
 98 830 98 830 238.5 988.5 c 128,-1,18
 379 1147 379 1147 616 1147 c 0,19,20
 854 1147 854 1147 994.5 988.5 c 128,-1,21
 1135 830 1135 830 1135 559 c 256,22,23
 1135 288 1135 288 994.5 129.5 c 128,-1,24
 854 -29 854 -29 616 -29 c 0,25,26
 379 -29 379 -29 238.5 129.5 c 128,-1,27
 98 288 98 288 98 559 c 256,16,17
EndSplineSet
EndChar
StartChar: ocircumflex
Encoding: 244 244 123
Width: 1233
Flags: W
Fore
496 1561 m 1,0,-1
 737 1561 l 1,1,-1
 993 1262 l 1,2,-1
 815 1262 l 1,3,-1
 616 1409 l 1,4,-1
 418 1262 l 1,5,-1
 240 1262 l 1,6,-1
 496 1561 l 1,0,-1
616 909 m 0,7,8
 511 909 511 909 451 816.5 c 128,-1,9
 391 724 391 724 391 559 c 256,10,11
 391 394 391 394 451 301.5 c 128,-1,12
 511 209 511 209 616 209 c 0,13,14
 722 209 722 209 782 301.5 c 128,-1,15
 842 394 842 394 842 559 c 256,16,17
 842 724 842 724 782 816.5 c 128,-1,18
 722 909 722 909 616 909 c 0,7,8
98 559 m 256,19,20
 98 830 98 830 238.5 988.5 c 128,-1,21
 379 1147 379 1147 616 1147 c 0,22,23
 854 1147 854 1147 994.5 988.5 c 128,-1,24
 1135 830 1135 830 1135 559 c 256,25,26
 1135 288 1135 288 994.5 129.5 c 128,-1,27
 854 -29 854 -29 616 -29 c 0,28,29
 379 -29 379 -29 238.5 129.5 c 128,-1,30
 98 288 98 288 98 559 c 256,19,20
EndSplineSet
EndChar
StartChar: odieresis
Encoding: 246 246 124
Width: 1233
Flags: W
Fore
301 1561 m 1,0,-1
 537 1561 l 1,1,-1
 537 1315 l 1,2,-1
 301 1315 l 1,3,-1
 301 1561 l 1,0,-1
696 1561 m 1,4,-1
 932 1561 l 1,5,-1
 932 1315 l 1,6,-1
 696 1315 l 1,7,-1
 696 1561 l 1,4,-1
616 909 m 0,8,9
 511 909 511 909 451 816.5 c 128,-1,10
 391 724 391 724 391 559 c 256,11,12
 391 394 391 394 451 301.5 c 128,-1,13
 511 209 511 209 616 209 c 0,14,15
 722 209 722 209 782 301.5 c 128,-1,16
 842 394 842 394 842 559 c 256,17,18
 842 724 842 724 782 816.5 c 128,-1,19
 722 909 722 909 616 909 c 0,8,9
98 559 m 256,20,21
 98 830 98 830 238.5 988.5 c 128,-1,22
 379 1147 379 1147 616 1147 c 0,23,24
 854 1147 854 1147 994.5 988.5 c 128,-1,25
 1135 830 1135 830 1135 559 c 256,26,27
 1135 288 1135 288 994.5 129.5 c 128,-1,28
 854 -29 854 -29 616 -29 c 0,29,30
 379 -29 379 -29 238.5 129.5 c 128,-1,31
 98 288 98 288 98 559 c 256,20,21
EndSplineSet
EndChar
StartChar: otilde
Encoding: 245 245 125
Width: 1233
Flags: W
Fore
618 1331 m 2,0,-1
 563 1368 l 2,1,2
 560 1370 560 1370 551 1376 c 0,3,4
 508 1405 508 1405 481 1405 c 0,5,6
 447 1405 447 1405 427.5 1373 c 128,-1,7
 408 1341 408 1341 408 1284 c 2,8,-1
 408 1276 l 1,9,-1
 268 1276 l 1,10,-1
 268 1309 l 2,11,12
 268 1422 268 1422 322 1491.5 c 128,-1,13
 376 1561 376 1561 465 1561 c 0,14,15
 501 1561 501 1561 536.5 1547.5 c 128,-1,16
 572 1534 572 1534 614 1503 c 2,17,-1
 676 1460 l 2,18,19
 697 1445 697 1445 715.5 1437.5 c 128,-1,20
 734 1430 734 1430 750 1430 c 0,21,22
 786 1430 786 1430 805.5 1461 c 128,-1,23
 825 1492 825 1492 825 1550 c 2,24,-1
 825 1559 l 1,25,-1
 965 1559 l 1,26,27
 965 1552 965 1552 964 1541.5 c 128,-1,28
 963 1531 963 1531 963 1526 c 0,29,30
 963 1411 963 1411 909.5 1342.5 c 128,-1,31
 856 1274 856 1274 768 1274 c 0,32,33
 733 1274 733 1274 700.5 1285.5 c 128,-1,34
 668 1297 668 1297 618 1331 c 2,0,-1
616 909 m 0,35,36
 511 909 511 909 451 816.5 c 128,-1,37
 391 724 391 724 391 559 c 256,38,39
 391 394 391 394 451 301.5 c 128,-1,40
 511 209 511 209 616 209 c 0,41,42
 722 209 722 209 782 301.5 c 128,-1,43
 842 394 842 394 842 559 c 256,44,45
 842 724 842 724 782 816.5 c 128,-1,46
 722 909 722 909 616 909 c 0,35,36
98 559 m 256,47,48
 98 830 98 830 238.5 988.5 c 128,-1,49
 379 1147 379 1147 616 1147 c 0,50,51
 854 1147 854 1147 994.5 988.5 c 128,-1,52
 1135 830 1135 830 1135 559 c 256,53,54
 1135 288 1135 288 994.5 129.5 c 128,-1,55
 854 -29 854 -29 616 -29 c 0,56,57
 379 -29 379 -29 238.5 129.5 c 128,-1,58
 98 288 98 288 98 559 c 256,47,48
EndSplineSet
EndChar
StartChar: dagger
Encoding: 8224 8224 130
Width: 1134
VWidth: 2220
Flags: W
HStem: 861.36 246.42<268.62 286.38 865.8 890.22> 1514.04 44.4G<543.9 588.3>
VStem: 444 246.42<311.135 599.4 1427.46 1451.88>
Fore
599.4 950.16 m 1,0,1
 606.535 895.455 606.535 895.455 639.36 796.98 c 0,2,3
 675.467 687.09 675.467 687.09 682.943 641.58 c 0,4,5
 690.42 596.07 690.42 596.07 690.42 512.82 c 0,4,5
 690.42 303.667 690.42 303.667 672.358 63.3754 c 0,6,7
 654.296 -176.916 654.296 -176.916 640.402 -289.075 c 0,8,9
 626.508 -401.234 626.508 -401.234 619.38 -444 c 0,6,7
 616.26 -455.439 616.26 -455.439 607.192 -461.105 c 0,8,9
 598.123 -466.771 598.123 -466.771 590.128 -467.595 c 0,10,11
 582.133 -468.42 582.133 -468.42 566.1 -468.42 c 0,8,9
 553.027 -468.42 553.027 -468.42 546.511 -467.893 c 0,10,11
 539.996 -467.367 539.996 -467.367 532.409 -463.766 c 0,12,13
 524.823 -460.166 524.823 -460.166 521.7 -452.88 c 1,10,11
 513.709 -442.226 513.709 -442.226 501.72 -346.32 c 0,12,13
 444 115.444 444 115.444 444 512.82 c 0,14,15
 444 592.74 444 592.74 451.025 638.569 c 0,16,17
 458.05 684.399 458.05 684.399 490.62 783.66 c 0,16,17
 528.567 892.077 528.567 892.077 535.02 950.16 c 1,18,19
 485.508 938.734 485.508 938.734 412.92 903.54 c 0,20,21
 328.561 861.36 328.561 861.36 268.62 861.36 c 0,22,23
 209.817 861.36 209.817 861.36 175.949 897.868 c 0,24,25
 142.08 934.375 142.08 934.375 142.08 985.68 c 0,24,25
 142.08 1033.62 142.08 1033.62 173.927 1070.7 c 0,26,27
 205.774 1107.78 205.774 1107.78 268.62 1107.78 c 0,26,27
 296.479 1107.78 296.479 1107.78 330.917 1097.87 c 0,28,29
 365.356 1087.97 365.356 1087.97 388.363 1077.73 c 0,30,31
 411.369 1067.49 411.369 1067.49 446.22 1050.06 c 0,28,29
 494.891 1027.01 494.891 1027.01 535.02 1018.98 c 1,30,31
 528.399 1078.57 528.399 1078.57 490.62 1203.24 c 0,32,33
 444 1352.42 444 1352.42 444 1427.46 c 0,34,35
 444 1463.67 444 1463.67 456.237 1490.66 c 0,36,37
 468.473 1517.65 468.473 1517.65 488.166 1531.59 c 0,38,39
 507.858 1545.54 507.858 1545.54 527.971 1551.99 c 0,40,41
 548.083 1558.44 548.083 1558.44 568.32 1558.44 c 0,36,37
 586.048 1558.44 586.048 1558.44 604.714 1552.85 c 0,38,39
 623.379 1547.26 623.379 1547.26 643.898 1534.16 c 0,40,41
 664.417 1521.07 664.417 1521.07 677.418 1493.4 c 0,42,43
 690.42 1465.72 690.42 1465.72 690.42 1427.46 c 0,38,39
 690.42 1393.22 690.42 1393.22 682.427 1349.45 c 0,40,41
 674.433 1305.68 674.433 1305.68 665.854 1274.59 c 0,42,43
 657.274 1243.5 657.274 1243.5 641.58 1192.14 c 0,40,41
 606.761 1087.69 606.761 1087.69 599.4 1018.98 c 1,42,43
 648.909 1030.4 648.909 1030.4 721.5 1065.6 c 0,44,45
 805.861 1107.78 805.861 1107.78 865.8 1107.78 c 0,46,47
 924.603 1107.78 924.603 1107.78 958.472 1071.27 c 0,48,49
 992.34 1034.77 992.34 1034.77 992.34 983.46 c 0,48,49
 992.34 935.525 992.34 935.525 960.493 898.443 c 0,50,51
 928.646 861.36 928.646 861.36 865.8 861.36 c 0,50,51
 837.941 861.36 837.941 861.36 803.502 871.267 c 0,52,53
 769.064 881.173 769.064 881.173 746.058 891.414 c 0,54,55
 723.053 901.654 723.053 901.654 688.2 919.08 c 0,52,53
 639.531 942.133 639.531 942.133 599.4 950.16 c 1,0,1
EndSplineSet
EndChar
StartChar: degree
Encoding: 176 176 131
Width: 888
VWidth: 2220
Flags: W
HStem: 843.6 126.54<444 468.42> 1396.38 126.54<428.46 468.42>
VStem: 111 124.32<1161.06 1201.02> 650.46 126.54<1183.26 1201.02>
Fore
450.66 1522.92 m 0,0,1
 588.711 1522.92 588.711 1522.92 682.856 1424.76 c 0,2,3
 777 1326.6 777 1326.6 777 1183.26 c 0,2,3
 777 1040.19 777 1040.19 680.491 941.896 c 0,4,5
 583.981 843.6 583.981 843.6 444 843.6 c 0,4,5
 352.232 843.6 352.232 843.6 275.648 888.935 c 0,6,7
 199.064 934.271 199.064 934.271 155.032 1012.86 c 0,8,9
 111 1091.46 111 1091.46 111 1185.48 c 0,6,7
 111 1278.27 111 1278.27 156.254 1355.94 c 0,8,9
 201.507 1433.6 201.507 1433.6 279.607 1478.26 c 0,10,11
 357.706 1522.92 357.706 1522.92 450.66 1522.92 c 0,0,1
448.44 1396.38 m 0,8,9
 358.913 1396.38 358.913 1396.38 297.117 1334.14 c 0,10,11
 235.32 1271.89 235.32 1271.89 235.32 1183.26 c 0,10,11
 235.32 1095.36 235.32 1095.36 297.031 1032.75 c 0,12,13
 358.742 970.14 358.742 970.14 444 970.14 c 0,12,13
 530.701 970.14 530.701 970.14 590.58 1031.81 c 0,14,15
 650.46 1093.47 650.46 1093.47 650.46 1183.26 c 0,14,15
 650.46 1271.41 650.46 1271.41 591.121 1333.89 c 0,16,17
 531.782 1396.38 531.782 1396.38 448.44 1396.38 c 0,8,9
EndSplineSet
EndChar
StartChar: cent
Encoding: 162 162 132
Width: 1233
Flags: W
Fore
1036 1077 m 1,0,-1
 1036 809 l 1,1,2
 980 851 980 851 920 875.5 c 128,-1,3
 860 900 860 900 797 907 c 1,4,-1
 797 215 l 1,5,6
 861 220 861 220 920.5 244 c 128,-1,7
 980 268 980 268 1036 311 c 1,8,-1
 1036 43 l 1,9,10
 984 14 984 14 924 -3 c 128,-1,11
 864 -20 864 -20 797 -25 c 1,12,-1
 797 -313 l 1,13,-1
 655 -313 l 1,14,-1
 655 -25 l 1,15,16
 420 -3 420 -3 283.5 154 c 128,-1,17
 147 311 147 311 147 561 c 0,18,19
 147 816 147 816 283.5 972.5 c 128,-1,20
 420 1129 420 1129 655 1145 c 1,21,-1
 655 1432 l 1,22,-1
 797 1432 l 1,23,-1
 797 1145 l 1,24,25
 858 1140 858 1140 916.5 1123.5 c 128,-1,26
 975 1107 975 1107 1036 1077 c 1,0,-1
655 215 m 1,27,-1
 655 907 l 1,28,29
 541 893 541 893 479.5 803.5 c 128,-1,30
 418 714 418 714 418 561 c 0,31,32
 418 406 418 406 481 313.5 c 128,-1,33
 544 221 544 221 655 215 c 1,27,-1
EndSplineSet
EndChar
StartChar: sterling
Encoding: 163 163 133
Width: 1233
Flags: W
Fore
1102 1462 m 1,0,-1
 1102 1188 l 1,1,2
 1045 1229 1045 1229 980 1250.5 c 128,-1,3
 915 1272 915 1272 846 1272 c 0,4,5
 740 1272 740 1272 690.5 1205.5 c 128,-1,6
 641 1139 641 1139 641 995 c 2,7,-1
 641 819 l 1,8,-1
 977 819 l 1,9,-1
 977 594 l 1,10,-1
 641 594 l 1,11,-1
 641 260 l 1,12,-1
 1122 260 l 1,13,-1
 1122 0 l 1,14,-1
 119 0 l 1,15,-1
 119 260 l 1,16,-1
 354 260 l 1,17,-1
 354 594 l 1,18,-1
 156 594 l 1,19,-1
 156 819 l 1,20,-1
 354 819 l 1,21,-1
 354 1016 l 2,22,23
 354 1272 354 1272 466.5 1396 c 128,-1,24
 579 1520 579 1520 811 1520 c 0,25,26
 894 1520 894 1520 965 1505.5 c 128,-1,27
 1036 1491 1036 1491 1102 1462 c 1,0,-1
EndSplineSet
EndChar
StartChar: section
Encoding: 167 167 134
Width: 1233
Flags: W
Fore
518 856 m 1,0,1
 463 820 463 820 438.5 785.5 c 128,-1,2
 414 751 414 751 414 711 c 0,3,4
 414 657 414 657 462.5 613 c 128,-1,5
 511 569 511 569 711 473 c 1,6,7
 766 509 766 509 790.5 543.5 c 128,-1,8
 815 578 815 578 815 621 c 0,9,10
 815 702 815 702 550 840 c 2,11,-1
 518 856 l 1,0,1
930 1460 m 1,12,-1
 930 1235 l 1,13,14
 845 1265 845 1265 779 1279.5 c 128,-1,15
 713 1294 713 1294 659 1294 c 0,16,17
 583 1294 583 1294 540.5 1265 c 128,-1,18
 498 1236 498 1236 498 1184 c 0,19,20
 498 1109 498 1109 701 1004 c 0,21,22
 720 994 720 994 729 989 c 0,23,24
 943 879 943 879 1002 808.5 c 128,-1,25
 1061 738 1061 738 1061 637 c 0,26,27
 1061 548 1061 548 1013.5 484 c 128,-1,28
 966 420 966 420 864 373 c 1,29,30
 934 323 934 323 966.5 261.5 c 128,-1,31
 999 200 999 200 999 119 c 0,32,33
 999 -28 999 -28 894.5 -111.5 c 128,-1,34
 790 -195 790 -195 604 -195 c 0,35,36
 515 -195 515 -195 429 -180.5 c 128,-1,37
 343 -166 343 -166 258 -137 c 1,38,-1
 258 92 l 1,39,40
 343 62 343 62 424 46.5 c 128,-1,41
 505 31 505 31 578 31 c 0,42,43
 655 31 655 31 696 59.5 c 128,-1,44
 737 88 737 88 737 141 c 0,45,46
 737 211 737 211 523 326 c 2,47,-1
 512 332 l 1,48,-1
 486 346 l 2,49,50
 170 516 170 516 170 688 c 0,51,52
 170 782 170 782 222 851.5 c 128,-1,53
 274 921 274 921 371 954 c 1,54,55
 300 1004 300 1004 268 1064 c 128,-1,56
 236 1124 236 1124 236 1206 c 0,57,58
 236 1348 236 1348 340 1434 c 128,-1,59
 444 1520 444 1520 616 1520 c 0,60,61
 690 1520 690 1520 768.5 1505 c 128,-1,62
 847 1490 847 1490 930 1460 c 1,12,-1
EndSplineSet
EndChar
StartChar: bullet
Encoding: 8226 8226 135
Width: 1110
VWidth: 2220
Flags: W
HStem: 941.28 44.4G<434.01 671.55>
Fore
983.46 555 m 0,0,1
 983.46 439.783 983.46 439.783 926.838 340.826 c 0,2,3
 870.217 241.869 870.217 241.869 770.721 183.095 c 0,4,5
 671.226 124.32 671.226 124.32 552.78 124.32 c 0,2,3
 466.857 124.32 466.857 124.32 387.742 158.498 c 0,4,5
 308.627 192.675 308.627 192.675 250.889 250.295 c 0,6,7
 193.151 307.914 193.151 307.914 158.736 387.782 c 0,8,9
 124.32 467.649 124.32 467.649 124.32 555 c 0,4,5
 124.32 670.217 124.32 670.217 180.942 769.174 c 0,6,7
 237.563 868.131 237.563 868.131 337.058 926.905 c 0,8,9
 436.554 985.68 436.554 985.68 555 985.68 c 0,6,7
 640.922 985.68 640.922 985.68 720.037 951.502 c 0,8,9
 799.152 917.325 799.152 917.325 856.891 859.705 c 0,10,11
 914.629 802.086 914.629 802.086 949.044 722.218 c 0,12,13
 983.46 642.351 983.46 642.351 983.46 555 c 0,0,1
EndSplineSet
EndChar
StartChar: paragraph
Encoding: 182 182 136
Width: 1233
Flags: W
Fore
545 1493 m 2,0,-1
 1065 1493 l 1,1,-1
 1065 -197 l 1,2,-1
 874 -197 l 1,3,-1
 874 1346 l 1,4,-1
 684 1346 l 1,5,-1
 684 -197 l 1,6,-1
 496 -197 l 1,7,-1
 496 649 l 1,8,9
 291 674 291 674 180.5 783.5 c 128,-1,10
 70 893 70 893 70 1071 c 0,11,12
 70 1261 70 1261 200 1377 c 128,-1,13
 330 1493 330 1493 545 1493 c 2,0,-1
EndSplineSet
EndChar
StartChar: germandbls
Encoding: 223 223 137
Width: 1233
Flags: W
Fore
1034 1059 m 1,0,1
 909 1053 909 1053 844.5 1007.5 c 128,-1,2
 780 962 780 962 780 881 c 0,3,4
 780 817 780 817 896 728 c 0,5,6
 909 718 909 718 915 713 c 2,7,-1
 1012 639 l 2,8,9
 1094 577 1094 577 1134 500.5 c 128,-1,10
 1174 424 1174 424 1174 330 c 0,11,12
 1174 163 1174 163 1062 67 c 128,-1,13
 950 -29 950 -29 756 -29 c 0,14,15
 695 -29 695 -29 633 -16.5 c 128,-1,16
 571 -4 571 -4 504 20 c 1,17,-1
 504 270 l 1,18,19
 562 239 562 239 619.5 223 c 128,-1,20
 677 207 677 207 731 207 c 0,21,22
 804 207 804 207 846.5 240.5 c 128,-1,23
 889 274 889 274 889 332 c 0,24,25
 889 404 889 404 774 492 c 0,26,27
 745 514 745 514 729 526 c 2,28,-1
 643 594 l 2,29,30
 584 642 584 642 554 705.5 c 128,-1,31
 524 769 524 769 524 846 c 0,32,33
 524 972 524 972 598 1057.5 c 128,-1,34
 672 1143 672 1143 809 1174 c 1,35,36
 800 1248 800 1248 751 1284.5 c 128,-1,37
 702 1321 702 1321 610 1321 c 0,38,39
 516 1321 516 1321 468 1270.5 c 128,-1,40
 420 1220 420 1220 420 1122 c 2,41,-1
 420 0 l 1,42,-1
 127 0 l 1,43,-1
 127 1126 l 2,44,45
 127 1337 127 1337 247.5 1446.5 c 128,-1,46
 368 1556 368 1556 598 1556 c 0,47,48
 821 1556 821 1556 927.5 1437.5 c 128,-1,49
 1034 1319 1034 1319 1034 1073 c 2,50,-1
 1034 1059 l 1,0,1
EndSplineSet
EndChar
StartChar: registered
Encoding: 174 174 138
Width: 1753
VWidth: 2220
Flags: W
HStem: -28.86 99.9<876.9 930.18> 350.76 39.96<475.08 509.119 828.06 861.36 1305.36 1334.22> 739.26 62.16<745.92 803.64> 1141.08 66.6<475.08 874.68> 1167.72 39.96<475.08 509.119> 1431.9 99.9<874.68 930.18>
VStem: 111 113.22<714.84 805.86> 592.74 153.18<497.28 739.26 497.28 1096.68> 1030.08 159.84<963.48 1003.44> 1529.58 113.22<714.84 801.42>
DStem: 362 333 434 341 502 158 539 214
Fore
1114.44 350.76 m 1,0,-1
 803.64 739.26 l 1,1,-1
 745.92 739.26 l 1,2,-1
 745.92 497.28 l 2,3,4
 745.92 433.747 745.92 433.747 766.33 414.721 c 0,5,6
 786.739 395.695 786.739 395.695 861.36 390.72 c 1,5,-1
 861.36 350.76 l 1,6,-1
 475.08 350.76 l 1,7,-1
 475.08 390.72 l 1,8,9
 551.29 395.69 551.29 395.69 572.015 414.688 c 0,10,11
 592.74 433.686 592.74 433.686 592.74 497.28 c 2,10,-1
 592.74 1063.38 l 2,11,12
 592.74 1125.37 592.74 1125.37 571.972 1144.06 c 0,13,14
 551.205 1162.76 551.205 1162.76 475.08 1167.72 c 1,13,-1
 475.08 1207.68 l 1,14,-1
 825.84 1207.68 l 2,15,16
 914.874 1207.68 914.874 1207.68 965.879 1200.28 c 0,17,18
 1016.88 1192.88 1016.88 1192.88 1058.94 1174.38 c 0,17,18
 1122.09 1146.13 1122.09 1146.13 1156 1094.83 c 0,19,20
 1189.92 1043.53 1189.92 1043.53 1189.92 976.8 c 0,19,20
 1189.92 890.161 1189.92 890.161 1129.11 831.078 c 0,21,22
 1068.3 771.995 1068.3 771.995 963.48 757.02 c 1,21,-1
 1196.58 475.08 l 2,22,23
 1238.43 426.536 1238.43 426.536 1264.79 410.284 c 0,24,25
 1291.16 394.033 1291.16 394.033 1334.22 390.72 c 1,24,-1
 1334.22 350.76 l 1,25,-1
 1114.44 350.76 l 1,0,-1
745.92 1092.24 m 2,26,-1
 745.92 803.64 l 1,27,28
 761.46 801.42 761.46 801.42 781.44 801.42 c 0,29,30
 912.964 801.42 912.964 801.42 971.522 842.209 c 0,31,32
 1030.08 882.998 1030.08 882.998 1030.08 974.58 c 0,31,32
 1030.08 1059.54 1030.08 1059.54 980.66 1100.31 c 0,33,34
 931.239 1141.08 931.239 1141.08 828.06 1141.08 c 0,33,34
 769.616 1141.08 769.616 1141.08 757.768 1134.09 c 0,35,36
 745.92 1127.11 745.92 1127.11 745.92 1092.24 c 2,26,-1
874.68 1531.8 m 0,35,36
 1033.45 1531.8 1033.45 1531.8 1175.94 1469.98 c 0,37,38
 1318.42 1408.17 1318.42 1408.17 1420.7 1302.76 c 0,39,40
 1522.98 1197.35 1522.98 1197.35 1582.89 1050.89 c 0,41,42
 1642.8 904.428 1642.8 904.428 1642.8 741.48 c 0,37,38
 1642.8 587.058 1642.8 587.058 1581.33 444.591 c 0,39,40
 1519.87 302.124 1519.87 302.124 1416.85 198.481 c 0,41,42
 1313.83 94.8376 1313.83 94.8376 1172.16 32.9886 c 0,43,44
 1030.49 -28.8604 1030.49 -28.8604 876.9 -28.8604 c 0,39,40
 721.535 -28.8604 721.535 -28.8604 579.75 33.1571 c 0,41,42
 437.964 95.1745 437.964 95.1745 335.307 199.873 c 0,43,44
 232.649 304.572 232.649 304.572 171.825 449.269 c 0,45,46
 111 593.965 111 593.965 111 752.58 c 0,41,42
 111 910.35 111 910.35 171.792 1054.61 c 0,43,44
 232.583 1198.86 232.583 1198.86 335.027 1303.35 c 0,45,46
 437.471 1407.83 437.471 1407.83 578.814 1469.82 c 0,47,48
 720.157 1531.8 720.157 1531.8 874.68 1531.8 c 0,35,36
874.68 1431.9 m 0,43,44
 743.032 1431.9 743.032 1431.9 622.656 1377.74 c 0,45,46
 502.28 1323.59 502.28 1323.59 415.02 1232.25 c 0,47,48
 327.759 1140.91 327.759 1140.91 275.989 1014.71 c 0,49,50
 224.22 888.505 224.22 888.505 224.22 750.36 c 0,45,46
 224.22 612.966 224.22 612.966 276.037 487.285 c 0,47,48
 327.854 361.604 327.854 361.604 415.284 270.429 c 0,49,50
 502.715 179.255 502.715 179.255 623.606 125.147 c 0,51,52
 744.498 71.04 744.498 71.04 876.9 71.04 c 0,47,48
 1007.72 71.04 1007.72 71.04 1128.33 124.758 c 0,49,50
 1248.95 178.476 1248.95 178.476 1336.84 268.737 c 0,51,52
 1424.72 358.999 1424.72 358.999 1477.15 483.565 c 0,53,54
 1529.58 608.132 1529.58 608.132 1529.58 743.7 c 0,49,50
 1529.58 885.326 1529.58 885.326 1478.37 1012.86 c 0,51,52
 1427.17 1140.39 1427.17 1140.39 1339.88 1232.22 c 0,53,54
 1252.6 1324.06 1252.6 1324.06 1131.15 1377.98 c 0,55,56
 1009.7 1431.9 1009.7 1431.9 874.68 1431.9 c 0,43,44
EndSplineSet
EndChar
StartChar: copyright
Encoding: 169 169 139
Width: 1753
VWidth: 2220
Flags: W
HStem: -28.86 99.9<879.12 932.4> 306.36 73.26<879.12 932.4> 1127.76 68.82<872.46 932.4> 1431.9 99.9<876.9 932.4>
VStem: 113.22 113.22<714.84 790.32> 444 168.72<714.84 790.32> 1531.8 113.22<714.84 790.32>
Fore
1238.76 894.66 m 1,0,-1
 1189.92 894.66 l 1,1,2
 1161.63 1009.48 1161.63 1009.48 1091.17 1068.62 c 0,3,4
 1020.7 1127.76 1020.7 1127.76 912.42 1127.76 c 0,3,4
 772.61 1127.76 772.61 1127.76 692.665 1027.61 c 0,5,6
 612.72 927.467 612.72 927.467 612.72 752.58 c 0,5,6
 612.72 579.443 612.72 579.443 695.405 479.532 c 0,7,8
 778.091 379.62 778.091 379.62 921.3 379.62 c 0,7,8
 1009.91 379.62 1009.91 379.62 1077.6 408.347 c 0,9,10
 1145.28 437.074 1145.28 437.074 1223.22 508.38 c 1,9,-1
 1256.52 472.86 l 1,10,11
 1176.7 386.39 1176.7 386.39 1090.14 346.375 c 0,12,13
 1003.58 306.36 1003.58 306.36 896.88 306.36 c 0,12,13
 694.083 306.36 694.083 306.36 569.041 427.467 c 0,14,15
 444 548.573 444 548.573 444 743.7 c 0,14,15
 444 875.308 444 875.308 501.98 978.622 c 0,16,17
 559.959 1081.94 559.959 1081.94 664.26 1139.26 c 0,18,19
 768.562 1196.58 768.562 1196.58 901.32 1196.58 c 0,16,17
 996.377 1196.58 996.377 1196.58 1090.02 1161.06 c 0,18,19
 1115.92 1149.96 1115.92 1149.96 1134.42 1149.96 c 0,20,21
 1152.67 1149.96 1152.67 1149.96 1161.28 1158.23 c 0,22,23
 1169.89 1166.49 1169.89 1166.49 1183.26 1196.58 c 1,22,-1
 1227.66 1196.58 l 1,23,-1
 1238.76 894.66 l 1,0,-1
876.9 1531.8 m 0,24,25
 1035.67 1531.8 1035.67 1531.8 1178.16 1469.98 c 0,26,27
 1320.64 1408.17 1320.64 1408.17 1422.92 1302.76 c 0,28,29
 1525.2 1197.35 1525.2 1197.35 1585.11 1050.89 c 0,30,31
 1645.02 904.428 1645.02 904.428 1645.02 741.48 c 0,26,27
 1645.02 587.058 1645.02 587.058 1583.55 444.591 c 0,28,29
 1522.09 302.124 1522.09 302.124 1419.07 198.481 c 0,30,31
 1316.05 94.8376 1316.05 94.8376 1174.38 32.9886 c 0,32,33
 1032.71 -28.8604 1032.71 -28.8604 879.12 -28.8604 c 0,28,29
 723.755 -28.8604 723.755 -28.8604 581.97 33.1571 c 0,30,31
 440.184 95.1745 440.184 95.1745 337.527 199.873 c 0,32,33
 234.869 304.572 234.869 304.572 174.044 449.269 c 0,34,35
 113.22 593.965 113.22 593.965 113.22 752.58 c 0,30,31
 113.22 910.35 113.22 910.35 174.011 1054.61 c 0,32,33
 234.803 1198.86 234.803 1198.86 337.247 1303.35 c 0,34,35
 439.692 1407.83 439.692 1407.83 581.035 1469.82 c 0,36,37
 722.378 1531.8 722.378 1531.8 876.9 1531.8 c 0,24,25
876.9 1431.9 m 0,32,33
 745.253 1431.9 745.253 1431.9 624.877 1377.74 c 0,34,35
 504.501 1323.59 504.501 1323.59 417.24 1232.25 c 0,36,37
 329.98 1140.91 329.98 1140.91 278.21 1014.71 c 0,38,39
 226.44 888.505 226.44 888.505 226.44 750.36 c 0,34,35
 226.44 612.966 226.44 612.966 278.258 487.285 c 0,36,37
 330.075 361.604 330.075 361.604 417.505 270.429 c 0,38,39
 504.935 179.255 504.935 179.255 625.826 125.147 c 0,40,41
 746.718 71.04 746.718 71.04 879.12 71.04 c 0,36,37
 1009.94 71.04 1009.94 71.04 1130.55 124.758 c 0,38,39
 1251.17 178.476 1251.17 178.476 1339.06 268.737 c 0,40,41
 1426.94 358.999 1426.94 358.999 1479.37 483.565 c 0,42,43
 1531.8 608.132 1531.8 608.132 1531.8 743.7 c 0,38,39
 1531.8 885.326 1531.8 885.326 1480.59 1012.86 c 0,40,41
 1429.39 1140.39 1429.39 1140.39 1342.1 1232.22 c 0,42,43
 1254.82 1324.06 1254.82 1324.06 1133.37 1377.98 c 0,44,45
 1011.92 1431.9 1011.92 1431.9 876.9 1431.9 c 0,32,33
EndSplineSet
EndChar
StartChar: trademark
Encoding: 8482 8482 140
Width: 1975
VWidth: 2220
Flags: W
HStem: 597.18 48.84<182.04 253.901 610.5 610.5 790.32 835.719 790.32 888 1005.66 1090.02 1520.7 1898.1 1867.02 1898.1> 1414.14 79.92<39.96 321.9 39.96 539.46> 1445.22 48.84<808.08 878.323 1600.62 1898.1>
VStem: 321.9 153.18<712.62 1411.92> 899.1 86.58<701.52 1329.78> 1636.14 153.18<721.5 1365.3>
DStem: 444 599 484 673 576 269 603 382 721 673 737 615 603 382 598 269
Fore
1898.1 1494.06 m 1,0,-1
 1898.1 1445.22 l 1,1,-1
 1862.58 1445.22 l 2,2,3
 1817.54 1445.22 1817.54 1445.22 1803.43 1437.98 c 0,4,5
 1789.32 1430.75 1789.32 1430.75 1789.32 1407.48 c 2,4,-1
 1789.32 721.5 l 2,5,6
 1789.32 678.141 1789.32 678.141 1808.8 664.574 c 0,7,8
 1828.28 651.007 1828.28 651.007 1898.1 646.02 c 1,7,-1
 1898.1 597.18 l 1,8,-1
 1520.7 597.18 l 1,9,-1
 1520.7 646.02 l 1,10,11
 1589.11 647.688 1589.11 647.688 1612.62 662.993 c 0,12,13
 1636.14 678.298 1636.14 678.298 1636.14 721.5 c 2,12,-1
 1636.14 1365.3 l 1,13,-1
 1327.56 597.18 l 1,14,-1
 1278.72 597.18 l 1,15,-1
 985.68 1329.78 l 1,16,-1
 985.68 732.6 l 2,17,18
 985.68 681.203 985.68 681.203 1006.08 664.448 c 0,19,20
 1026.48 647.692 1026.48 647.692 1090.02 646.02 c 1,19,-1
 1090.02 597.18 l 1,20,-1
 790.32 597.18 l 1,21,-1
 790.32 646.02 l 1,22,23
 863.632 647.686 863.632 647.686 881.366 662.136 c 0,24,25
 899.1 676.586 899.1 676.586 899.1 734.82 c 2,24,-1
 899.1 1407.48 l 2,25,26
 899.1 1434.28 899.1 1434.28 890.144 1439.33 c 0,27,28
 879.701 1445.22 879.701 1445.22 808.08 1445.22 c 1,27,-1
 808.08 1494.06 l 1,28,-1
 1074.48 1494.06 l 1,29,-1
 1338.66 848.04 l 1,30,-1
 1600.62 1494.06 l 1,31,-1
 1898.1 1494.06 l 1,0,-1
761.46 1494.06 m 1,32,-1
 761.46 1249.86 l 1,33,-1
 710.4 1249.86 l 1,34,35
 709.235 1286.57 709.235 1286.57 705.262 1310.77 c 0,36,37
 701.289 1334.96 701.289 1334.96 690.749 1354.44 c 0,38,39
 680.208 1373.91 680.208 1373.91 665.137 1384.62 c 0,40,41
 650.067 1395.33 650.067 1395.33 622.997 1402.45 c 0,42,43
 595.928 1409.58 595.928 1409.58 562.853 1411.86 c 0,44,45
 529.777 1414.14 529.777 1414.14 479.52 1414.14 c 2,36,-1
 475.08 1414.14 l 1,37,-1
 475.08 712.62 l 2,38,39
 474.358 693.134 474.358 693.134 476.801 682.465 c 0,40,41
 479.243 671.796 479.243 671.796 485.561 663.494 c 0,42,43
 491.879 655.191 491.879 655.191 508.911 651.989 c 0,44,45
 525.943 648.786 525.943 648.786 548.04 647.403 c 0,46,47
 570.138 646.02 570.138 646.02 610.5 646.02 c 1,40,-1
 610.5 597.18 l 1,41,-1
 182.04 597.18 l 1,42,-1
 182.04 646.02 l 1,43,44
 230.773 646.02 230.773 646.02 255.895 648.134 c 0,45,46
 281.017 650.249 281.017 650.249 297.267 658.474 c 0,47,48
 313.516 666.699 313.516 666.699 317.708 679.492 c 0,49,50
 321.9 692.284 321.9 692.284 321.9 717.06 c 2,45,-1
 321.9 1414.14 l 1,46,-1
 308.58 1414.14 l 2,47,48
 260.342 1412.38 260.342 1412.38 229.277 1409.25 c 0,49,50
 198.211 1406.12 198.211 1406.12 172.266 1398.5 c 0,51,52
 146.32 1390.88 146.32 1390.88 132.111 1380.47 c 0,53,54
 117.901 1370.06 117.901 1370.06 107.228 1350.97 c 0,55,56
 96.5549 1331.88 96.5549 1331.88 91.9247 1308.77 c 0,57,58
 87.2946 1285.66 87.2946 1285.66 84.3604 1249.86 c 1,49,-1
 39.96 1249.86 l 1,50,-1
 39.96 1494.06 l 1,51,-1
 761.46 1494.06 l 1,32,-1
EndSplineSet
EndChar
StartChar: acute
Encoding: 180 180 141
Width: 1233
Flags: W
Fore
752 1638 m 1,0,-1
 1034 1638 l 1,1,-1
 666 1262 l 1,2,-1
 469 1262 l 1,3,-1
 752 1638 l 1,0,-1
EndSplineSet
EndChar
StartChar: dieresis
Encoding: 168 168 142
Width: 1233
Flags: W
Fore
696 1585 m 1,0,-1
 932 1585 l 1,1,-1
 932 1339 l 1,2,-1
 696 1339 l 1,3,-1
 696 1585 l 1,0,-1
301 1585 m 1,4,-1
 537 1585 l 1,5,-1
 537 1339 l 1,6,-1
 301 1339 l 1,7,-1
 301 1585 l 1,4,-1
EndSplineSet
EndChar
StartChar: notequal
Encoding: 8800 8800 143
Width: 1724
VWidth: 2220
Flags: W
HStem: 295.26 88.8<161.933 659.34 199.8 1547.34> 725.94 88.8<161.933 872.46 197.58 1547.34>
DStem: 596 698 631 678 146 -178 181 -198
Fore
1400.82 1505.16 m 6,0,-1
 401.82 -439.56 l 2,1,2
 381.84 -479.52 381.84 -479.52 352.98 -479.52 c 0,3,4
 332.025 -479.52 332.025 -479.52 320.302 -464.642 c 0,5,6
 308.58 -449.763 308.58 -449.763 308.58 -435.12 c 0,5,6
 308.58 -426.239 308.58 -426.239 324.12 -395.16 c 2,7,-1
 1323.12 1549.56 l 2,8,9
 1343.1 1589.52 1343.1 1589.52 1371.96 1589.52 c 0,10,11
 1392.92 1589.52 1392.92 1589.52 1404.64 1574.64 c 0,12,13
 1416.36 1559.76 1416.36 1559.76 1416.36 1545.12 c 0,12,13
 1416.36 1536.24 1416.36 1536.24 1400.82 1505.16 c 6,0,-1
1525.14 725.94 m 2,14,-1
 199.8 725.94 l 2,15,16
 186.125 725.94 186.125 725.94 178.728 726.247 c 0,17,18
 171.33 726.553 171.33 726.553 159.281 728.831 c 0,19,20
 147.231 731.109 147.231 731.109 140.864 735.482 c 0,21,22
 134.497 739.855 134.497 739.855 129.408 748.722 c 0,23,24
 124.32 757.589 124.32 757.589 124.32 770.34 c 0,17,18
 124.32 786.058 124.32 786.058 130.633 795.853 c 0,19,20
 136.946 805.649 136.946 805.649 150.058 809.346 c 0,21,22
 163.17 813.042 163.17 813.042 172.258 813.891 c 0,23,24
 181.346 814.74 181.346 814.74 197.58 814.74 c 2,19,-1
 1527.36 814.74 l 2,20,21
 1543.59 814.74 1543.59 814.74 1552.68 813.891 c 0,22,23
 1561.77 813.042 1561.77 813.042 1574.88 809.346 c 0,24,25
 1587.99 805.649 1587.99 805.649 1594.31 795.853 c 0,26,27
 1600.62 786.058 1600.62 786.058 1600.62 770.34 c 0,22,23
 1600.62 757.589 1600.62 757.589 1595.53 748.722 c 0,24,25
 1590.44 739.855 1590.44 739.855 1584.08 735.482 c 0,26,27
 1577.71 731.109 1577.71 731.109 1565.66 728.831 c 0,28,29
 1553.61 726.553 1553.61 726.553 1546.21 726.247 c 0,30,31
 1538.81 725.94 1538.81 725.94 1525.14 725.94 c 2,14,-1
1527.36 295.26 m 2,24,-1
 197.58 295.26 l 2,25,26
 181.346 295.26 181.346 295.26 172.258 296.109 c 0,27,28
 163.17 296.958 163.17 296.958 150.058 300.654 c 0,29,30
 136.946 304.351 136.946 304.351 130.633 314.147 c 0,31,32
 124.32 323.942 124.32 323.942 124.32 339.66 c 0,27,28
 124.32 352.411 124.32 352.411 129.409 361.278 c 0,29,30
 134.497 370.145 134.497 370.145 140.864 374.518 c 0,31,32
 147.231 378.891 147.231 378.891 159.281 381.169 c 0,33,34
 171.331 383.447 171.331 383.447 178.728 383.753 c 0,35,36
 186.125 384.06 186.125 384.06 199.8 384.06 c 2,29,-1
 1525.14 384.06 l 2,30,31
 1538.82 384.06 1538.82 384.06 1546.21 383.753 c 0,32,33
 1553.61 383.447 1553.61 383.447 1565.66 381.169 c 0,34,35
 1577.71 378.891 1577.71 378.891 1584.08 374.518 c 0,36,37
 1590.44 370.145 1590.44 370.145 1595.53 361.278 c 0,38,39
 1600.62 352.411 1600.62 352.411 1600.62 339.66 c 0,32,33
 1600.62 323.942 1600.62 323.942 1594.31 314.147 c 0,34,35
 1587.99 304.351 1587.99 304.351 1574.88 300.654 c 0,36,37
 1561.77 296.958 1561.77 296.958 1552.68 296.109 c 0,38,39
 1543.59 295.26 1543.59 295.26 1527.36 295.26 c 2,24,-1
EndSplineSet
EndChar
StartChar: AE
Encoding: 198 198 144
Width: 1233
Flags: W
Fore
1161 1493 m 1,0,-1
 1161 1233 l 1,1,-1
 870 1233 l 1,2,-1
 870 922 l 1,3,-1
 1130 922 l 1,4,-1
 1130 662 l 1,5,-1
 870 662 l 1,6,-1
 870 260 l 1,7,-1
 1180 260 l 1,8,-1
 1180 0 l 1,9,-1
 616 0 l 1,10,-1
 616 362 l 1,11,-1
 334 362 l 1,12,-1
 248 0 l 1,13,-1
 0 0 l 1,14,-1
 358 1493 l 1,15,-1
 1161 1493 l 1,0,-1
537 1233 m 1,16,-1
 389 598 l 1,17,-1
 616 598 l 1,18,-1
 616 1233 l 1,19,-1
 537 1233 l 1,16,-1
EndSplineSet
EndChar
StartChar: Oslash
Encoding: 216 216 145
Width: 1233
Flags: W
Fore
451 354 m 1,0,1
 475 297 475 297 517.5 266.5 c 128,-1,2
 560 236 560 236 616 236 c 0,3,4
 730 236 730 236 782 356.5 c 128,-1,5
 834 477 834 477 834 745 c 0,6,7
 834 773 834 773 833 804 c 128,-1,8
 832 835 832 835 829 888 c 1,9,-1
 451 354 l 1,0,1
772 1153 m 1,10,11
 746 1204 746 1204 707 1229.5 c 128,-1,12
 668 1255 668 1255 616 1255 c 0,13,14
 504 1255 504 1255 451.5 1135 c 128,-1,15
 399 1015 399 1015 399 756 c 2,16,-1
 399 629 l 1,17,-1
 772 1153 l 1,10,11
162 289 m 1,18,19
 127 377 127 377 109.5 490.5 c 128,-1,20
 92 604 92 604 92 745 c 0,21,22
 92 1128 92 1128 224.5 1324 c 128,-1,23
 357 1520 357 1520 616 1520 c 0,24,25
 719 1520 719 1520 802 1489 c 128,-1,26
 885 1458 885 1458 946 1397 c 1,27,-1
 1059 1559 l 1,28,-1
 1221 1444 l 1,29,-1
 1063 1221 l 1,30,31
 1102 1127 1102 1127 1121.5 1007.5 c 128,-1,32
 1141 888 1141 888 1141 745 c 0,33,34
 1141 363 1141 363 1008.5 167 c 128,-1,35
 876 -29 876 -29 616 -29 c 0,36,37
 510 -29 510 -29 425 4.5 c 128,-1,38
 340 38 340 38 276 104 c 1,39,-1
 156 -63 l 1,40,-1
 -6 51 l 1,41,-1
 162 289 l 1,18,19
EndSplineSet
EndChar
StartChar: infinity
Encoding: 8734 8734 146
Width: 2220
VWidth: 2220
Flags: W
HStem: -24.42 71.04<510.6 557.22> -24.42 106.56<1665 1707.18> 910.2 71.04<1649.46 1707.18>
VStem: 124.32 48.84<477.3 510.6> 2044.62 48.84<479.52 526.14>
Fore
1127.76 603.84 m 1,0,1
 1138.73 622.397 1138.73 622.397 1150.46 640.724 c 0,2,3
 1162.2 659.051 1162.2 659.051 1192.59 699.418 c 0,4,5
 1222.97 739.785 1222.97 739.785 1254.31 773.484 c 0,6,7
 1285.64 807.183 1285.64 807.183 1333.67 847.479 c 0,8,9
 1381.71 887.774 1381.71 887.774 1431 915.564 c 0,10,11
 1480.29 943.354 1480.29 943.354 1544.34 962.297 c 0,12,13
 1608.4 981.24 1608.4 981.24 1673.88 981.24 c 0,2,3
 1750.8 981.24 1750.8 981.24 1818.65 952.81 c 0,4,5
 1886.5 924.38 1886.5 924.38 1936.01 875.511 c 0,6,7
 1985.53 826.642 1985.53 826.642 2021.54 762.672 c 0,8,9
 2057.54 698.701 2057.54 698.701 2075.5 626.232 c 0,10,11
 2093.46 553.762 2093.46 553.762 2093.46 479.52 c 0,4,5
 2093.46 381.423 2093.46 381.423 2062.62 290.288 c 0,6,7
 2031.77 199.152 2031.77 199.152 1977.37 129.292 c 0,8,9
 1922.96 59.4312 1922.96 59.4312 1842 17.5056 c 0,10,11
 1761.04 -24.4199 1761.04 -24.4199 1667.22 -24.4199 c 0,6,7
 1471.37 -24.4199 1471.37 -24.4199 1289.82 128.76 c 0,8,9
 1252.93 160.621 1252.93 160.621 1226.87 189.831 c 0,10,11
 1200.81 219.04 1200.81 219.04 1090.02 352.98 c 1,10,11
 1079.06 334.427 1079.06 334.427 1067.32 316.096 c 0,12,13
 1055.58 297.766 1055.58 297.766 1025.19 257.402 c 0,14,15
 994.807 217.037 994.807 217.037 963.475 183.336 c 0,16,17
 932.144 149.635 932.144 149.635 884.109 109.341 c 0,18,19
 836.074 69.0473 836.074 69.0473 786.781 41.2563 c 0,20,21
 737.489 13.4653 737.489 13.4653 673.435 -5.47732 c 0,22,23
 609.381 -24.4199 609.381 -24.4199 543.9 -24.4199 c 0,12,13
 466.985 -24.4199 466.985 -24.4199 399.134 4.01007 c 0,14,15
 331.284 32.4401 331.284 32.4401 281.766 81.309 c 0,16,17
 232.249 130.178 232.249 130.178 196.244 194.149 c 0,18,19
 160.239 258.119 160.239 258.119 142.28 330.588 c 0,20,21
 124.32 403.057 124.32 403.057 124.32 477.3 c 0,14,15
 124.32 575.396 124.32 575.396 155.164 666.532 c 0,16,17
 186.008 757.667 186.008 757.667 240.413 827.528 c 0,18,19
 294.817 897.389 294.817 897.389 375.776 939.315 c 0,20,21
 456.735 981.24 456.735 981.24 550.56 981.24 c 0,16,17
 746.414 981.24 746.414 981.24 927.96 828.06 c 0,18,19
 964.851 796.2 964.851 796.2 990.908 766.992 c 0,20,21
 1016.97 737.784 1016.97 737.784 1127.76 603.84 c 1,0,1
1185.48 526.14 m 1,20,21
 1207.69 499.165 1207.69 499.165 1291.09 390.07 c 0,22,23
 1374.48 280.975 1374.48 280.975 1409.7 241.98 c 0,22,23
 1485.12 159.852 1485.12 159.852 1555.88 120.996 c 0,24,25
 1626.64 82.1396 1626.64 82.1396 1702.74 82.1396 c 0,24,25
 1794.75 82.1396 1794.75 82.1396 1873.37 134.699 c 0,26,27
 1951.99 187.257 1951.99 187.257 1998.31 278.961 c 0,28,29
 2044.62 370.664 2044.62 370.664 2044.62 479.52 c 0,26,27
 2044.62 540.432 2044.62 540.432 2030.57 601.024 c 0,28,29
 2016.52 661.616 2016.52 661.616 1987.06 717.442 c 0,30,31
 1957.59 773.269 1957.59 773.269 1916.41 816.134 c 0,32,33
 1875.23 858.999 1875.23 858.999 1816.42 884.6 c 0,34,35
 1757.62 910.2 1757.62 910.2 1689.42 910.2 c 0,28,29
 1617.56 910.2 1617.56 910.2 1548.74 884.084 c 0,30,31
 1479.93 857.967 1479.93 857.967 1427.99 819.154 c 0,32,33
 1376.06 780.341 1376.06 780.341 1327.03 725.877 c 0,34,35
 1278 671.414 1278 671.414 1246.24 624.717 c 0,36,37
 1214.47 578.021 1214.47 578.021 1185.48 526.14 c 1,20,21
1032.3 430.68 m 1,30,31
 1010.08 457.658 1010.08 457.658 926.692 566.752 c 0,32,33
 843.3 675.846 843.3 675.846 808.08 714.84 c 0,32,33
 732.656 796.969 732.656 796.969 661.897 835.824 c 0,34,35
 591.139 874.68 591.139 874.68 515.04 874.68 c 0,34,35
 423.028 874.68 423.028 874.68 344.407 822.121 c 0,36,37
 265.786 769.562 265.786 769.562 219.473 677.859 c 0,38,39
 173.16 586.156 173.16 586.156 173.16 477.3 c 0,36,37
 173.16 416.387 173.16 416.387 187.208 355.795 c 0,38,39
 201.256 295.204 201.256 295.204 230.721 239.378 c 0,40,41
 260.186 183.552 260.186 183.552 301.369 140.686 c 0,42,43
 342.553 97.8212 342.553 97.8212 401.359 72.2206 c 0,44,45
 460.165 46.6201 460.165 46.6201 528.36 46.6201 c 0,38,39
 600.219 46.6201 600.219 46.6201 669.036 72.7366 c 0,40,41
 737.853 98.8531 737.853 98.8531 789.788 137.666 c 0,42,43
 841.724 176.479 841.724 176.479 890.752 230.942 c 0,44,45
 939.78 285.406 939.78 285.406 971.544 332.102 c 0,46,47
 1003.31 378.799 1003.31 378.799 1032.3 430.68 c 1,30,31
EndSplineSet
EndChar
StartChar: plusminus
Encoding: 177 177 147
Width: 1724
VWidth: 2220
Flags: W
HStem: 0 88.8<161.384 819.18 907.98 1547.34> 694.86 88.8<161.384 819.18 907.98 1547.34> 1434.12 44.4G<841.38 885.78>
VStem: 819.18 88.8<86.58 694.86 781.44 1423.02>
Fore
907.98 694.86 m 1,0,-1
 907.98 88.7998 l 1,1,-1
 1527.36 88.7998 l 2,2,3
 1543.59 88.7998 1543.59 88.7998 1552.68 87.9507 c 0,4,5
 1561.77 87.1016 1561.77 87.1016 1574.88 83.4052 c 0,6,7
 1587.99 79.7089 1587.99 79.7089 1594.31 69.9134 c 0,8,9
 1600.62 60.118 1600.62 60.118 1600.62 44.4004 c 0,4,5
 1600.62 28.6824 1600.62 28.6824 1594.31 18.8868 c 0,6,7
 1587.99 9.09113 1587.99 9.09113 1574.88 5.39468 c 0,8,9
 1561.77 1.69824 1561.77 1.69824 1552.68 0.849121 c 0,10,11
 1543.59 0 1543.59 0 1527.36 0 c 2,6,-1
 197.58 0 l 2,7,8
 181.346 0 181.346 0 172.258 0.849128 c 0,9,10
 163.17 1.69826 163.17 1.69826 150.058 5.39468 c 0,11,12
 136.946 9.0911 136.946 9.0911 130.633 18.8868 c 0,13,14
 124.32 28.6825 124.32 28.6825 124.32 44.4004 c 0,9,10
 124.32 60.118 124.32 60.118 130.633 69.9134 c 0,11,12
 136.946 79.7089 136.946 79.7089 150.058 83.4052 c 0,13,14
 163.17 87.1016 163.17 87.1016 172.258 87.9507 c 0,15,16
 181.346 88.7998 181.346 88.7998 197.58 88.7998 c 2,11,-1
 819.18 88.7998 l 1,12,-1
 819.18 694.86 l 1,13,-1
 197.58 694.86 l 2,14,15
 181.346 694.86 181.346 694.86 172.258 695.709 c 0,16,17
 163.17 696.559 163.17 696.559 150.058 700.255 c 0,18,19
 136.946 703.951 136.946 703.951 130.633 713.747 c 0,20,21
 124.32 723.542 124.32 723.542 124.32 739.26 c 0,16,17
 124.32 754.978 124.32 754.978 130.633 764.773 c 0,18,19
 136.946 774.569 136.946 774.569 150.058 778.266 c 0,20,21
 163.17 781.962 163.17 781.962 172.258 782.811 c 0,22,23
 181.346 783.66 181.346 783.66 197.58 783.66 c 2,18,-1
 819.18 783.66 l 1,19,-1
 819.18 1407.48 l 2,20,21
 819.18 1423.58 819.18 1423.58 820.025 1432.43 c 0,22,23
 820.87 1441.29 820.87 1441.29 824.578 1453.92 c 0,24,25
 828.286 1466.54 828.286 1466.54 838.063 1472.53 c 0,26,27
 847.84 1478.52 847.84 1478.52 863.58 1478.52 c 0,22,23
 879.286 1478.52 879.286 1478.52 889.092 1471.55 c 0,24,25
 898.898 1464.58 898.898 1464.58 902.588 1450.21 c 0,26,27
 906.278 1435.85 906.278 1435.85 907.129 1425.97 c 0,28,29
 907.98 1416.08 907.98 1416.08 907.98 1398.6 c 2,24,-1
 907.98 783.66 l 1,25,-1
 1527.36 783.66 l 2,26,27
 1543.59 783.66 1543.59 783.66 1552.68 782.811 c 0,28,29
 1561.77 781.962 1561.77 781.962 1574.88 778.266 c 0,30,31
 1587.99 774.569 1587.99 774.569 1594.31 764.773 c 0,32,33
 1600.62 754.978 1600.62 754.978 1600.62 739.26 c 0,28,29
 1600.62 723.542 1600.62 723.542 1594.31 713.747 c 0,30,31
 1587.99 703.951 1587.99 703.951 1574.88 700.255 c 0,32,33
 1561.77 696.559 1561.77 696.559 1552.68 695.709 c 0,34,35
 1543.59 694.86 1543.59 694.86 1527.36 694.86 c 2,30,-1
 907.98 694.86 l 1,0,-1
EndSplineSet
EndChar
StartChar: lessequal
Encoding: 8804 8804 148
Width: 1724
VWidth: 2220
Flags: W
HStem: -304.14 88.8<222 1505.16>
DStem: 102 325 150 346 657 63 675 98 658 630 676 595 102 368 150 346
Fore
1500.72 1320.9 m 2,0,-1
 333 768.12 l 1,1,-1
 1498.5 217.56 l 2,2,3
 1512.28 210.669 1512.28 210.669 1516.96 208.038 c 0,4,5
 1521.64 205.406 1521.64 205.406 1528.95 199.61 c 0,6,7
 1536.26 193.813 1536.26 193.813 1538.47 187.225 c 0,8,9
 1540.68 180.637 1540.68 180.637 1540.68 170.94 c 0,4,5
 1540.68 152.625 1540.68 152.625 1527.64 139.582 c 0,6,7
 1514.6 126.54 1514.6 126.54 1496.28 126.54 c 0,6,7
 1482.96 126.54 1482.96 126.54 1458.54 139.86 c 2,8,-1
 226.44 721.5 l 2,9,10
 213.606 727.204 213.606 727.204 206.027 731.763 c 0,11,12
 198.447 736.323 198.447 736.323 191.353 746.017 c 0,13,14
 184.26 755.711 184.26 755.711 184.26 768.12 c 0,11,12
 184.26 778.453 184.26 778.453 187.123 785.981 c 0,13,14
 189.986 793.51 189.986 793.51 197.631 799.585 c 0,15,16
 205.276 805.66 205.276 805.66 209.878 808.32 c 0,17,18
 214.48 810.98 214.48 810.98 226.44 816.96 c 2,13,-1
 1460.76 1398.6 l 2,14,15
 1485.18 1411.92 1485.18 1411.92 1496.28 1411.92 c 0,16,17
 1514.6 1411.92 1514.6 1411.92 1527.64 1398.88 c 0,18,19
 1540.68 1385.84 1540.68 1385.84 1540.68 1367.52 c 0,18,19
 1540.68 1347.92 1540.68 1347.92 1530.85 1338.47 c 0,20,21
 1521.02 1329.02 1521.02 1329.02 1500.72 1320.9 c 2,0,-1
1467.42 -304.14 m 2,20,-1
 257.52 -304.14 l 2,21,22
 241.286 -304.14 241.286 -304.14 232.198 -303.291 c 0,23,24
 223.11 -302.441 223.11 -302.441 209.998 -298.745 c 0,25,26
 196.886 -295.049 196.886 -295.049 190.573 -285.253 c 0,27,28
 184.26 -275.458 184.26 -275.458 184.26 -259.74 c 0,23,24
 184.26 -244.043 184.26 -244.043 190.897 -234.23 c 0,25,26
 197.534 -224.417 197.534 -224.417 211.131 -220.731 c 0,27,28
 224.729 -217.045 224.729 -217.045 234.048 -216.192 c 0,29,30
 243.368 -215.34 243.368 -215.34 259.74 -215.34 c 2,25,-1
 1465.2 -215.34 l 2,26,27
 1478.88 -215.34 1478.88 -215.34 1486.27 -215.646 c 0,28,29
 1493.67 -215.952 1493.67 -215.952 1505.72 -218.23 c 0,30,31
 1517.77 -220.508 1517.77 -220.508 1524.14 -224.881 c 0,32,33
 1530.5 -229.254 1530.5 -229.254 1535.59 -238.122 c 0,34,35
 1540.68 -246.989 1540.68 -246.989 1540.68 -259.74 c 0,28,29
 1540.68 -275.458 1540.68 -275.458 1534.37 -285.253 c 0,30,31
 1528.05 -295.049 1528.05 -295.049 1514.94 -298.745 c 0,32,33
 1501.83 -302.441 1501.83 -302.441 1492.74 -303.291 c 0,34,35
 1483.65 -304.14 1483.65 -304.14 1467.42 -304.14 c 2,20,-1
EndSplineSet
EndChar
StartChar: greaterequal
Encoding: 8805 8805 149
Width: 1724
VWidth: 2220
Flags: W
HStem: -304.14 88.8<222 1502.94>
DStem: 102 595 121 629 627 347 675 368 627 347 675 325 101 98 120 63
Fore
1498.5 721.5 m 2,0,-1
 266.4 139.86 l 2,1,2
 241.98 126.54 241.98 126.54 228.66 126.54 c 0,3,4
 210.345 126.54 210.345 126.54 197.302 139.582 c 0,5,6
 184.26 152.625 184.26 152.625 184.26 170.94 c 0,5,6
 184.26 184.408 184.26 184.408 190.92 194.102 c 0,7,8
 197.58 203.796 197.58 203.796 204.24 207.718 c 0,9,10
 210.9 211.639 210.9 211.639 224.22 217.56 c 2,7,-1
 1391.94 770.34 l 1,8,-1
 226.44 1320.9 l 2,9,10
 201.722 1332.31 201.722 1332.31 192.991 1340.69 c 0,11,12
 184.26 1349.07 184.26 1349.07 184.26 1367.52 c 0,11,12
 184.26 1385.84 184.26 1385.84 197.302 1398.88 c 0,13,14
 210.345 1411.92 210.345 1411.92 228.66 1411.92 c 0,13,14
 239.76 1411.92 239.76 1411.92 268.62 1396.38 c 2,15,-1
 1498.5 816.96 l 2,16,17
 1510.46 810.98 1510.46 810.98 1515.06 808.32 c 0,18,19
 1519.66 805.66 1519.66 805.66 1527.31 799.585 c 0,20,21
 1534.95 793.51 1534.95 793.51 1537.82 785.981 c 0,22,23
 1540.68 778.453 1540.68 778.453 1540.68 768.12 c 0,18,19
 1540.68 750.341 1540.68 750.341 1529.52 740.332 c 0,20,21
 1518.35 730.323 1518.35 730.323 1498.5 721.5 c 2,0,-1
1467.42 -304.14 m 2,20,-1
 257.52 -304.14 l 2,21,22
 241.286 -304.14 241.286 -304.14 232.198 -303.291 c 0,23,24
 223.11 -302.441 223.11 -302.441 209.998 -298.745 c 0,25,26
 196.886 -295.049 196.886 -295.049 190.573 -285.253 c 0,27,28
 184.26 -275.458 184.26 -275.458 184.26 -259.74 c 0,23,24
 184.26 -244.043 184.26 -244.043 190.897 -234.23 c 0,25,26
 197.534 -224.417 197.534 -224.417 211.131 -220.731 c 0,27,28
 224.729 -217.045 224.729 -217.045 234.048 -216.192 c 0,29,30
 243.368 -215.34 243.368 -215.34 259.74 -215.34 c 2,25,-1
 1465.2 -215.34 l 2,26,27
 1478.88 -215.34 1478.88 -215.34 1486.27 -215.646 c 0,28,29
 1493.67 -215.952 1493.67 -215.952 1505.72 -218.23 c 0,30,31
 1517.77 -220.508 1517.77 -220.508 1524.14 -224.881 c 0,32,33
 1530.5 -229.254 1530.5 -229.254 1535.59 -238.122 c 0,34,35
 1540.68 -246.989 1540.68 -246.989 1540.68 -259.74 c 0,28,29
 1540.68 -275.458 1540.68 -275.458 1534.37 -285.253 c 0,30,31
 1528.05 -295.049 1528.05 -295.049 1514.94 -298.745 c 0,32,33
 1501.83 -302.441 1501.83 -302.441 1492.74 -303.291 c 0,34,35
 1483.65 -304.14 1483.65 -304.14 1467.42 -304.14 c 2,20,-1
EndSplineSet
EndChar
StartChar: yen
Encoding: 165 165 150
Width: 1233
Flags: W
Fore
8 1493 m 1,0,-1
 326 1493 l 1,1,-1
 616 893 l 1,2,-1
 907 1493 l 1,3,-1
 1225 1493 l 1,4,-1
 952 965 l 1,5,-1
 1176 965 l 1,6,-1
 1176 778 l 1,7,-1
 854 778 l 1,8,-1
 768 627 l 1,9,-1
 1176 627 l 1,10,-1
 1176 438 l 1,11,-1
 764 438 l 1,12,-1
 764 0 l 1,13,-1
 469 0 l 1,14,-1
 469 438 l 1,15,-1
 57 438 l 1,16,-1
 57 627 l 1,17,-1
 465 627 l 1,18,-1
 379 778 l 1,19,-1
 57 778 l 1,20,-1
 57 965 l 1,21,-1
 281 965 l 1,22,-1
 8 1493 l 1,0,-1
EndSplineSet
EndChar
StartChar: mu
Encoding: 956 956 151
Width: 1336
VWidth: 2220
Flags: W
HStem: -24.42 48.84<526.14 566.1 1023.42 1063.38> 912.42 44.4G<1084.47 1106.67>
DStem: 177 406 231 351 33 -173 189 183 452 396 488 269 405 209 460 161
Fore
512.82 779.22 m 2,0,-1
 419.58 406.26 l 2,1,2
 388.5 281.939 388.5 281.939 388.5 217.56 c 0,3,4
 388.5 125.645 388.5 125.645 429.834 75.0324 c 0,5,6
 471.167 24.4199 471.167 24.4199 552.78 24.4199 c 0,5,6
 603.246 24.4199 603.246 24.4199 651.233 45.5789 c 0,7,8
 699.22 66.7379 699.22 66.7379 731.809 96.1814 c 0,9,10
 764.399 125.625 764.399 125.625 790.223 157.787 c 0,11,12
 816.047 189.949 816.047 189.949 828.175 211.053 c 0,13,14
 840.304 232.158 840.304 232.158 841.38 237.54 c 0,7,8
 858.252 293.779 858.252 293.779 899.1 463.98 c 2,9,10
 1003.44 879.12 l 2,11,12
 1009.6 905.292 1009.6 905.292 1022.22 922.748 c 0,13,14
 1034.84 940.204 1034.84 940.204 1049.91 946.63 c 0,15,16
 1064.97 953.057 1064.97 953.057 1073.63 954.938 c 0,17,18
 1082.28 956.82 1082.28 956.82 1090.02 956.82 c 0,13,14
 1116.8 956.82 1116.8 956.82 1135.6 941.08 c 0,15,16
 1154.4 925.34 1154.4 925.34 1154.4 896.88 c 0,15,16
 1154.4 889.11 1154.4 889.11 1139.14 825.005 c 0,17,18
 1123.87 760.9 1123.87 760.9 1121.1 748.14 c 0,17,18
 1090.91 634.911 1090.91 634.911 1083.36 597.18 c 2,19,20
 1021.2 357.42 l 2,21,22
 1007.88 304.487 1007.88 304.487 992.34 231.157 c 0,23,24
 976.8 157.828 976.8 157.828 976.8 126.54 c 0,23,24
 976.8 106.616 976.8 106.616 978.975 91.3066 c 0,25,26
 981.15 75.9977 981.15 75.9977 987.425 59.3756 c 0,27,28
 993.699 42.7534 993.699 42.7534 1007.9 33.5867 c 0,29,30
 1022.11 24.4199 1022.11 24.4199 1043.4 24.4199 c 0,25,26
 1065.53 24.4199 1065.53 24.4199 1084.65 34.1511 c 0,27,28
 1103.77 43.8822 1103.77 43.8822 1119.44 64.3614 c 0,29,30
 1135.11 84.8406 1135.11 84.8406 1147.51 107.308 c 0,31,32
 1159.91 129.776 1159.91 129.776 1172.06 164.837 c 0,33,34
 1184.21 199.898 1184.21 199.898 1192.61 228.566 c 0,35,36
 1201.01 257.234 1201.01 257.234 1212.12 299.7 c 0,27,28
 1217.55 325.061 1217.55 325.061 1222.53 332.36 c 0,29,30
 1227.51 339.66 1227.51 339.66 1243.2 339.66 c 0,29,30
 1269.84 339.66 1269.84 339.66 1269.84 317.46 c 0,31,32
 1269.84 307.121 1269.84 307.121 1248.51 227.742 c 0,33,34
 1227.17 148.363 1227.17 148.363 1203.24 97.6797 c 0,33,34
 1142.19 -24.4199 1142.19 -24.4199 1038.96 -24.4199 c 0,35,36
 964.706 -24.4199 964.706 -24.4199 909.331 19.6179 c 0,37,38
 853.957 63.6557 853.957 63.6557 839.16 137.64 c 1,37,38
 816.912 111.684 816.912 111.684 802.387 96.0717 c 0,39,40
 787.862 80.4591 787.862 80.4591 757.491 54.5865 c 0,41,42
 727.121 28.714 727.121 28.714 699.095 13.8786 c 0,43,44
 671.069 -0.956831 671.069 -0.956831 629.691 -12.6884 c 0,45,46
 588.312 -24.4199 588.312 -24.4199 543.9 -24.4199 c 0,39,40
 494.632 -24.4199 494.632 -24.4199 434.941 -9.70739 c 0,41,42
 375.25 5.00513 375.25 5.00513 328.56 44.4004 c 1,41,42
 216.184 -411.02 216.184 -411.02 206.46 -432.9 c 1,43,44
 175.374 -479.52 175.374 -479.52 128.76 -479.52 c 0,45,46
 101.01 -479.52 101.01 -479.52 83.8046 -462.315 c 0,47,48
 66.5996 -445.11 66.5996 -445.11 66.5996 -419.58 c 0,47,48
 66.5996 -410.7 66.5996 -410.7 73.2598 -384.06 c 2,49,-1
 392.94 901.32 l 2,50,51
 399.842 928.161 399.842 928.161 413.607 946.204 c 0,52,53
 427.373 964.248 427.373 964.248 443.035 970.8 c 0,54,55
 458.698 977.353 458.698 977.353 467.165 979.296 c 0,56,57
 475.632 981.24 475.632 981.24 481.74 981.24 c 0,52,53
 510.555 981.24 510.555 981.24 528.338 965.193 c 0,54,55
 546.12 949.145 546.12 949.145 546.12 921.3 c 0,54,55
 546.12 919.084 546.12 919.084 512.82 779.22 c 2,0,-1
EndSplineSet
EndChar
StartChar: partialdiff
Encoding: 8706 8706 152
Width: 1176
VWidth: 2220
Flags: W
HStem: -48.84 62.16<477.3 517.26> 965.7 48.84<741.48 781.44> 1161.06 195.36<437.34 457.32> 1534.02 55.5<737.04 801.42>
VStem: 88.8 170.94<264.18 346.32> 352.98 204.24<1238.76 1278.72> 1090.02 166.5<1014.54 1132.2>
Fore
1027.86 752.58 m 1,0,-1
 1030.08 752.58 l 1,1,2
 1090.02 983.775 1090.02 983.775 1090.02 1132.2 c 0,3,4
 1090.02 1235.69 1090.02 1235.69 1063.58 1315.15 c 0,5,6
 1037.13 1394.61 1037.13 1394.61 991.692 1441.15 c 0,7,8
 946.251 1487.69 946.251 1487.69 890.902 1510.86 c 0,9,10
 835.553 1534.02 835.553 1534.02 772.56 1534.02 c 0,5,6
 747.777 1534.02 747.777 1534.02 723.554 1531.57 c 0,7,8
 699.33 1529.13 699.33 1529.13 660.767 1518.56 c 0,9,10
 622.203 1507.99 622.203 1507.99 588.649 1490.16 c 0,11,12
 555.094 1472.32 555.094 1472.32 517.87 1437.72 c 0,13,14
 480.645 1403.12 480.645 1403.12 452.88 1356.42 c 1,7,8
 468.42 1356.42 468.42 1356.42 477.931 1355.91 c 0,9,10
 487.441 1355.39 487.441 1355.39 504.393 1351.34 c 0,11,12
 521.345 1347.28 521.345 1347.28 531.281 1339.75 c 0,13,14
 541.218 1332.21 541.218 1332.21 549.219 1316.53 c 0,15,16
 557.22 1300.85 557.22 1300.85 557.22 1278.72 c 0,9,10
 557.22 1236.67 557.22 1236.67 523.057 1198.87 c 0,11,12
 488.895 1161.06 488.895 1161.06 437.34 1161.06 c 0,11,12
 392.524 1161.06 392.524 1161.06 372.752 1185.13 c 0,13,14
 352.98 1209.2 352.98 1209.2 352.98 1238.76 c 0,13,14
 352.98 1253.46 352.98 1253.46 359.348 1277.81 c 0,15,16
 365.716 1302.17 365.716 1302.17 380.961 1335.43 c 0,17,18
 396.206 1368.69 396.206 1368.69 418.285 1402.96 c 0,19,20
 440.364 1437.23 440.364 1437.23 475.197 1470.99 c 0,21,22
 510.031 1504.74 510.031 1504.74 551.938 1530.91 c 0,23,24
 593.844 1557.08 593.844 1557.08 652.383 1573.3 c 0,25,26
 710.922 1589.52 710.922 1589.52 777 1589.52 c 0,15,16
 878.93 1589.52 878.93 1589.52 967.044 1548.89 c 0,17,18
 1055.16 1508.26 1055.16 1508.26 1119.24 1434.82 c 0,19,20
 1183.31 1361.38 1183.31 1361.38 1219.92 1252.87 c 0,21,22
 1256.52 1144.36 1256.52 1144.36 1256.52 1014.54 c 0,17,18
 1256.52 944.201 1256.52 944.201 1242.53 855.627 c 0,19,20
 1228.53 767.053 1228.53 767.053 1198.09 664.943 c 0,21,22
 1167.65 562.833 1167.65 562.833 1124.39 462.681 c 0,23,24
 1081.14 362.529 1081.14 362.529 1017.59 269.783 c 0,25,26
 954.039 177.038 954.039 177.038 879.196 106.394 c 0,27,28
 804.353 35.7495 804.353 35.7495 705.366 -6.54517 c 0,29,30
 606.378 -48.8398 606.378 -48.8398 497.28 -48.8398 c 0,19,20
 408.454 -48.8398 408.454 -48.8398 335.945 -20.7314 c 0,21,22
 263.436 7.37696 263.436 7.37696 218.736 50.3908 c 0,23,24
 174.035 93.4046 174.035 93.4046 143.569 147.988 c 0,25,26
 113.102 202.572 113.102 202.572 100.951 252.144 c 0,27,28
 88.7998 301.717 88.7998 301.717 88.7998 346.32 c 0,21,22
 88.7998 373.437 88.7998 373.437 91.5888 403.201 c 0,23,24
 94.3777 432.965 94.3777 432.965 106.364 484.39 c 0,25,26
 118.35 535.815 118.35 535.815 138.369 584.673 c 0,27,28
 158.387 633.53 158.387 633.53 197.366 693.568 c 0,29,30
 236.345 753.605 236.345 753.605 288.6 805.86 c 0,23,24
 408.536 925.796 408.536 925.796 517.046 970.168 c 0,25,26
 625.556 1014.54 625.556 1014.54 741.48 1014.54 c 0,25,26
 804.224 1014.54 804.224 1014.54 855.747 993.244 c 0,27,28
 907.27 971.947 907.27 971.947 941.69 934.896 c 0,29,30
 976.111 897.844 976.111 897.844 997.688 851.857 c 0,31,32
 1019.27 805.87 1019.27 805.87 1027.86 752.58 c 1,0,-1
503.94 13.3203 m 0,27,28
 574.331 13.3203 574.331 13.3203 638.164 41.4957 c 0,29,30
 701.997 69.671 701.997 69.671 749.628 116.034 c 0,31,32
 797.259 162.398 797.259 162.398 837.718 222.539 c 0,33,34
 878.177 282.68 878.177 282.68 905.3 346.008 c 0,35,36
 932.423 409.336 932.423 409.336 951.527 472.085 c 0,37,38
 970.63 534.834 970.63 534.834 979.265 585.768 c 0,39,40
 987.9 636.703 987.9 636.703 987.9 672.66 c 0,29,30
 987.9 688.107 987.9 688.107 987.108 703.312 c 0,31,32
 986.316 718.517 986.316 718.517 981.217 749.733 c 0,33,34
 976.118 780.949 976.118 780.949 967.264 807.076 c 0,35,36
 958.41 833.203 958.41 833.203 939.898 863.904 c 0,37,38
 921.386 894.605 921.386 894.605 896.315 915.811 c 0,39,40
 871.244 937.016 871.244 937.016 831.163 951.358 c 0,41,42
 791.083 965.7 791.083 965.7 741.48 965.7 c 0,31,32
 544.912 965.7 544.912 965.7 406.26 768.12 c 0,33,34
 346.457 680.603 346.457 680.603 303.098 505.74 c 0,35,36
 259.74 330.877 259.74 330.877 259.74 264.18 c 0,35,36
 259.74 253.623 259.74 253.623 260.284 242.863 c 0,37,38
 260.828 232.103 260.828 232.103 265.604 205.169 c 0,39,40
 270.38 178.234 270.38 178.234 278.795 155.695 c 0,41,42
 287.21 133.155 287.21 133.155 305.473 105.496 c 0,43,44
 323.736 77.8362 323.736 77.8362 348.566 58.7397 c 0,45,46
 373.397 39.6432 373.397 39.6432 413.69 26.4818 c 0,47,48
 453.984 13.3203 453.984 13.3203 503.94 13.3203 c 0,27,28
EndSplineSet
EndChar
StartChar: summation
Encoding: 8721 8721 153
Width: 2342
VWidth: 2220
Flags: W
HStem: -444 122.1<310.8 2026.86> 1687.2 88.8<186.48 1369.74>
DStem: 56 768 164 760 421 266 489 314 421 266 487 284 66 -173 140 -145
Fore
1081.14 630.48 m 2,0,-1
 310.8 -321.9 l 1,1,-1
 1254.3 -321.9 l 2,2,3
 1563.33 -321.9 1563.33 -321.9 1769.34 -257.52 c 0,4,5
 1911.87 -208.892 1911.87 -208.892 2016.4 -112.069 c 0,6,7
 2120.94 -15.2458 2120.94 -15.2458 2162.28 108.78 c 1,6,-1
 2217.78 108.78 l 1,7,-1
 2026.86 -444 l 1,8,-1
 186.48 -444 l 2,9,10
 167.749 -444 167.749 -444 159.632 -443.587 c 0,11,12
 151.515 -443.173 151.515 -443.173 142.149 -440.979 c 0,13,14
 132.784 -438.785 132.784 -438.785 129.662 -433.666 c 0,15,16
 126.54 -428.547 126.54 -428.547 126.54 -419.58 c 0,11,12
 126.54 -409.034 126.54 -409.034 146.52 -384.06 c 2,13,-1
 934.62 590.52 l 1,14,-1
 124.32 1704.96 l 1,15,16
 124.32 1756.5 124.32 1756.5 132.889 1766.25 c 0,17,18
 141.458 1776 141.458 1776 186.48 1776 c 2,17,-1
 2026.86 1776 l 1,18,-1
 2217.78 1256.52 l 1,19,-1
 2162.28 1256.52 l 1,20,21
 2137.1 1323.78 2137.1 1323.78 2097.6 1380.52 c 0,22,23
 2058.1 1437.27 2058.1 1437.27 2013.34 1478.4 c 0,24,25
 1968.59 1519.53 1968.59 1519.53 1910.61 1552.58 c 0,26,27
 1852.63 1585.63 1852.63 1585.63 1798.95 1607.06 c 0,28,29
 1745.26 1628.49 1745.26 1628.49 1678.89 1644.17 c 0,30,31
 1612.52 1659.85 1612.52 1659.85 1559.99 1667.9 c 0,32,33
 1507.46 1675.95 1507.46 1675.95 1442.78 1680.58 c 0,34,35
 1378.11 1685.2 1378.11 1685.2 1336.82 1686.2 c 0,36,37
 1295.53 1687.2 1295.53 1687.2 1243.2 1687.2 c 2,22,-1
 364.08 1687.2 l 1,23,-1
 1085.58 697.08 l 2,24,25
 1090.58 689.483 1090.58 689.483 1093.63 685.043 c 0,26,27
 1096.68 680.603 1096.68 680.603 1098.35 677.377 c 0,28,29
 1100.01 674.151 1100.01 674.151 1100.57 671.793 c 0,30,31
 1101.12 669.434 1101.12 669.434 1101.12 666 c 0,26,27
 1101.12 656.169 1101.12 656.169 1081.14 630.48 c 2,0,-1
EndSplineSet
EndChar
StartChar: product
Encoding: 8719 8719 154
Width: 2095
VWidth: 2220
Flags: W
HStem: -444 88.8<124.32 177.259 796.98 796.98 1296.48 1349.42 1969.14 1969.14> 1687.2 88.8<124.32 177.259 124.32 1525.14 124.32 1969.14>
VStem: 352.98 215.34<-227.361 1547.34> 1525.14 215.34<-227.361 1547.34>
Fore
1740.48 1511.82 m 2,0,-1
 1740.48 -179.82 l 2,1,2
 1740.48 -195.139 1740.48 -195.139 1740.74 -203.633 c 0,3,4
 1741 -212.126 1741 -212.126 1743.04 -228.555 c 0,5,6
 1745.08 -244.985 1745.08 -244.985 1748.9 -255.146 c 0,7,8
 1752.71 -265.308 1752.71 -265.308 1760.61 -280.105 c 0,9,10
 1768.5 -294.903 1768.5 -294.903 1779.64 -304.248 c 0,11,12
 1790.77 -313.593 1790.77 -313.593 1808.28 -324.274 c 0,13,14
 1825.8 -334.955 1825.8 -334.955 1848.01 -340.998 c 0,15,16
 1870.23 -347.042 1870.23 -347.042 1901.13 -351.121 c 0,17,18
 1932.03 -355.2 1932.03 -355.2 1969.14 -355.2 c 1,3,-1
 1969.14 -444 l 1,4,-1
 1296.48 -444 l 1,5,-1
 1296.48 -355.2 l 1,6,7
 1333.6 -355.2 1333.6 -355.2 1364.49 -351.121 c 0,8,9
 1395.39 -347.042 1395.39 -347.042 1417.61 -340.998 c 0,10,11
 1439.82 -334.955 1439.82 -334.955 1457.34 -324.274 c 0,12,13
 1474.85 -313.593 1474.85 -313.593 1485.98 -304.248 c 0,14,15
 1497.12 -294.903 1497.12 -294.903 1505.01 -280.105 c 0,16,17
 1512.91 -265.308 1512.91 -265.308 1516.72 -255.146 c 0,18,19
 1520.54 -244.985 1520.54 -244.985 1522.58 -228.555 c 0,20,21
 1524.62 -212.126 1524.62 -212.126 1524.88 -203.633 c 0,22,23
 1525.14 -195.139 1525.14 -195.139 1525.14 -179.82 c 2,8,-1
 1525.14 1687.2 l 1,9,-1
 568.32 1687.2 l 1,10,-1
 568.32 -179.82 l 2,11,12
 568.32 -195.141 568.32 -195.141 568.582 -203.633 c 0,13,14
 568.843 -212.124 568.843 -212.124 570.882 -228.555 c 0,15,16
 572.921 -244.986 572.921 -244.986 576.737 -255.146 c 0,17,18
 580.552 -265.307 580.552 -265.307 588.447 -280.105 c 0,19,20
 596.342 -294.904 596.342 -294.904 607.476 -304.248 c 0,21,22
 618.61 -313.593 618.61 -313.593 636.124 -324.274 c 0,23,24
 653.638 -334.955 653.638 -334.955 675.854 -340.999 c 0,25,26
 698.07 -347.042 698.07 -347.042 728.968 -351.121 c 0,27,28
 759.866 -355.2 759.866 -355.2 796.98 -355.2 c 1,13,-1
 796.98 -444 l 1,14,-1
 124.32 -444 l 1,15,-1
 124.32 -355.2 l 1,16,17
 161.435 -355.2 161.435 -355.2 192.333 -351.121 c 0,18,19
 223.23 -347.042 223.23 -347.042 245.447 -340.999 c 0,20,21
 267.663 -334.955 267.663 -334.955 285.177 -324.274 c 0,22,23
 302.691 -313.593 302.691 -313.593 313.825 -304.248 c 0,24,25
 324.959 -294.904 324.959 -294.904 332.854 -280.105 c 0,26,27
 340.748 -265.307 340.748 -265.307 344.564 -255.146 c 0,28,29
 348.38 -244.986 348.38 -244.986 350.419 -228.555 c 0,30,31
 352.458 -212.124 352.458 -212.124 352.719 -203.633 c 0,32,33
 352.98 -195.141 352.98 -195.141 352.98 -179.82 c 2,18,-1
 352.98 1511.82 l 2,19,20
 352.98 1527.14 352.98 1527.14 352.719 1535.63 c 0,21,22
 352.458 1544.12 352.458 1544.12 350.419 1560.56 c 0,23,24
 348.38 1576.99 348.38 1576.99 344.564 1587.15 c 0,25,26
 340.748 1597.31 340.748 1597.31 332.854 1612.11 c 0,27,28
 324.959 1626.9 324.959 1626.9 313.825 1636.25 c 0,29,30
 302.691 1645.59 302.691 1645.59 285.177 1656.27 c 0,31,32
 267.663 1666.96 267.663 1666.96 245.447 1673 c 0,33,34
 223.23 1679.04 223.23 1679.04 192.333 1683.12 c 0,35,36
 161.435 1687.2 161.435 1687.2 124.32 1687.2 c 1,21,-1
 124.32 1776 l 1,22,-1
 1969.14 1776 l 1,23,-1
 1969.14 1687.2 l 1,24,25
 1932.02 1687.2 1932.02 1687.2 1901.13 1683.12 c 0,26,27
 1870.23 1679.04 1870.23 1679.04 1848.01 1673 c 0,28,29
 1825.8 1666.95 1825.8 1666.95 1808.28 1656.27 c 0,30,31
 1790.77 1645.59 1790.77 1645.59 1779.64 1636.25 c 0,32,33
 1768.5 1626.9 1768.5 1626.9 1760.61 1612.11 c 0,34,35
 1752.71 1597.31 1752.71 1597.31 1748.9 1587.15 c 0,36,37
 1745.08 1576.98 1745.08 1576.98 1743.04 1560.56 c 0,38,39
 1741 1544.13 1741 1544.13 1740.74 1535.63 c 0,40,41
 1740.48 1527.14 1740.48 1527.14 1740.48 1511.82 c 2,0,-1
EndSplineSet
EndChar
StartChar: pi
Encoding: 960 960 155
Width: 1265
VWidth: 2220
Flags: W
HStem: -24.42 46.62G<278.61 326.34 826.95 865.8> 828.06 128.76<377.4 530.58 426.24 839.16 426.24 1174.38>
VStem: 745.92 111<255.3 475.08>
Fore
588.3 828.06 m 1,0,-1
 463.98 337.44 l 2,1,2
 427.196 195.965 427.196 195.965 404.04 119.88 c 0,3,4
 400.174 107.559 400.174 107.559 396.257 95.8796 c 0,5,6
 392.34 84.2002 392.34 84.2002 388.66 73.3311 c 0,7,8
 384.98 62.462 384.98 62.462 380.903 52.4875 c 0,9,10
 376.826 42.5131 376.826 42.5131 372.64 33.602 c 0,11,12
 368.454 24.691 368.454 24.691 363.525 16.9276 c 0,13,14
 358.596 9.16427 358.596 9.16427 353.211 2.71739 c 0,15,16
 347.826 -3.72949 347.826 -3.72949 341.352 -8.77556 c 0,17,18
 334.877 -13.8216 334.877 -13.8216 327.601 -17.2981 c 0,19,20
 320.325 -20.7747 320.325 -20.7747 311.612 -22.5973 c 0,21,22
 302.9 -24.4199 302.9 -24.4199 293.04 -24.4199 c 0,5,6
 268.223 -24.4199 268.223 -24.4199 248.442 -9.03428 c 0,7,8
 228.66 6.35137 228.66 6.35137 228.66 35.5195 c 0,7,8
 228.66 48.2847 228.66 48.2847 231.284 56.8117 c 0,9,10
 233.907 65.3387 233.907 65.3387 246.42 88.7998 c 0,9,10
 305.474 216.75 305.474 216.75 347.877 314.61 c 0,11,12
 390.28 412.471 390.28 412.471 443.923 557.85 c 0,13,14
 497.567 703.229 497.567 703.229 530.58 828.06 c 1,11,-1
 404.04 828.06 l 2,12,13
 386.897 828.06 386.897 828.06 374.563 827.07 c 0,14,15
 362.229 826.081 362.229 826.081 336.115 821.926 c 0,16,17
 310 817.771 310 817.771 286.482 806.494 c 0,18,19
 262.964 795.217 262.964 795.217 234.406 777.609 c 0,20,21
 205.847 760 205.847 760 176.941 728.938 c 0,22,23
 148.036 697.877 148.036 697.877 122.1 657.12 c 0,14,15
 117.278 650.46 117.278 650.46 113.428 645.465 c 0,16,17
 109.578 640.47 109.578 640.47 106.005 637.14 c 0,18,19
 102.432 633.81 102.432 633.81 97.7494 632.145 c 0,20,21
 93.0666 630.48 93.0666 630.48 86.5801 630.48 c 0,16,17
 74.6602 630.48 74.6602 630.48 68.0603 636.154 c 0,18,19
 61.4604 641.827 61.4604 641.827 60.7004 645.527 c 0,20,21
 59.9404 649.227 59.9404 649.227 59.9404 652.68 c 0,18,19
 59.9404 663.978 59.9404 663.978 101.824 729.451 c 0,20,21
 143.707 794.924 143.707 794.924 195.36 852.48 c 0,20,21
 229.744 889.208 229.744 889.208 264.014 912.402 c 0,22,23
 298.284 935.596 298.284 935.596 330.877 944.178 c 0,24,25
 363.47 952.76 363.47 952.76 381.535 954.79 c 0,26,27
 399.6 956.82 399.6 956.82 426.24 956.82 c 2,22,-1
 1169.94 956.82 l 2,23,24
 1186.99 956.82 1186.99 956.82 1195.9 956.446 c 0,25,26
 1204.8 956.073 1204.8 956.073 1218.9 953.358 c 0,27,28
 1232.99 950.643 1232.99 950.643 1240.15 945.364 c 0,29,30
 1247.32 940.085 1247.32 940.085 1253.03 929.488 c 0,31,32
 1258.74 918.892 1258.74 918.892 1258.74 903.54 c 0,25,26
 1258.74 828.06 1258.74 828.06 1149.96 828.06 c 2,27,-1
 896.88 828.06 l 1,28,29
 856.92 639.158 856.92 639.158 856.92 475.08 c 0,30,31
 856.92 268.62 856.92 268.62 921.3 108.78 c 0,32,33
 934.62 77.7002 934.62 77.7002 934.62 59.9404 c 0,34,35
 934.62 27.1772 934.62 27.1772 906.057 1.37866 c 0,36,37
 877.495 -24.4199 877.495 -24.4199 843.6 -24.4199 c 0,36,37
 815.315 -24.4199 815.315 -24.4199 797.208 -2.8455 c 0,38,39
 779.101 18.7289 779.101 18.7289 763.68 86.5801 c 0,38,39
 745.92 162.06 745.92 162.06 745.92 255.3 c 0,40,41
 745.92 361.239 745.92 361.239 763.086 462.553 c 0,42,43
 780.252 563.867 780.252 563.867 839.16 828.06 c 1,42,-1
 588.3 828.06 l 1,0,-1
EndSplineSet
EndChar
StartChar: integral
Encoding: 8747 8747 156
Width: 1149
VWidth: 2220
Flags: W
HStem: -479.52 48.84<279.72 299.7> -479.52 270.84<205.35 287.49> 1318.68 270.84<862.47 944.61> 1540.68 48.84<850.26 868.02>
Fore
949.05 1498.5 m 1,0,1
 944.855 1504.79 944.855 1504.79 936.708 1512.84 c 0,2,3
 928.561 1520.88 928.561 1520.88 908.112 1530.78 c 0,4,5
 887.663 1540.68 887.663 1540.68 864.69 1540.68 c 0,2,3
 841.522 1540.68 841.522 1540.68 822.727 1530.26 c 0,4,5
 803.932 1519.84 803.932 1519.84 790.381 1498.56 c 0,6,7
 776.831 1477.28 776.831 1477.28 766.877 1453.59 c 0,8,9
 756.923 1429.9 756.923 1429.9 749.27 1394.38 c 0,10,11
 741.616 1358.86 741.616 1358.86 736.927 1329.56 c 0,12,13
 732.238 1300.25 732.238 1300.25 727.05 1258.74 c 0,4,5
 716.391 1184.12 716.391 1184.12 691.53 932.4 c 0,6,7
 660.111 581.078 660.111 581.078 600.682 230.852 c 0,8,9
 541.252 -119.375 541.252 -119.375 511.71 -237.54 c 0,8,9
 499.248 -286.498 499.248 -286.498 480.906 -327.389 c 0,10,11
 462.565 -368.279 462.565 -368.279 435.85 -403.789 c 0,12,13
 409.135 -439.298 409.135 -439.298 371.086 -459.409 c 0,14,15
 333.037 -479.52 333.037 -479.52 287.49 -479.52 c 0,10,11
 210.571 -479.52 210.571 -479.52 162.45 -424.204 c 0,12,13
 114.33 -368.888 114.33 -368.888 114.33 -301.92 c 0,12,13
 114.33 -254.771 114.33 -254.771 142.158 -231.725 c 0,14,15
 169.987 -208.68 169.987 -208.68 205.35 -208.68 c 0,14,15
 240.668 -208.68 240.668 -208.68 267.409 -233.193 c 0,16,17
 294.15 -257.705 294.15 -257.705 294.15 -297.48 c 0,16,17
 294.15 -345.311 294.15 -345.311 266.482 -365.853 c 0,18,19
 238.813 -386.395 238.813 -386.395 200.91 -388.5 c 1,18,19
 205.105 -394.793 205.105 -394.793 213.252 -402.838 c 0,20,21
 221.399 -410.883 221.399 -410.883 241.848 -420.782 c 0,22,23
 262.297 -430.68 262.297 -430.68 285.27 -430.68 c 0,20,21
 307.837 -430.68 307.837 -430.68 326.291 -420.605 c 0,22,23
 344.746 -410.531 344.746 -410.531 357.93 -390.527 c 0,24,25
 371.115 -370.523 371.115 -370.523 380.866 -348.229 c 0,26,27
 390.618 -325.935 390.618 -325.935 397.89 -293.669 c 0,28,29
 405.162 -261.403 405.162 -261.403 409.542 -235.153 c 0,30,31
 413.921 -208.903 413.921 -208.903 418.47 -173.16 c 0,22,23
 432.574 -83.8353 432.574 -83.8353 458.43 177.6 c 0,24,25
 489.849 528.922 489.849 528.922 549.278 879.148 c 0,26,27
 608.708 1229.37 608.708 1229.37 638.25 1347.54 c 0,26,27
 650.712 1396.5 650.712 1396.5 669.054 1437.39 c 0,28,29
 687.395 1478.28 687.395 1478.28 714.11 1513.79 c 0,30,31
 740.825 1549.3 740.825 1549.3 778.874 1569.41 c 0,32,33
 816.923 1589.52 816.923 1589.52 862.47 1589.52 c 0,28,29
 939.389 1589.52 939.389 1589.52 987.51 1534.2 c 0,30,31
 1035.63 1478.89 1035.63 1478.89 1035.63 1411.92 c 0,30,31
 1035.63 1364.77 1035.63 1364.77 1007.8 1341.73 c 0,32,33
 979.973 1318.68 979.973 1318.68 944.61 1318.68 c 0,32,33
 909.292 1318.68 909.292 1318.68 882.551 1343.19 c 0,34,35
 855.81 1367.71 855.81 1367.71 855.81 1407.48 c 0,34,35
 855.81 1455.31 855.81 1455.31 883.478 1475.85 c 0,36,37
 911.147 1496.39 911.147 1496.39 949.05 1498.5 c 1,0,1
EndSplineSet
EndChar
StartChar: ordfeminine
Encoding: 170 170 157
Width: 1233
Flags: W
Fore
786 1049 m 2,0,-1
 786 1079 l 1,1,-1
 684 1079 l 2,2,3
 575 1079 575 1079 525 1053 c 128,-1,4
 475 1027 475 1027 475 971 c 0,5,6
 475 922 475 922 505.5 894 c 128,-1,7
 536 866 536 866 590 866 c 0,8,9
 676 866 676 866 731 917.5 c 128,-1,10
 786 969 786 969 786 1049 c 2,0,-1
786 809 m 1,11,12
 736 752 736 752 675.5 725 c 128,-1,13
 615 698 615 698 537 698 c 0,14,15
 407 698 407 698 331.5 766.5 c 128,-1,16
 256 835 256 835 256 952 c 0,17,18
 256 1086 256 1086 348.5 1152.5 c 128,-1,19
 441 1219 441 1219 629 1219 c 2,20,-1
 786 1219 l 1,21,-1
 786 1245 l 2,22,23
 786 1294 786 1294 740.5 1318.5 c 128,-1,24
 695 1343 695 1343 604 1343 c 0,25,26
 522 1343 522 1343 450.5 1326.5 c 128,-1,27
 379 1310 379 1310 315 1276 c 1,28,-1
 315 1464 l 1,29,30
 388 1492 388 1492 462 1506 c 128,-1,31
 536 1520 536 1520 612 1520 c 0,32,33
 801 1520 801 1520 890 1434 c 128,-1,34
 979 1348 979 1348 979 1165 c 2,35,-1
 979 717 l 1,36,-1
 786 717 l 1,37,-1
 786 809 l 1,11,12
293 598 m 1,38,-1
 981 598 l 1,39,-1
 981 428 l 1,40,-1
 293 428 l 1,41,-1
 293 598 l 1,38,-1
EndSplineSet
EndChar
StartChar: ordmasculine
Encoding: 186 186 158
Width: 1233
Flags: W
Fore
293 598 m 1,0,-1
 981 598 l 1,1,-1
 981 428 l 1,2,-1
 293 428 l 1,3,-1
 293 598 l 1,0,-1
274 1108 m 256,4,5
 274 1297 274 1297 372.5 1408.5 c 128,-1,6
 471 1520 471 1520 637 1520 c 256,7,8
 803 1520 803 1520 901 1409 c 128,-1,9
 999 1298 999 1298 999 1108 c 0,10,11
 999 919 999 919 901.5 808.5 c 128,-1,12
 804 698 804 698 637 698 c 0,13,14
 471 698 471 698 372.5 808.5 c 128,-1,15
 274 919 274 919 274 1108 c 256,4,5
637 1343 m 256,16,17
 564 1343 564 1343 521.5 1280 c 128,-1,18
 479 1217 479 1217 479 1108 c 256,19,20
 479 999 479 999 521.5 936.5 c 128,-1,21
 564 874 564 874 637 874 c 256,22,23
 710 874 710 874 752.5 936.5 c 128,-1,24
 795 999 795 999 795 1108 c 256,25,26
 795 1217 795 1217 752.5 1280 c 128,-1,27
 710 1343 710 1343 637 1343 c 256,16,17
EndSplineSet
EndChar
StartChar: Omega
Encoding: 937 937 159
Width: 1602
VWidth: 2220
Flags: W
HStem: 0 144.3<339.66 517.26 1083.36 1260.96 1260.96 1325.34> 1516.26 48.84<698.19 905.76>
VStem: 124.32 228.66<926.85 1159.95> 517.26 64.38 1018.98 64.38 1247.64 228.66<926.85 1162.17>
Fore
1502.94 359.64 m 1,0,-1
 1429.68 0 l 1,1,-1
 1076.7 0 l 2,2,3
 1036.74 0 1036.74 0 1027.86 6.4303 c 0,4,5
 1018.98 12.8606 1018.98 12.8606 1018.98 46.6201 c 0,4,5
 1018.98 200.694 1018.98 200.694 1123.32 492.84 c 0,6,7
 1155.51 583.861 1155.51 583.861 1171.25 631.312 c 0,8,9
 1186.98 678.763 1186.98 678.763 1208.28 753.031 c 0,10,11
 1229.58 827.3 1229.58 827.3 1238.61 888.901 c 0,12,13
 1247.64 950.502 1247.64 950.502 1247.64 1010.1 c 0,8,9
 1247.64 1110.54 1247.64 1110.54 1221.42 1195.31 c 0,10,11
 1195.2 1280.08 1195.2 1280.08 1151.21 1338.3 c 0,12,13
 1107.23 1396.52 1107.23 1396.52 1049.08 1437.41 c 0,14,15
 990.925 1478.31 990.925 1478.31 927.719 1497.28 c 0,16,17
 864.513 1516.26 864.513 1516.26 799.2 1516.26 c 0,10,11
 736.741 1516.26 736.741 1516.26 675.129 1498.18 c 0,12,13
 613.517 1480.09 613.517 1480.09 554.946 1439.93 c 0,14,15
 496.376 1399.77 496.376 1399.77 451.779 1342.17 c 0,16,17
 407.183 1284.57 407.183 1284.57 380.082 1198.68 c 0,18,19
 352.98 1112.78 352.98 1112.78 352.98 1010.1 c 0,12,13
 352.98 951.105 352.98 951.105 362.45 887.683 c 0,14,15
 371.92 824.26 371.92 824.26 390.859 757.371 c 0,16,17
 409.797 690.482 409.797 690.482 424.124 647.16 c 0,18,19
 438.451 603.837 438.451 603.837 461.76 539.46 c 0,14,15
 496.568 442.603 496.568 442.603 517.452 378.517 c 0,16,17
 538.336 314.431 538.336 314.431 559.988 216.443 c 0,18,19
 581.64 118.455 581.64 118.455 581.64 46.6201 c 0,16,17
 581.64 12.9036 581.64 12.9036 573.037 6.45182 c 0,18,19
 564.435 0 564.435 0 526.14 0 c 2,18,-1
 170.94 0 l 1,19,-1
 97.6797 359.64 l 1,20,-1
 153.18 359.64 l 1,21,22
 176.427 243.41 176.427 243.41 193.14 195.36 c 0,23,24
 198.319 179.822 198.319 179.822 202.969 172.825 c 0,25,26
 207.619 165.828 207.619 165.828 221.918 157.851 c 0,27,28
 236.218 149.874 236.218 149.874 264.366 147.087 c 0,29,30
 292.514 144.3 292.514 144.3 339.66 144.3 c 2,25,-1
 517.26 144.3 l 1,26,27
 506.835 189.208 506.835 189.208 489.773 232.19 c 0,28,29
 472.711 275.172 472.711 275.172 442.454 327.597 c 0,30,31
 412.197 380.021 412.197 380.021 389.526 415.479 c 0,32,33
 366.855 450.937 366.855 450.937 319.68 521.7 c 0,28,29
 273.744 591.092 273.744 591.092 244.002 641.661 c 0,30,31
 214.259 692.229 214.259 692.229 184.007 755.968 c 0,32,33
 153.755 819.708 153.755 819.708 139.038 882.253 c 0,34,35
 124.32 944.798 124.32 944.798 124.32 1007.88 c 0,30,31
 124.32 1120.29 124.32 1120.29 176.901 1222.98 c 0,32,33
 229.481 1325.67 229.481 1325.67 319.2 1400.82 c 0,34,35
 408.919 1475.96 408.919 1475.96 535.014 1520.53 c 0,36,37
 661.109 1565.1 661.109 1565.1 801.42 1565.1 c 0,32,33
 939.627 1565.1 939.627 1565.1 1064.73 1521.1 c 0,34,35
 1189.84 1477.1 1189.84 1477.1 1279.97 1402.54 c 0,36,37
 1370.09 1327.97 1370.09 1327.97 1423.2 1224.8 c 0,38,39
 1476.3 1121.63 1476.3 1121.63 1476.3 1007.88 c 0,34,35
 1476.3 944.798 1476.3 944.798 1461.58 882.253 c 0,36,37
 1446.86 819.708 1446.86 819.708 1416.61 755.969 c 0,38,39
 1386.36 692.23 1386.36 692.23 1356.62 641.661 c 0,40,41
 1326.88 591.091 1326.88 591.091 1280.94 521.7 c 0,36,37
 1192.83 392.467 1192.83 392.467 1147.99 311.012 c 0,38,39
 1103.15 229.558 1103.15 229.558 1083.36 144.3 c 1,38,-1
 1260.96 144.3 l 2,39,40
 1308.26 144.3 1308.26 144.3 1336.29 147.111 c 0,41,42
 1364.32 149.923 1364.32 149.923 1378.67 158.138 c 0,43,44
 1393.02 166.354 1393.02 166.354 1397.68 173.751 c 0,45,46
 1402.35 181.148 1402.35 181.148 1407.48 197.58 c 0,41,42
 1425.53 245.715 1425.53 245.715 1447.44 359.64 c 1,43,-1
 1502.94 359.64 l 1,0,-1
EndSplineSet
EndChar
StartChar: ae
Encoding: 230 230 160
Width: 1233
Flags: W
Fore
489 401 m 1,0,-1
 489 483 l 1,1,-1
 416 483 l 2,2,3
 329 483 329 483 284.5 444 c 128,-1,4
 240 405 240 405 240 330 c 0,5,6
 240 259 240 259 272 221.5 c 128,-1,7
 304 184 304 184 365 184 c 0,8,9
 428 184 428 184 458.5 227 c 128,-1,10
 489 270 489 270 489 358 c 2,11,-1
 489 401 l 1,0,-1
963 690 m 1,12,-1
 963 713 l 2,13,14
 963 838 963 838 938 885 c 128,-1,15
 913 932 913 932 850 932 c 256,16,17
 787 932 787 932 762 885 c 128,-1,18
 737 838 737 838 737 713 c 2,19,-1
 737 690 l 1,20,-1
 963 690 l 1,12,-1
1188 479 m 1,21,-1
 737 479 l 1,22,23
 737 335 737 335 787 259.5 c 128,-1,24
 837 184 837 184 932 184 c 0,25,26
 992 184 992 184 1052 213.5 c 128,-1,27
 1112 243 1112 243 1171 301 c 1,28,-1
 1171 57 l 1,29,30
 1121 13 1121 13 1058.5 -8 c 128,-1,31
 996 -29 996 -29 913 -29 c 0,32,33
 810 -29 810 -29 735 13 c 128,-1,34
 660 55 660 55 618 135 c 1,35,36
 577 51 577 51 511.5 11 c 128,-1,37
 446 -29 446 -29 348 -29 c 0,38,39
 188 -29 188 -29 101 63.5 c 128,-1,40
 14 156 14 156 14 326 c 0,41,42
 14 511 14 511 115 602.5 c 128,-1,43
 216 694 216 694 420 694 c 2,44,-1
 496 694 l 1,45,-1
 496 745 l 2,46,47
 496 838 496 838 457 885 c 128,-1,48
 418 932 418 932 342 932 c 0,49,50
 285 932 285 932 217.5 904.5 c 128,-1,51
 150 877 150 877 76 823 c 1,52,-1
 76 1069 l 1,53,54
 150 1108 150 1108 220 1127.5 c 128,-1,55
 290 1147 290 1147 354 1147 c 0,56,57
 452 1147 452 1147 514.5 1116 c 128,-1,58
 577 1085 577 1085 612 1020 c 1,59,60
 641 1081 641 1081 706.5 1114 c 128,-1,61
 772 1147 772 1147 864 1147 c 0,62,63
 1041 1147 1041 1147 1114.5 1028 c 128,-1,64
 1188 909 1188 909 1188 606 c 2,65,-1
 1188 479 l 1,21,-1
EndSplineSet
EndChar
StartChar: oslash
Encoding: 248 248 161
Width: 1233
Flags: W
Fore
831 675 m 1,0,-1
 483 262 l 1,1,2
 514 235 514 235 547 222 c 128,-1,3
 580 209 580 209 618 209 c 0,4,5
 722 209 722 209 782 302.5 c 128,-1,6
 842 396 842 396 842 559 c 0,7,8
 842 588 842 588 839.5 617 c 128,-1,9
 837 646 837 646 831 675 c 1,0,-1
399 449 m 1,10,-1
 745 860 l 1,11,12
 719 885 719 885 688 897 c 128,-1,13
 657 909 657 909 618 909 c 0,14,15
 512 909 512 909 451.5 816.5 c 128,-1,16
 391 724 391 724 391 559 c 0,17,18
 391 525 391 525 393 499 c 128,-1,19
 395 473 395 473 399 449 c 1,10,-1
188 199 m 1,20,21
 143 272 143 272 120.5 361 c 128,-1,22
 98 450 98 450 98 559 c 0,23,24
 98 830 98 830 238.5 988.5 c 128,-1,25
 379 1147 379 1147 616 1147 c 0,26,27
 701 1147 701 1147 774.5 1125.5 c 128,-1,28
 848 1104 848 1104 915 1059 c 1,29,-1
 1063 1235 l 1,30,-1
 1202 1114 l 1,31,-1
 1042 926 l 1,32,33
 1088 850 1088 850 1111.5 758 c 128,-1,34
 1135 666 1135 666 1135 559 c 0,35,36
 1135 288 1135 288 994.5 129.5 c 128,-1,37
 854 -29 854 -29 616 -29 c 0,38,39
 533 -29 533 -29 457.5 -6.5 c 128,-1,40
 382 16 382 16 315 61 c 1,41,-1
 164 -117 l 1,42,-1
 25 2 l 1,43,-1
 188 199 l 1,20,21
EndSplineSet
EndChar
StartChar: questiondown
Encoding: 191 191 162
Width: 1233
Flags: W
Fore
799 1210 m 1,0,-1
 532 1210 l 1,1,-1
 532 1493 l 1,2,-1
 799 1493 l 1,3,-1
 799 1210 l 1,0,-1
532 1092 m 1,4,-1
 799 1092 l 1,5,-1
 799 938 l 2,6,7
 799 839 799 839 768 768.5 c 128,-1,8
 737 698 737 698 657 621 c 2,9,-1
 567 532 l 2,10,11
 506 473 506 473 483.5 432.5 c 128,-1,12
 461 392 461 392 461 348 c 0,13,14
 461 281 461 281 507 247 c 128,-1,15
 553 213 553 213 645 213 c 0,16,17
 728 213 728 213 818.5 248.5 c 128,-1,18
 909 284 909 284 1006 354 c 1,19,-1
 1006 86 l 1,20,21
 908 30 908 30 807.5 1.5 c 128,-1,22
 707 -27 707 -27 606 -27 c 0,23,24
 405 -27 405 -27 290.5 67 c 128,-1,25
 176 161 176 161 176 326 c 0,26,27
 176 402 176 402 210 467.5 c 128,-1,28
 244 533 244 533 338 625 c 2,29,-1
 426 711 l 2,30,31
 492 775 492 775 511 817 c 128,-1,32
 530 859 530 859 530 922 c 0,33,34
 530 923 530 923 531 928 c 1,35,36
 532 949 532 949 532 969 c 2,37,-1
 532 1092 l 1,4,-1
EndSplineSet
EndChar
StartChar: exclamdown
Encoding: 161 161 163
Width: 1233
Flags: W
Fore
750 1210 m 1,0,-1
 483 1210 l 1,1,-1
 483 1493 l 1,2,-1
 750 1493 l 1,3,-1
 750 1210 l 1,0,-1
750 0 m 1,4,-1
 483 0 l 1,5,-1
 483 655 l 1,6,-1
 516 1012 l 1,7,-1
 715 1012 l 1,8,-1
 750 655 l 1,9,-1
 750 0 l 1,4,-1
EndSplineSet
EndChar
StartChar: logicalnot
Encoding: 172 172 164
Width: 1478
VWidth: 2220
Flags: W
HStem: 701.52 88.8<161.384 1267.62>
VStem: 1265.4 88.8<233.666 701.52>
Fore
1354.2 717.06 m 2,0,-1
 1354.2 270.84 l 2,1,2
 1354.2 257.254 1354.2 257.254 1353.89 250.008 c 0,3,4
 1353.58 242.761 1353.58 242.761 1351.31 231.093 c 0,5,6
 1349.04 219.425 1349.04 219.425 1344.66 213.351 c 0,7,8
 1340.27 207.277 1340.27 207.277 1331.42 202.428 c 0,9,10
 1322.57 197.58 1322.57 197.58 1309.8 197.58 c 0,3,4
 1297.03 197.58 1297.03 197.58 1288.18 202.428 c 0,5,6
 1279.33 207.277 1279.33 207.277 1274.94 213.351 c 0,7,8
 1270.56 219.425 1270.56 219.425 1268.29 231.093 c 0,9,10
 1266.02 242.761 1266.02 242.761 1265.71 250.008 c 0,11,12
 1265.4 257.254 1265.4 257.254 1265.4 270.84 c 2,5,-1
 1265.4 701.52 l 1,6,-1
 197.58 701.52 l 2,7,8
 181.346 701.52 181.346 701.52 172.258 702.369 c 0,9,10
 163.17 703.218 163.17 703.218 150.058 706.914 c 0,11,12
 136.946 710.611 136.946 710.611 130.633 720.406 c 0,13,14
 124.32 730.202 124.32 730.202 124.32 745.92 c 0,9,10
 124.32 761.638 124.32 761.638 130.633 771.433 c 0,11,12
 136.946 781.229 136.946 781.229 150.058 784.926 c 0,13,14
 163.17 788.622 163.17 788.622 172.258 789.471 c 0,15,16
 181.346 790.32 181.346 790.32 197.58 790.32 c 2,11,-1
 1280.94 790.32 l 2,12,13
 1329.23 790.32 1329.23 790.32 1341.71 777.833 c 0,14,15
 1354.2 765.345 1354.2 765.345 1354.2 717.06 c 2,0,-1
EndSplineSet
EndChar
StartChar: radical
Encoding: 8730 8730 165
Width: 1218
VWidth: 2220
Flags: W
DStem: 121 461 156 520 363 -35 353 123 156 520 121 461 10 449 26 414 480 913 515 908 353 123 363 -35
Fore
805.86 -77.7002 m 1,0,-1
 268.62 1023.42 l 1,1,-1
 57.7197 919.08 l 1,2,-1
 22.2002 996.78 l 1,3,-1
 346.32 1154.4 l 1,4,-1
 783.66 273.06 l 1,5,-1
 1065.6 2026.86 l 1,6,-1
 1143.3 2015.76 l 1,7,-1
 805.86 -77.7002 l 1,0,-1
EndSplineSet
EndChar
StartChar: florin
Encoding: 402 402 166
Width: 1233
Flags: W
Fore
1153 1505 m 1,0,-1
 1153 1274 l 1,1,2
 1112 1299 1112 1299 1071 1312 c 128,-1,3
 1030 1325 1030 1325 993 1325 c 0,4,5
 899 1325 899 1325 847.5 1265 c 128,-1,6
 796 1205 796 1205 778 1075 c 2,7,-1
 754 885 l 1,8,-1
 1014 885 l 1,9,-1
 1014 666 l 1,10,-1
 725 666 l 1,11,-1
 631 -47 l 2,12,13
 606 -228 606 -228 505 -327 c 128,-1,14
 404 -426 404 -426 244 -426 c 0,15,16
 182 -426 182 -426 124.5 -413.5 c 128,-1,17
 67 -401 67 -401 12 -375 c 1,18,-1
 12 -141 l 1,19,20
 55 -168 55 -168 95 -181.5 c 128,-1,21
 135 -195 135 -195 174 -195 c 0,22,23
 269 -195 269 -195 321.5 -134.5 c 128,-1,24
 374 -74 374 -74 391 55 c 2,25,-1
 471 666 l 1,26,-1
 219 666 l 1,27,-1
 219 885 l 1,28,-1
 500 885 l 1,29,-1
 539 1178 l 2,30,31
 563 1358 563 1358 664.5 1457 c 128,-1,32
 766 1556 766 1556 926 1556 c 0,33,34
 986 1556 986 1556 1042 1543.5 c 128,-1,35
 1098 1531 1098 1531 1153 1505 c 1,0,-1
EndSplineSet
EndChar
StartChar: approxequal
Encoding: 8776 8776 167
Width: 1724
VWidth: 2220
Flags: W
HStem: 124.32 124.32<1190.2 1263.18> 430.68 124.32<492.84 517.26> 641.58 124.32<1190.2 1263.18> 947.94 124.32<492.84 517.26>
VStem: 124.32 62.16<173.16 193.14 690.42 710.4>
Fore
1600.62 1003.44 m 0,0,1
 1600.62 902.147 1600.62 902.147 1551.32 818.832 c 0,2,3
 1502.03 735.517 1502.03 735.517 1417.56 688.549 c 0,4,5
 1333.08 641.58 1333.08 641.58 1232.1 641.58 c 0,2,3
 1181.7 641.58 1181.7 641.58 1133.01 653.1 c 0,4,5
 1084.31 664.621 1084.31 664.621 1034.09 689.792 c 0,6,7
 983.871 714.963 983.871 714.963 955.618 731.772 c 0,8,9
 927.364 748.58 927.364 748.58 876.9 781.44 c 0,4,5
 817.78 820.564 817.78 820.564 790.129 838.245 c 0,6,7
 762.478 855.927 762.478 855.927 716.506 882.077 c 0,8,9
 670.534 908.228 670.534 908.228 640.447 919.231 c 0,10,11
 610.36 930.234 610.36 930.234 571.087 939.087 c 0,12,13
 531.814 947.94 531.814 947.94 492.84 947.94 c 0,6,7
 457.588 947.94 457.588 947.94 419.318 939.805 c 0,8,9
 381.047 931.669 381.047 931.669 340.348 912.28 c 0,10,11
 299.649 892.891 299.649 892.891 267.044 864.786 c 0,12,13
 234.438 836.682 234.438 836.682 212.05 792.506 c 0,14,15
 189.663 748.331 189.663 748.331 186.48 694.86 c 0,8,9
 186.48 680.561 186.48 680.561 178.859 662.18 c 0,10,11
 171.238 643.8 171.238 643.8 155.4 643.8 c 0,10,11
 142.314 643.8 142.314 643.8 133.317 660.08 c 0,12,13
 124.32 676.36 124.32 676.36 124.32 710.4 c 0,12,13
 124.32 811.694 124.32 811.694 173.616 895.009 c 0,14,15
 222.911 978.323 222.911 978.323 307.384 1025.29 c 0,16,17
 391.857 1072.26 391.857 1072.26 492.84 1072.26 c 0,14,15
 543.234 1072.26 543.234 1072.26 591.931 1060.74 c 0,16,17
 640.627 1049.22 640.627 1049.22 690.848 1024.05 c 0,18,19
 741.069 998.877 741.069 998.877 769.323 982.068 c 0,20,21
 797.576 965.26 797.576 965.26 848.04 932.4 c 0,16,17
 907.157 893.278 907.157 893.278 934.811 875.595 c 0,18,19
 962.465 857.912 962.465 857.912 1008.43 831.763 c 0,20,21
 1054.4 805.613 1054.4 805.613 1084.49 794.61 c 0,22,23
 1114.58 783.606 1114.58 783.606 1153.85 774.753 c 0,24,25
 1193.13 765.9 1193.13 765.9 1232.1 765.9 c 0,18,19
 1304.59 765.9 1304.59 765.9 1372.28 794.703 c 0,20,21
 1439.96 823.505 1439.96 823.505 1487.08 880.657 c 0,22,23
 1534.21 937.809 1534.21 937.809 1538.46 1010.1 c 0,20,21
 1544.45 1070.04 1544.45 1070.04 1569.54 1070.04 c 0,22,23
 1582.39 1070.04 1582.39 1070.04 1591.51 1053.11 c 0,24,25
 1600.62 1036.19 1600.62 1036.19 1600.62 1003.44 c 0,0,1
1600.62 483.96 m 0,24,25
 1600.62 386.313 1600.62 386.313 1552.47 303.778 c 0,26,27
 1504.32 221.243 1504.32 221.243 1419.37 172.782 c 0,28,29
 1334.41 124.32 1334.41 124.32 1232.1 124.32 c 0,26,27
 1181.7 124.32 1181.7 124.32 1133.01 135.841 c 0,28,29
 1084.31 147.361 1084.31 147.361 1034.09 172.531 c 0,30,31
 983.873 197.702 983.873 197.702 955.617 214.511 c 0,32,33
 927.362 231.321 927.362 231.321 876.9 264.18 c 0,28,29
 817.782 303.303 817.782 303.303 790.129 320.985 c 0,30,31
 762.476 338.667 762.476 338.667 716.506 364.817 c 0,32,33
 670.535 390.967 670.535 390.967 640.447 401.97 c 0,34,35
 610.359 412.974 610.359 412.974 571.087 421.827 c 0,36,37
 531.814 430.68 531.814 430.68 492.84 430.68 c 0,30,31
 457.588 430.68 457.588 430.68 419.318 422.544 c 0,32,33
 381.047 414.408 381.047 414.408 340.348 395.019 c 0,34,35
 299.649 375.63 299.649 375.63 267.044 347.526 c 0,36,37
 234.438 319.421 234.438 319.421 212.05 275.246 c 0,38,39
 189.663 231.071 189.663 231.071 186.48 177.6 c 0,32,33
 186.48 163.301 186.48 163.301 178.859 144.92 c 0,34,35
 171.238 126.54 171.238 126.54 155.4 126.54 c 0,34,35
 142.314 126.54 142.314 126.54 133.317 142.82 c 0,36,37
 124.32 159.1 124.32 159.1 124.32 193.14 c 0,36,37
 124.32 294.433 124.32 294.433 173.616 377.748 c 0,38,39
 222.911 461.063 222.911 461.063 307.384 508.031 c 0,40,41
 391.857 555 391.857 555 492.84 555 c 0,38,39
 543.235 555 543.235 555 591.931 543.48 c 0,40,41
 640.627 531.959 640.627 531.959 690.848 506.788 c 0,42,43
 741.068 481.617 741.068 481.617 769.323 464.808 c 0,44,45
 797.578 447.999 797.578 447.999 848.04 415.14 c 0,40,41
 907.161 376.016 907.161 376.016 934.812 358.335 c 0,42,43
 962.463 340.653 962.463 340.653 1008.43 314.503 c 0,44,45
 1054.41 288.352 1054.41 288.352 1084.49 277.349 c 0,46,47
 1114.58 266.346 1114.58 266.346 1153.85 257.493 c 0,48,49
 1193.13 248.64 1193.13 248.64 1232.1 248.64 c 0,42,43
 1349.9 248.64 1349.9 248.64 1440 317.568 c 0,44,45
 1530.11 386.496 1530.11 386.496 1538.46 481.74 c 0,44,45
 1539.85 502.542 1539.85 502.542 1542.02 515.801 c 0,46,47
 1544.2 529.059 1544.2 529.059 1551.18 540.92 c 0,48,49
 1558.16 552.78 1558.16 552.78 1569.54 552.78 c 0,46,47
 1582.24 552.78 1582.24 552.78 1591.43 534.835 c 0,48,49
 1600.62 516.89 1600.62 516.89 1600.62 483.96 c 0,24,25
EndSplineSet
EndChar
StartChar: uni2206
Encoding: 8710 8710 168
Width: 1849
VWidth: 2220
Flags: W
HStem: 0 168.72<253.08 1449.66> 1545.12 44.4<904.65 942.39>
VStem: 104.34 1638.36<8.88 18.87>
Fore
981.24 1549.56 m 2,0,-1
 1731.6 44.4004 l 2,1,2
 1742.7 24.4199 1742.7 24.4199 1742.7 17.7598 c 0,3,4
 1742.7 5.39138 1742.7 5.39138 1733.27 2.69569 c 0,5,6
 1723.83 0 1723.83 0 1693.86 0 c 2,5,-1
 153.18 0 l 2,6,7
 131.967 0 131.967 0 123.827 0.690653 c 0,8,9
 115.687 1.38131 115.687 1.38131 110.013 5.22927 c 0,10,11
 104.34 9.07723 104.34 9.07723 104.34 17.7598 c 0,8,9
 104.34 24.4199 104.34 24.4199 115.44 44.4004 c 2,10,-1
 865.8 1549.56 l 2,11,12
 875.562 1567.69 875.562 1567.69 879.86 1573.7 c 0,13,14
 884.158 1579.71 884.158 1579.71 894.66 1584.62 c 0,15,16
 905.162 1589.52 905.162 1589.52 923.52 1589.52 c 0,13,14
 941.878 1589.52 941.878 1589.52 952.38 1584.62 c 0,15,16
 962.882 1579.71 962.882 1579.71 967.18 1573.7 c 0,17,18
 971.478 1567.69 971.478 1567.69 981.24 1549.56 c 2,0,-1
852.48 1367.52 m 1,15,-1
 253.08 168.72 l 1,16,-1
 1449.66 168.72 l 1,17,-1
 852.48 1367.52 l 1,15,-1
EndSplineSet
EndChar
StartChar: guillemotleft
Encoding: 171 171 169
Width: 1233
Flags: W
Fore
1042 1059 m 1,0,-1
 1042 821 l 1,1,-1
 766 600 l 1,2,-1
 1042 379 l 1,3,-1
 1042 141 l 1,4,-1
 573 535 l 1,5,-1
 573 666 l 1,6,-1
 1042 1059 l 1,0,-1
588 1059 m 1,7,-1
 588 821 l 1,8,-1
 311 600 l 1,9,-1
 588 379 l 1,10,-1
 588 141 l 1,11,-1
 119 535 l 1,12,-1
 119 666 l 1,13,-1
 588 1059 l 1,7,-1
EndSplineSet
EndChar
StartChar: guillemotright
Encoding: 187 187 170
Width: 1233
Flags: W
Fore
193 1059 m 1,0,-1
 662 666 l 1,1,-1
 662 535 l 1,2,-1
 193 141 l 1,3,-1
 193 379 l 1,4,-1
 469 600 l 1,5,-1
 193 821 l 1,6,-1
 193 1059 l 1,0,-1
647 1059 m 1,7,-1
 1116 666 l 1,8,-1
 1116 535 l 1,9,-1
 647 141 l 1,10,-1
 647 379 l 1,11,-1
 924 600 l 1,12,-1
 647 821 l 1,13,-1
 647 1059 l 1,7,-1
EndSplineSet
EndChar
StartChar: ellipsis
Encoding: 8230 8230 171
Width: 2220
VWidth: 2220
Flags: W
HStem: -28.86 46.62G<336.33 405.15 1075.59 1144.41 1814.85 1883.67>
VStem: 246.42 248.64<97.68 115.44> 985.68 248.64<97.68 115.44> 1724.94 248.64<97.68 115.44>
Fore
372.96 222 m 0,0,1
 421.421 222 421.421 222 458.24 184.726 c 0,2,3
 495.06 147.452 495.06 147.452 495.06 97.6797 c 0,2,3
 495.06 45.8527 495.06 45.8527 458.603 8.49618 c 0,4,5
 422.147 -28.8604 422.147 -28.8604 370.74 -28.8604 c 0,4,5
 319.332 -28.8604 319.332 -28.8604 282.876 8.49614 c 0,6,7
 246.42 45.8526 246.42 45.8526 246.42 97.6797 c 0,6,7
 246.42 149.088 246.42 149.088 283.776 185.544 c 0,8,9
 321.132 222 321.132 222 372.96 222 c 0,0,1
1112.22 222 m 0,8,9
 1160.68 222 1160.68 222 1197.5 184.726 c 0,10,11
 1234.32 147.452 1234.32 147.452 1234.32 97.6797 c 0,10,11
 1234.32 45.8526 1234.32 45.8526 1197.86 8.49614 c 0,12,13
 1161.41 -28.8604 1161.41 -28.8604 1110 -28.8604 c 0,12,13
 1058.59 -28.8604 1058.59 -28.8604 1022.14 8.49614 c 0,14,15
 985.68 45.8526 985.68 45.8526 985.68 97.6797 c 0,14,15
 985.68 149.087 985.68 149.087 1023.04 185.544 c 0,16,17
 1060.39 222 1060.39 222 1112.22 222 c 0,8,9
1851.48 222 m 0,16,17
 1899.94 222 1899.94 222 1936.76 184.726 c 0,18,19
 1973.58 147.452 1973.58 147.452 1973.58 97.6797 c 0,18,19
 1973.58 45.8526 1973.58 45.8526 1937.12 8.49614 c 0,20,21
 1900.67 -28.8604 1900.67 -28.8604 1849.26 -28.8604 c 0,20,21
 1797.85 -28.8604 1797.85 -28.8604 1761.4 8.49618 c 0,22,23
 1724.94 45.8527 1724.94 45.8527 1724.94 97.6797 c 0,22,23
 1724.94 149.088 1724.94 149.088 1762.3 185.544 c 0,24,25
 1799.65 222 1799.65 222 1851.48 222 c 0,16,17
EndSplineSet
EndChar
StartChar: OE
Encoding: 338 338 176
Width: 1233
Flags: W
Fore
1217 260 m 1,0,-1
 1217 0 l 1,1,-1
 633 0 l 2,2,3
 309 0 309 0 188.5 155.5 c 128,-1,4
 68 311 68 311 68 745 c 0,5,6
 68 1181 68 1181 189 1337 c 128,-1,7
 310 1493 310 1493 633 1493 c 2,8,-1
 1206 1493 l 1,9,-1
 1206 1233 l 1,10,-1
 874 1233 l 1,11,-1
 874 922 l 1,12,-1
 1176 922 l 1,13,-1
 1176 662 l 1,14,-1
 874 662 l 1,15,-1
 874 260 l 1,16,-1
 1217 260 l 1,0,-1
569 1233 m 2,17,18
 446 1233 446 1233 400 1144 c 128,-1,19
 354 1055 354 1055 354 745 c 0,20,21
 354 434 354 434 399.5 347 c 128,-1,22
 445 260 445 260 569 260 c 2,23,-1
 621 260 l 1,24,-1
 621 1233 l 1,25,-1
 569 1233 l 2,17,18
EndSplineSet
EndChar
StartChar: oe
Encoding: 339 339 177
Width: 1233
Flags: W
Fore
1210 479 m 1,0,-1
 760 479 l 1,1,2
 760 335 760 335 809.5 259.5 c 128,-1,3
 859 184 859 184 954 184 c 0,4,5
 1014 184 1014 184 1074 213.5 c 128,-1,6
 1134 243 1134 243 1194 301 c 1,7,-1
 1194 57 l 1,8,9
 1145 13 1145 13 1083 -8 c 128,-1,10
 1021 -29 1021 -29 936 -29 c 0,11,12
 838 -29 838 -29 767 8 c 128,-1,13
 696 45 696 45 649 119 c 1,14,15
 606 42 606 42 539.5 6.5 c 128,-1,16
 473 -29 473 -29 373 -29 c 0,17,18
 183 -29 183 -29 98.5 109 c 128,-1,19
 14 247 14 247 14 559 c 0,20,21
 14 874 14 874 98.5 1010.5 c 128,-1,22
 183 1147 183 1147 373 1147 c 0,23,24
 472 1147 472 1147 534 1117.5 c 128,-1,25
 596 1088 596 1088 637 1022 c 1,26,27
 665 1082 665 1082 730 1114.5 c 128,-1,28
 795 1147 795 1147 887 1147 c 0,29,30
 1064 1147 1064 1147 1137 1028 c 128,-1,31
 1210 909 1210 909 1210 606 c 2,32,-1
 1210 479 l 1,0,-1
985 690 m 1,33,-1
 985 725 l 2,34,35
 985 841 985 841 959.5 887.5 c 128,-1,36
 934 934 934 934 872 934 c 256,37,38
 810 934 810 934 785 886.5 c 128,-1,39
 760 839 760 839 760 713 c 2,40,-1
 760 690 l 1,41,-1
 985 690 l 1,33,-1
520 559 m 0,42,43
 520 801 520 801 491 867.5 c 128,-1,44
 462 934 462 934 385 934 c 0,45,46
 307 934 307 934 277.5 867.5 c 128,-1,47
 248 801 248 801 248 559 c 256,48,49
 248 317 248 317 277.5 250.5 c 128,-1,50
 307 184 307 184 385 184 c 0,51,52
 462 184 462 184 491 251 c 128,-1,53
 520 318 520 318 520 559 c 0,42,43
EndSplineSet
EndChar
StartChar: endash
Encoding: 8211 8211 178
Width: 1233
Flags: W
Fore
0 690 m 1,0,-1
 1233 690 l 1,1,-1
 1233 444 l 1,2,-1
 0 444 l 1,3,-1
 0 690 l 1,0,-1
EndSplineSet
EndChar
StartChar: emdash
Encoding: 8212 8212 179
Width: 1233
Flags: W
Fore
0 690 m 1,0,-1
 1233 690 l 1,1,-1
 1233 444 l 1,2,-1
 0 444 l 1,3,-1
 0 690 l 1,0,-1
EndSplineSet
EndChar
StartChar: quotedblleft
Encoding: 8220 8220 180
Width: 1233
Flags: W
Fore
465 903 m 1,0,-1
 152 903 l 1,1,-1
 152 1174 l 1,2,-1
 348 1556 l 1,3,-1
 563 1556 l 1,4,-1
 465 1174 l 1,5,-1
 465 903 l 1,0,-1
985 903 m 1,6,-1
 672 903 l 1,7,-1
 672 1174 l 1,8,-1
 868 1556 l 1,9,-1
 1081 1556 l 1,10,-1
 985 1174 l 1,11,-1
 985 903 l 1,6,-1
EndSplineSet
EndChar
StartChar: quotedblright
Encoding: 8221 8221 181
Width: 1233
Flags: W
Fore
768 1556 m 1,0,-1
 1081 1556 l 1,1,-1
 1081 1286 l 1,2,-1
 885 903 l 1,3,-1
 670 903 l 1,4,-1
 768 1286 l 1,5,-1
 768 1556 l 1,0,-1
248 1556 m 1,6,-1
 561 1556 l 1,7,-1
 561 1286 l 1,8,-1
 365 903 l 1,9,-1
 150 903 l 1,10,-1
 248 1286 l 1,11,-1
 248 1556 l 1,6,-1
EndSplineSet
EndChar
StartChar: quoteleft
Encoding: 8216 8216 182
Width: 1233
Flags: W
Fore
745 903 m 1,0,-1
 432 903 l 1,1,-1
 432 1174 l 1,2,-1
 629 1556 l 1,3,-1
 844 1556 l 1,4,-1
 745 1174 l 1,5,-1
 745 903 l 1,0,-1
EndSplineSet
EndChar
StartChar: quoteright
Encoding: 8217 8217 183
Width: 1233
Flags: W
Fore
530 1556 m 1,0,-1
 844 1556 l 1,1,-1
 844 1286 l 1,2,-1
 647 903 l 1,3,-1
 432 903 l 1,4,-1
 530 1286 l 1,5,-1
 530 1556 l 1,0,-1
EndSplineSet
EndChar
StartChar: divide
Encoding: 247 247 184
Width: 1724
VWidth: 2220
Flags: W
HStem: -66.6 284.16<839.304 870.24> 510.6 88.8<161.384 1547.34> 892.44 284.16<839.304 870.24>
VStem: 721.5 284.16<51.0074 82.14 1010.05 1041.18>
Fore
1005.66 1034.52 m 0,0,1
 1005.66 975.336 1005.66 975.336 963.311 933.888 c 0,2,3
 920.962 892.44 920.962 892.44 863.58 892.44 c 0,2,3
 806.588 892.44 806.588 892.44 764.044 934.532 c 0,4,5
 721.5 976.623 721.5 976.623 721.5 1034.52 c 0,4,5
 721.5 1093.7 721.5 1093.7 763.849 1135.15 c 0,6,7
 806.197 1176.6 806.197 1176.6 863.58 1176.6 c 0,6,7
 920.572 1176.6 920.572 1176.6 963.116 1134.51 c 0,8,9
 1005.66 1092.42 1005.66 1092.42 1005.66 1034.52 c 0,0,1
1005.66 75.4805 m 0,8,9
 1005.66 16.2958 1005.66 16.2958 963.311 -25.1519 c 0,10,11
 920.962 -66.5996 920.962 -66.5996 863.58 -66.5996 c 0,10,11
 806.588 -66.5996 806.588 -66.5996 764.044 -24.5082 c 0,12,13
 721.5 17.5831 721.5 17.5831 721.5 75.4805 c 0,12,13
 721.5 134.665 721.5 134.665 763.849 176.112 c 0,14,15
 806.198 217.56 806.198 217.56 863.58 217.56 c 0,14,15
 920.572 217.56 920.572 217.56 963.116 175.468 c 0,16,17
 1005.66 133.377 1005.66 133.377 1005.66 75.4805 c 0,8,9
197.58 599.4 m 2,16,-1
 1529.58 599.4 l 2,17,18
 1545.81 599.4 1545.81 599.4 1554.9 598.551 c 0,19,20
 1563.99 597.702 1563.99 597.702 1577.1 594.006 c 0,21,22
 1590.21 590.309 1590.21 590.309 1596.53 580.514 c 0,23,24
 1602.84 570.718 1602.84 570.718 1602.84 555 c 0,19,20
 1602.84 539.282 1602.84 539.282 1596.53 529.486 c 0,21,22
 1590.21 519.691 1590.21 519.691 1577.1 515.994 c 0,23,24
 1563.99 512.298 1563.99 512.298 1554.9 511.449 c 0,25,26
 1545.81 510.6 1545.81 510.6 1529.58 510.6 c 2,21,-1
 197.58 510.6 l 2,22,23
 181.346 510.6 181.346 510.6 172.258 511.449 c 0,24,25
 163.17 512.298 163.17 512.298 150.058 515.994 c 0,26,27
 136.946 519.691 136.946 519.691 130.633 529.486 c 0,28,29
 124.32 539.282 124.32 539.282 124.32 555 c 0,24,25
 124.32 570.718 124.32 570.718 130.633 580.514 c 0,26,27
 136.946 590.309 136.946 590.309 150.058 594.006 c 0,28,29
 163.17 597.702 163.17 597.702 172.258 598.551 c 0,30,31
 181.346 599.4 181.346 599.4 197.58 599.4 c 2,16,-1
EndSplineSet
EndChar
StartChar: lozenge
Encoding: 9674 9674 185
Width: 1478
VWidth: 2220
Flags: W
HStem: -295.26 128.76<734.82 743.7>
DStem: 63 274 100 291 311 -116 332 -75 311 699 333 659 65 311 100 291 333 659 355 699 566 292 603 309 566 292 601 272 334 -75 355 -116
Fore
1334.22 603.84 m 2,0,-1
 788.1 -257.52 l 2,1,2
 779 -271.17 779 -271.17 774.457 -277.027 c 0,3,4
 769.915 -282.885 769.915 -282.885 760.303 -289.072 c 0,5,6
 750.691 -295.26 750.691 -295.26 739.26 -295.26 c 0,3,4
 727.829 -295.26 727.829 -295.26 718.217 -289.072 c 0,5,6
 708.605 -282.884 708.605 -282.884 704.063 -277.028 c 0,7,8
 699.521 -271.171 699.521 -271.171 690.42 -257.52 c 2,5,-1
 139.86 608.28 l 1,6,7
 139.86 608.897 139.86 608.897 135.975 615.634 c 0,8,9
 132.09 622.371 132.09 622.371 128.205 631.266 c 0,10,11
 124.32 640.161 124.32 640.161 124.32 646.02 c 0,8,9
 124.32 655.455 124.32 655.455 127.373 662.916 c 0,10,11
 130.425 670.378 130.425 670.378 144.3 690.42 c 2,10,-1
 690.42 1551.78 l 2,11,12
 699.522 1565.43 699.522 1565.43 704.063 1571.29 c 0,13,14
 708.605 1577.14 708.605 1577.14 718.217 1583.33 c 0,15,16
 727.829 1589.52 727.829 1589.52 739.26 1589.52 c 0,13,14
 750.691 1589.52 750.691 1589.52 760.303 1583.33 c 0,15,16
 769.915 1577.14 769.915 1577.14 774.457 1571.29 c 0,17,18
 778.999 1565.43 778.999 1565.43 788.1 1551.78 c 2,15,-1
 1338.66 685.98 l 1,16,17
 1338.66 685.364 1338.66 685.364 1342.55 678.626 c 0,18,19
 1346.43 671.889 1346.43 671.889 1350.32 662.994 c 0,20,21
 1354.2 654.098 1354.2 654.098 1354.2 648.24 c 0,18,19
 1354.2 638.805 1354.2 638.805 1351.15 631.343 c 0,20,21
 1348.1 623.882 1348.1 623.882 1334.22 603.84 c 2,0,-1
222 646.02 m 1,20,-1
 737.04 -166.5 l 1,21,-1
 741.48 -166.5 l 1,22,-1
 1256.52 648.24 l 1,23,-1
 739.26 1462.98 l 1,24,-1
 222 646.02 l 1,20,-1
EndSplineSet
EndChar
StartChar: uni2215
Encoding: 8725 8725 188
Width: 1110
VWidth: 2220
Flags: W
DStem: 402 730 438 712 61 -212 97 -230
Fore
972.36 1580.64 m 2,0,-1
 215.34 -510.6 l 2,1,2
 211.229 -524.304 211.229 -524.304 207.159 -532.526 c 0,3,4
 203.089 -540.748 203.089 -540.748 193.181 -547.874 c 0,5,6
 183.273 -555 183.273 -555 168.72 -555 c 0,3,4
 150.405 -555 150.405 -555 137.363 -541.957 c 0,5,6
 124.32 -528.915 124.32 -528.915 124.32 -510.6 c 0,5,6
 124.32 -499.5 124.32 -499.5 135.42 -470.64 c 2,7,-1
 892.44 1620.6 l 2,8,9
 896.551 1634.3 896.551 1634.3 900.621 1642.53 c 0,10,11
 904.691 1650.75 904.691 1650.75 914.599 1657.87 c 0,12,13
 924.507 1665 924.507 1665 939.06 1665 c 0,10,11
 957.375 1665 957.375 1665 970.417 1651.96 c 0,12,13
 983.46 1638.91 983.46 1638.91 983.46 1620.6 c 0,12,13
 983.46 1609.5 983.46 1609.5 972.36 1580.64 c 2,0,-1
EndSplineSet
EndChar
StartChar: currency
Encoding: 164 164 189
Width: 1233
Flags: W
Fore
827 643 m 0,0,1
 827 716 827 716 777 765.5 c 128,-1,2
 727 815 727 815 653 815 c 0,3,4
 580 815 580 815 529.5 765.5 c 128,-1,5
 479 716 479 716 479 643 c 0,6,7
 479 569 479 569 529.5 518 c 128,-1,8
 580 467 580 467 653 467 c 0,9,10
 727 467 727 467 777 518 c 128,-1,11
 827 569 827 569 827 643 c 0,0,1
819 938 m 1,12,-1
 991 1108 l 1,13,-1
 1118 979 l 1,14,-1
 948 809 l 1,15,16
 971 768 971 768 982 726.5 c 128,-1,17
 993 685 993 685 993 641 c 0,18,19
 993 594 993 594 981.5 553.5 c 128,-1,20
 970 513 970 513 946 477 c 1,21,-1
 1118 307 l 1,22,-1
 987 176 l 1,23,-1
 817 348 l 1,24,25
 781 324 781 324 741 312.5 c 128,-1,26
 701 301 701 301 653 301 c 0,27,28
 614 301 614 301 572 311.5 c 128,-1,29
 530 322 530 322 485 344 c 1,30,-1
 315 176 l 1,31,-1
 186 305 l 1,32,-1
 356 475 l 1,33,34
 334 517 334 517 322.5 558.5 c 128,-1,35
 311 600 311 600 311 641 c 0,36,37
 311 688 311 688 322.5 728.5 c 128,-1,38
 334 769 334 769 358 807 c 1,39,-1
 186 977 l 1,40,-1
 317 1108 l 1,41,-1
 483 936 l 1,42,43
 524 960 524 960 565.5 971.5 c 128,-1,44
 607 983 607 983 653 983 c 0,45,46
 692 983 692 983 732.5 972 c 128,-1,47
 773 961 773 961 819 938 c 1,12,-1
EndSplineSet
EndChar
StartChar: guilsinglleft
Encoding: 8249 8249 190
Width: 1203
VWidth: 2220
Flags: W
HStem: 165.39 779.22<990.675 1010.66 994.005 994.005 994.005 994.005>
VStem: 178.155 846.93
Fore
999.555 881.34 m 6,0,-1
 283.605 555 l 1,1,-1
 999.555 228.66 l 2,2,3
 1025.08 216.877 1025.08 216.877 1025.08 196.47 c 0,4,5
 1025.08 183.982 1025.08 183.982 1015.79 174.686 c 0,6,7
 1006.49 165.39 1006.49 165.39 994.005 165.39 c 0,6,7
 986.235 165.39 986.235 165.39 969.585 173.16 c 2,8,-1
 203.685 522.81 l 2,9,10
 178.155 534.593 178.155 534.593 178.155 555 c 0,11,12
 178.155 575.407 178.155 575.407 203.685 587.19 c 2,13,-1
 972.915 937.95 l 2,14,15
 987.903 944.61 987.903 944.61 994.005 944.61 c 0,16,17
 1006.49 944.61 1006.49 944.61 1015.79 935.314 c 0,18,19
 1025.08 926.018 1025.08 926.018 1025.08 913.53 c 0,18,19
 1025.08 893.123 1025.08 893.123 999.555 881.34 c 6,0,-1
EndSplineSet
EndChar
StartChar: guilsinglright
Encoding: 8250 8250 191
Width: 1203
VWidth: 2220
Flags: W
HStem: 165.39 23.31<200.91 212.565> 922.41 22.2<200.91 210.9>
VStem: 178.155 846.93
Fore
999.555 522.81 m 6,0,-1
 230.325 172.05 l 2,1,2
 215.338 165.39 215.338 165.39 209.235 165.39 c 0,3,4
 196.748 165.39 196.748 165.39 187.452 174.686 c 0,5,6
 178.155 183.982 178.155 183.982 178.155 196.47 c 0,5,6
 178.155 216.877 178.155 216.877 203.685 228.66 c 2,7,-1
 919.635 555 l 1,8,-1
 203.685 881.34 l 2,9,10
 178.155 893.123 178.155 893.123 178.155 913.53 c 0,11,12
 178.155 926.018 178.155 926.018 187.452 935.314 c 0,13,14
 196.748 944.61 196.748 944.61 209.235 944.61 c 0,13,14
 217.005 944.61 217.005 944.61 233.655 936.84 c 2,15,-1
 999.555 587.19 l 2,16,17
 1025.08 575.407 1025.08 575.407 1025.08 555 c 0,18,19
 1025.08 534.593 1025.08 534.593 999.555 522.81 c 6,0,-1
EndSplineSet
EndChar
StartChar: uniFB01
Encoding: 64257 64257 192
Width: 1233
Flags: W
Fore
805 1556 m 1,0,-1
 1098 1556 l 1,1,-1
 1098 1264 l 1,2,-1
 805 1264 l 1,3,-1
 805 1556 l 1,0,-1
494 1219 m 2,4,-1
 494 1120 l 1,5,-1
 1098 1120 l 1,6,-1
 1098 0 l 1,7,-1
 805 0 l 1,8,-1
 805 895 l 1,9,-1
 494 895 l 1,10,-1
 494 0 l 1,11,-1
 201 0 l 1,12,-1
 201 895 l 1,13,-1
 12 895 l 1,14,-1
 12 1120 l 1,15,-1
 201 1120 l 1,16,-1
 201 1198 l 2,17,18
 201 1400 201 1400 284.5 1478 c 128,-1,19
 368 1556 368 1556 596 1556 c 2,20,-1
 676 1556 l 1,21,-1
 676 1331 l 1,22,-1
 608 1331 l 2,23,24
 542 1331 542 1331 518.5 1307 c 128,-1,25
 495 1283 495 1283 494 1219 c 2,4,-1
EndSplineSet
EndChar
